{
.appVersion = "1230";
copyright = "The Carlsberg font family was designed by Kontrapunkt A/S in 2006, 2008, 2018 and the copyright belongs to Carlsberg A/S.";
customParameters = (
{
name = trademark;
value = "Carlsberg Sans is a trademark of Carlsberg A/S.";
},
{
name = licenseURL;
value = "http://www.monotype.com";
},
{
name = vendorID;
value = MONO;
},
{
name = panose;
value = (
2,
0,
5,
3,
0,
0,
0,
9,
0,
4
);
},
{
name = unicodeRanges;
value = (
0,
1,
2,
3,
5,
9,
29,
31,
60
);
},
{
name = codePageRanges;
value = (
1252,
1250,
1251,
1254,
1257,
1258,
bit 29
);
},
{
name = glyphOrder;
value = (
.notdef,
uni0000,
CR,
space,
A,
Aacute,
Abreve,
Abreveacute,
Abrevedotbelow,
Abrevegrave,
Abrevehookabove,
Abrevetilde,
Acircumflex,
Acircumflexacute,
Acircumflexdotbelow,
Acircumflexgrave,
Acircumflexhookabove,
Acircumflextilde,
Adieresis,
Adotbelow,
Agrave,
Ahookabove,
Amacron,
Aogonek,
Aring,
Atilde,
AE,
B,
C,
Cacute,
Ccaron,
Ccedilla,
D,
Eth,
Dcaron,
Dcroat,
E,
Eacute,
Ecaron,
Ecircumflex,
Ecircumflexacute,
Ecircumflexdotbelow,
Ecircumflexgrave,
Ecircumflexhookabove,
Ecircumflextilde,
Edieresis,
Edotaccent,
Edotbelow,
Egrave,
Ehookabove,
Emacron,
Eogonek,
Etilde,
F,
G,
Gbreve,
Gcommaaccent,
H,
I,
Iacute,
Icircumflex,
Idieresis,
Idotaccent,
Idotbelow,
Igrave,
Ihookabove,
Imacron,
Iogonek,
Itilde,
J,
K,
Kcommaaccent,
L,
Lacute,
Lcaron,
Lcommaaccent,
Lslash,
M,
N,
Nacute,
Ncaron,
Ncommaaccent,
Ntilde,
O,
Oacute,
Ocircumflex,
Ocircumflexacute,
Ocircumflexdotbelow,
Ocircumflexgrave,
Ocircumflexhookabove,
Ocircumflextilde,
Odieresis,
Odotbelow,
Ograve,
Ohookabove,
Ohorn,
Ohornacute,
Ohorndotbelow,
Ohorngrave,
Ohornhookabove,
Ohorntilde,
Ohungarumlaut,
Omacron,
Oslash,
Otilde,
OE,
P,
Thorn,
Q,
R,
Racute,
Rcaron,
Rcommaaccent,
S,
Sacute,
Scaron,
Scedilla,
Scommaaccent,
Schwa,
T,
Tcaron,
Tcedilla,
Tcommaaccent,
U,
Uacute,
Ucircumflex,
Udieresis,
Udotbelow,
Ugrave,
Uhookabove,
Uhorn,
Uhornacute,
Uhorndotbelow,
Uhorngrave,
Uhornhookabove,
Uhorntilde,
Uhungarumlaut,
Umacron,

glyphs = (
{
glyphname = .notdef;
layers = (
{
layerId = "DEC32D14-9EEB-4E31-A016-AD32FECB2E7D";
paths = (
{
closed = 1;
nodes = (
"99 665 LINE",
"-17 0 LINE",
"457 0 LINE",
"574 665 LINE"
);
},
{
closed = 1;
nodes = (
"286 375 LINE",
"167 618 LINE",
"490 618 LINE"
);
},
{
closed = 1;
nodes = (
"46 91 LINE",
"132 575 LINE",
"250 333 LINE"
);
},
{
closed = 1;
nodes = (
"307 333 LINE",
"512 575 LINE",
"426 90 LINE"
);
},
{
closed = 1;
nodes = (
"271 290 LINE",
"390 48 LINE",
"67 48 LINE"
);
}
);
userData = {
assembly = "NPUSHB[ ]\011/* 18 values pushed */
11 8 10 9 9 15 6 8 4 13 3 5 106 3 2 13 106 2 
SVTCA[0]\011/* SetFreedomAndProjectionVectorToAxis */
MDAP[1]\011/* MoveDirectAbsPt */
CALL[ ]\011/* CallFunction */
MDAP[1]\011/* MoveDirectAbsPt */
CALL[ ]\011/* CallFunction */
SRP1[ ]\011/* SetRefPoint1 */
SLOOP[ ]\011/* SetLoopVariable */
IP[ ]\011/* InterpolatePts */
SRP1[ ]\011/* SetRefPoint1 */
SHP[1]\011/* ShiftPointByLastPoint */
SRP1[ ]\011/* SetRefPoint1 */
SHP[1]\011/* ShiftPointByLastPoint */
IUP[0]\011/* InterpolateUntPts */
IUP[1]\011/* InterpolateUntPts */";
};
width = 500;
}
);
note = .notdef;
},
{
glyphname = uni0000;
layers = (
{
layerId = "DEC32D14-9EEB-4E31-A016-AD32FECB2E7D";
paths = (
{
closed = 1;
nodes = (
"0 0 LINE"
);
}
);
width = 0;
}
);
note = uni0000;
},
{
glyphname = CR;
layers = (
{
layerId = "DEC32D14-9EEB-4E31-A016-AD32FECB2E7D";
paths = (
{
closed = 1;
nodes = (
"0 0 LINE"
);
}
);
width = 250;
}
);
note = uni000D;
},
{
glyphname = space;
layers = (
{
layerId = "DEC32D14-9EEB-4E31-A016-AD32FECB2E7D";
paths = (
{
closed = 1;
nodes = (
"0 0 LINE"
);
}
);
width = 250;
}
);
note = uni0020;
unicode = 0020;
},
{
glyphname = A;
layers = (
{
layerId = "DEC32D14-9EEB-4E31-A016-AD32FECB2E7D";
paths = (
{
closed = 1;
nodes = (
"620 0 LINE",
"478 706 LINE SMOOTH",
"476 718 OFFCURVE",
"465 727 OFFCURVE",
"453 727 QCURVE SMOOTH",
"375 727 LINE",
"-27 0 LINE",
"32 0 LINE SMOOTH",
"44 0 OFFCURVE",
"58 9 OFFCURVE",
"65 21 QCURVE SMOOTH",
"141 161 LINE",
"509 161 LINE",
"536 21 LINE SMOOTH",
"538 9 OFFCURVE",
"549 0 OFFCURVE",
"561 0 QCURVE SMOOTH"
);
},
{
closed = 1;
nodes = (
"412 657 LINE",
"494 232 LINE",
"180 232 LINE"
);
}
);
userData = {
assembly = "NPUSHB[ ]\011/* 14 values pushed */
4 17 106 19 4 4 9 10 2 114 16 9 8 114 
SVTCA[0]\011/* SetFreedomAndProjectionVectorToAxis */
CALL[ ]\011/* CallFunction */
SHP[0]\011/* ShiftPointByLastPoint */
CALL[ ]\011/* CallFunction */
SRP1[ ]\011/* SetRefPoint1 */
IP[ ]\011/* InterpolatePts */
MDAP[1]\011/* MoveDirectAbsPt */
IP[ ]\011/* InterpolatePts */
CALL[ ]\011/* CallFunction */
IUP[0]\011/* InterpolateUntPts */
IUP[1]\011/* InterpolateUntPts */";
};
width = 655;
}
);
leftKerningGroup = A;
note = uni0041;
rightKerningGroup = A;
unicode = 0041;
},
{
glyphname = Aogonek;
layers = (
{
layerId = "DEC32D14-9EEB-4E31-A016-AD32FECB2E7D";
paths = (
{
closed = 1;
nodes = (
"478 706 LINE SMOOTH",
"476 718 OFFCURVE",
"465 727 OFFCURVE",
"453 727 QCURVE SMOOTH",
"375 727 LINE",
"-27 0 LINE",
"32 0 LINE SMOOTH",
"44 0 OFFCURVE",
"58 9 OFFCURVE",
"65 21 QCURVE SMOOTH",
"141 161 LINE",
"509 161 LINE",
"518 114 LINE",
"536 21 LINE SMOOTH",
"538 9 OFFCURVE",
"549 0 OFFCURVE",
"560 0 QCURVE",
"530 -17 OFFCURVE",
"478 -67 OFFCURVE",
"466 -94 QCURVE SMOOTH",
"457 -113 OFFCURVE",
"457 -133 QCURVE SMOOTH",
"457 -164 OFFCURVE",
"502 -187 OFFCURVE",
"531 -187 QCURVE SMOOTH",
"562 -187 OFFCURVE",
"600 -178 QCURVE",
"605 -147 LINE",
"605 -140 OFFCURVE",
"596 -132 OFFCURVE",
"589 -132 QCURVE SMOOTH",
"580 -132 OFFCURVE",
"566 -136 QCURVE",
"563 -136 OFFCURVE",
"557 -138 QCURVE",
"551 -139 OFFCURVE",
"546 -139 QCURVE SMOOTH",
"514 -139 OFFCURVE",
"514 -115 QCURVE SMOOTH",
"514 -96 OFFCURVE",
"549 -51 OFFCURVE",
"599 -12 OFFCURVE",
"620 0 QCURVE"
);
},
{
closed = 1;
nodes = (
"412 657 LINE",
"494 232 LINE",
"180 232 LINE"
);
}
);
userData = {
assembly = "NPUSHB[ ]\011/* 21 values pushed */
25 42 8 114 31 43 106 31 31 17 37 2 114 36 8 114 15 17 5 106 17 
SVTCA[0]\011/* SetFreedomAndProjectionVectorToAxis */
MDAP[1]\011/* MoveDirectAbsPt */
CALL[ ]\011/* CallFunction */
SHP[1]\011/* ShiftPointByLastPoint */
CALL[ ]\011/* CallFunction */
CALL[ ]\011/* CallFunction */
SRP1[ ]\011/* SetRefPoint1 */
IP[ ]\011/* InterpolatePts */
MDAP[1]\011/* MoveDirectAbsPt */
CALL[ ]\011/* CallFunction */
CALL[ ]\011/* CallFunction */
SHP[0]\011/* ShiftPointByLastPoint */
IUP[0]\011/* InterpolateUntPts */
IUP[1]\011/* InterpolateUntPts */";
};
width = 655;
}
);
leftKerningGroup = A;
note = uni0104;
rightKerningGroup = A;
unicode = 0104;
},
{
glyphname = Aring;
layers = (
{
layerId = "DEC32D14-9EEB-4E31-A016-AD32FECB2E7D";
paths = (
{
closed = 1;
nodes = (
"140 161 LINE",
"508 161 LINE",
"535 21 LINE SMOOTH",
"537 9 OFFCURVE",
"549 0 OFFCURVE",
"561 0 QCURVE SMOOTH",
"620 0 LINE",
"494 618 LINE",
"522 633 OFFCURVE",
"553 694 OFFCURVE",
"553 727 QCURVE SMOOTH",
"553 770 OFFCURVE",
"495 814 OFFCURVE",
"439 814 QCURVE SMOOTH",
"396 814 OFFCURVE",
"327 781 OFFCURVE",
"287 721 OFFCURVE",
"287 681 QCURVE SMOOTH",
"287 659 OFFCURVE",
"303 627 OFFCURVE",
"314 619 QCURVE",
"-27 0 LINE",
"32 0 LINE SMOOTH",
"44 0 OFFCURVE",
"58 9 OFFCURVE",
"64 21 QCURVE SMOOTH"
);
},
{
closed = 1;
nodes = (
"383 637 OFFCURVE",
"350 664 OFFCURVE",
"350 689 QCURVE SMOOTH",
"350 713 OFFCURVE",
"373 749 OFFCURVE",
"410 769 OFFCURVE",
"431 769 QCURVE SMOOTH",
"458 769 OFFCURVE",
"490 743 OFFCURVE",
"490 718 QCURVE SMOOTH",
"490 694 OFFCURVE",
"467 657 OFFCURVE",
"429 637 OFFCURVE",
"408 637 QCURVE SMOOTH"
);
},
{
closed = 1;
nodes = (
"494 232 LINE",
"180 232 LINE",
"377 595 LINE",
"385 594 OFFCURVE",
"400 594 QCURVE SMOOTH",
"415 594 OFFCURVE",
"423 595 QCURVE"
);
},
{
closed = 1;
nodes = (
"325 727 LINE"
);
}
);
userData = {
assembly = "NPUSHB[ ]\011/* 26 values pushed */
24 44 106 17 4 11 39 41 106 32 11 106 32 39 24 39 24 39 3 47 2 114 19 3 8 114 
SVTCA[0]\011/* SetFreedomAndProjectionVectorToAxis */
CALL[ ]\011/* CallFunction */
SHP[0]\011/* ShiftPointByLastPoint */
CALL[ ]\011/* CallFunction */
SRP1[ ]\011/* SetRefPoint1 */
IP[ ]\011/* InterpolatePts */
IP[ ]\011/* InterpolatePts */
MDAP[1]\011/* MoveDirectAbsPt */
MDAP[1]\011/* MoveDirectAbsPt */
SRP0[ ]\011/* SetRefPoint0 */
MDRP[01110]\011/* MoveDirectRelPt */
CALL[ ]\011/* CallFunction */
CALL[ ]\011/* CallFunction */
SRP1[ ]\011/* SetRefPoint1 */
IP[ ]\011/* InterpolatePts */
IP[ ]\011/* InterpolatePts */
CALL[ ]\011/* CallFunction */
IUP[0]\011/* InterpolateUntPts */
IUP[1]\011/* InterpolateUntPts */";
};
width = 655;
}
);
leftKerningGroup = A;
note = uni00C5;
rightKerningGroup = A;
unicode = 00C5;
},
{
glyphname = AE;
layers = (
{
layerId = "DEC32D14-9EEB-4E31-A016-AD32FECB2E7D";
paths = (
{
closed = 1;
nodes = (
"846 0 LINE",
"859 72 LINE",
"532 72 LINE",
"579 338 LINE",
"868 338 LINE",
"880 405 LINE",
"591 405 LINE",
"636 658 LINE",
"949 658 LINE",
"961 727 LINE",
"569 727 LINE SMOOTH",
"487 727 OFFCURVE",
"410 718 OFFCURVE",
"359 684 OFFCURVE",
"338 645 QCURVE SMOOTH",
"-20 0 LINE",
"40 0 LINE SMOOTH",
"51 0 OFFCURVE",
"63 9 OFFCURVE",
"70 21 QCURVE",
"146 163 LINE SMOOTH",
"241 338 OFFCURVE",
"479 338 QCURVE SMOOTH",
"502 338 LINE",
"453 57 LINE",
"452 53 OFFCURVE",
"447 26 OFFCURVE",
"447 18 QCURVE SMOOTH",
"447 9 OFFCURVE",
"457 0 OFFCURVE",
"471 0 QCURVE SMOOTH"
);
},
{
closed = 1;
nodes = (
"559 658 LINE",
"514 405 LINE",
"498 405 LINE SMOOTH",
"416 405 OFFCURVE",
"283 365 OFFCURVE",
"243 336 QCURVE",
"396 610 LINE SMOOTH",
"409 633 OFFCURVE",
"432 652 OFFCURVE",
"476 658 OFFCURVE",
"524 658 QCURVE SMOOTH"
);
}
);
userData = {
assembly = "NPUSHB[ ]\011/* 26 values pushed */
22 19 41 106 35 38 30 38 26 23 106 7 26 26 14 19 2 114 30 27 106 30 2 14 8 114 
SVTCA[0]\011/* SetFreedomAndProjectionVectorToAxis */
CALL[ ]\011/* CallFunction */
SHP[0]\011/* ShiftPointByLastPoint */
SHP[0]\011/* ShiftPointByLastPoint */
CALL[ ]\011/* CallFunction */
CALL[ ]\011/* CallFunction */
SRP1[ ]\011/* SetRefPoint1 */
IP[ ]\011/* InterpolatePts */
MDAP[1]\011/* MoveDirectAbsPt */
SHP[1]\011/* ShiftPointByLastPoint */
CALL[ ]\011/* CallFunction */
SHP[0]\011/* ShiftPointByLastPoint */
SRP1[ ]\011/* SetRefPoint1 */
SRP2[ ]\011/* SetRefPoint2 */
IP[ ]\011/* InterpolatePts */
CALL[ ]\011/* CallFunction */
SHP[0]\011/* ShiftPointByLastPoint */
IUP[0]\011/* InterpolateUntPts */
IUP[1]\011/* InterpolateUntPts */";
};
width = 936;
}
);
leftKerningGroup = A;
note = uni00C6;
rightKerningGroup = AE;
unicode = 00C6;
},
{
glyphname = B;
layers = (
{
layerId = "DEC32D14-9EEB-4E31-A016-AD32FECB2E7D";
paths = (
{
closed = 1;
nodes = (
"120 -3 OFFCURVE",
"214 -6 OFFCURVE",
"261 -6 QCURVE SMOOTH",
"389 -6 OFFCURVE",
"541 39 OFFCURVE",
"616 151 OFFCURVE",
"616 254 QCURVE SMOOTH",
"616 292 OFFCURVE",
"588 347 OFFCURVE",
"557 366 QCURVE SMOOTH",
"549 371 OFFCURVE",
"549 376 QCURVE SMOOTH",
"549 380 OFFCURVE",
"555 388 OFFCURVE",
"560 391 QCURVE",
"564 394 OFFCURVE",
"565 395 QCURVE",
"614 427 OFFCURVE",
"661 537 OFFCURVE",
"661 599 QCURVE SMOOTH",
"661 656 OFFCURVE",
"608 714 OFFCURVE",
"501 734 OFFCURVE",
"405 734 QCURVE SMOOTH",
"309 734 OFFCURVE",
"187 730 QCURVE",
"68 57 LINE",
"67 53 OFFCURVE",
"62 26 OFFCURVE",
"62 18 QCURVE SMOOTH",
"62 10 OFFCURVE",
"72 1 OFFCURVE",
"86 0 QCURVE SMOOTH"
);
},
{
closed = 1;
nodes = (
"207 405 LINE",
"253 668 LINE",
"311 672 OFFCURVE",
"404 672 QCURVE SMOOTH",
"471 672 OFFCURVE",
"546 655 OFFCURVE",
"578 618 OFFCURVE",
"578 584 QCURVE SMOOTH",
"578 545 OFFCURVE",
"554 462 OFFCURVE",
"505 405 OFFCURVE",
"470 405 QCURVE SMOOTH"
);
},
{
closed = 1;
nodes = (
"195 338 LINE",
"452 338 LINE SMOOTH",
"475 338 OFFCURVE",
"493 336 OFFCURVE",
"505 325 OFFCURVE",
"513 312 QCURVE SMOOTH",
"520 300 OFFCURVE",
"529 260 OFFCURVE",
"529 239 QCURVE SMOOTH",
"529 166 OFFCURVE",
"472 86 OFFCURVE",
"371 58 OFFCURVE",
"294 58 QCURVE SMOOTH",
"223 58 OFFCURVE",
"146 62 QCURVE"
);
}
);
userData = {
assembly = "NPUSHB[ ]\011/* 21 values pushed */
20 59 43 106 59 59 8 29 47 106 32 29 8 114 8 40 106 6 8 3 114 
SVTCA[0]\011/* SetFreedomAndProjectionVectorToAxis */
CALL[ ]\011/* CallFunction */
SHP[0]\011/* ShiftPointByLastPoint */
CALL[ ]\011/* CallFunction */
CALL[ ]\011/* CallFunction */
SHP[0]\011/* ShiftPointByLastPoint */
CALL[ ]\011/* CallFunction */
SRP2[ ]\011/* SetRefPoint2 */
IP[ ]\011/* InterpolatePts */
MDAP[1]\011/* MoveDirectAbsPt */
CALL[ ]\011/* CallFunction */
IP[ ]\011/* InterpolatePts */
IUP[0]\011/* InterpolateUntPts */
IUP[1]\011/* InterpolateUntPts */";
};
width = 659;
}
);
note = uni0042;
rightKerningGroup = B;
unicode = 0042;
},
{
glyphname = C;
layers = (
{
layerId = "DEC32D14-9EEB-4E31-A016-AD32FECB2E7D";
paths = (
{
closed = 1;
nodes = (
"642 705 LINE",
"601 720 OFFCURVE",
"496 742 OFFCURVE",
"443 742 QCURVE SMOOTH",
"315 742 OFFCURVE",
"147 583 OFFCURVE",
"70 346 OFFCURVE",
"70 226 QCURVE SMOOTH",
"70 141 OFFCURVE",
"124 36 OFFCURVE",
"232 -12 OFFCURVE",
"315 -12 QCURVE SMOOTH",
"374 -12 OFFCURVE",
"492 19 OFFCURVE",
"538 42 QCURVE",
"521 95 LINE",
"476 80 OFFCURVE",
"380 58 OFFCURVE",
"345 58 QCURVE SMOOTH",
"276 58 OFFCURVE",
"192 91 OFFCURVE",
"151 166 OFFCURVE",
"151 232 QCURVE SMOOTH",
"151 336 OFFCURVE",
"205 537 OFFCURVE",
"332 673 OFFCURVE",
"434 673 QCURVE SMOOTH",
"480 673 OFFCURVE",
"544 655 OFFCURVE",
"573 636 QCURVE",
"574 635 OFFCURVE",
"586 627 OFFCURVE",
"592 627 QCURVE SMOOTH",
"601 627 OFFCURVE",
"607 638 QCURVE SMOOTH"
);
}
);
userData = {
assembly = "NPUSHB[ ]\011/* 12 values pushed */
22 15 106 30 7 106 30 3 114 22 9 114 
SVTCA[0]\011/* SetFreedomAndProjectionVectorToAxis */
CALL[ ]\011/* CallFunction */
CALL[ ]\011/* CallFunction */
CALL[ ]\011/* CallFunction */
CALL[ ]\011/* CallFunction */
IUP[0]\011/* InterpolateUntPts */
IUP[1]\011/* InterpolateUntPts */";
};
width = 600;
}
);
leftKerningGroup = C;
note = uni0043;
rightKerningGroup = C;
unicode = 0043;
},
{
glyphname = Ccedilla;
layers = (
{
layerId = "DEC32D14-9EEB-4E31-A016-AD32FECB2E7D";
paths = (
{
closed = 1;
nodes = (
"642 705 LINE",
"601 720 OFFCURVE",
"496 742 OFFCURVE",
"443 742 QCURVE SMOOTH",
"322 742 OFFCURVE",
"159 601 OFFCURVE",
"78 384 OFFCURVE",
"71 268 QCURVE SMOOTH",
"70 254 OFFCURVE",
"70 226 QCURVE SMOOTH",
"70 113 OFFCURVE",
"167 0 OFFCURVE",
"266 -9 QCURVE",
"241 -94 LINE",
"259 -94 LINE SMOOTH",
"298 -94 OFFCURVE",
"298 -115 QCURVE SMOOTH",
"298 -128 OFFCURVE",
"275 -143 OFFCURVE",
"256 -143 QCURVE SMOOTH",
"247 -143 OFFCURVE",
"233 -138 QCURVE SMOOTH",
"218 -133 OFFCURVE",
"214 -133 QCURVE SMOOTH",
"206 -133 OFFCURVE",
"197 -141 OFFCURVE",
"193 -151 QCURVE",
"182 -175 LINE",
"194 -180 OFFCURVE",
"227 -187 OFFCURVE",
"245 -187 QCURVE SMOOTH",
"273 -187 OFFCURVE",
"330 -162 OFFCURVE",
"345 -140 QCURVE SMOOTH",
"356 -124 OFFCURVE",
"356 -104 QCURVE SMOOTH",
"356 -61 OFFCURVE",
"298 -57 QCURVE",
"311 -12 LINE",
"365 -12 OFFCURVE",
"467 12 OFFCURVE",
"538 40 OFFCURVE",
"538 42 QCURVE",
"521 95 LINE",
"476 80 OFFCURVE",
"380 58 OFFCURVE",
"345 58 QCURVE SMOOTH",
"316 58 OFFCURVE",
"292 61 QCURVE SMOOTH",
"243 67 OFFCURVE",
"181 104 OFFCURVE",
"151 176 OFFCURVE",
"151 232 QCURVE SMOOTH",
"151 336 OFFCURVE",
"205 537 OFFCURVE",
"332 673 OFFCURVE",
"434 673 QCURVE SMOOTH",
"480 673 OFFCURVE",
"544 655 OFFCURVE",
"573 636 QCURVE",
"574 635 OFFCURVE",
"586 627 OFFCURVE",
"592 627 QCURVE SMOOTH",
"601 627 OFFCURVE",
"607 638 QCURVE SMOOTH"
);
}
);
userData = {
assembly = "PUSHW[ ]\011/* 2 values pushed */
26 -16 
NPUSHB[ ]\011/* 28 values pushed */
26 65 63 50 79 50 2 50 50 33 65 60 7 106 60 3 114 33 44 106 36 33 51 25 17 106 25 9 
SVTCA[0]\011/* SetFreedomAndProjectionVectorToAxis */
MIAP[1]\011/* MoveIndirectAbsPt */
CALL[ ]\011/* CallFunction */
SHP[1]\011/* ShiftPointByLastPoint */
MDAP[1]\011/* MoveDirectAbsPt */
SHP[1]\011/* ShiftPointByLastPoint */
CALL[ ]\011/* CallFunction */
CALL[ ]\011/* CallFunction */
CALL[ ]\011/* CallFunction */
SRP1[ ]\011/* SetRefPoint1 */
SRP2[ ]\011/* SetRefPoint2 */
IP[ ]\011/* InterpolatePts */
RDTG[ ]\011/* RoundDownToGrid */
MDAP[1]\011/* MoveDirectAbsPt */
DELTAP1[ ]\011/* DeltaExceptionP1 */
SRP2[ ]\011/* SetRefPoint2 */
IP[ ]\011/* InterpolatePts */
SHPIX[ ]\011/* ShiftZoneByPixel */
IUP[0]\011/* InterpolateUntPts */
IUP[1]\011/* InterpolateUntPts */";
};
width = 600;
}
);
leftKerningGroup = C;
note = uni00C7;
rightKerningGroup = C;
unicode = 00C7;
},
{
glyphname = D;
layers = (
{
layerId = "DEC32D14-9EEB-4E31-A016-AD32FECB2E7D";
paths = (
{
closed = 1;
nodes = (
"203 -6 OFFCURVE",
"270 -6 QCURVE SMOOTH",
"427 -6 OFFCURVE",
"616 140 OFFCURVE",
"693 367 OFFCURVE",
"693 500 QCURVE SMOOTH",
"693 622 OFFCURVE",
"562 734 OFFCURVE",
"439 734 QCURVE SMOOTH",
"187 733 LINE",
"68 57 LINE",
"67 53 OFFCURVE",
"62 26 OFFCURVE",
"62 18 QCURVE SMOOTH",
"62 10 OFFCURVE",
"72 1 OFFCURVE",
"86 0 QCURVE SMOOTH"
);
},
{
closed = 1;
nodes = (
"254 669 LINE",
"428 671 LINE SMOOTH",
"516 671 OFFCURVE",
"607 587 OFFCURVE",
"607 488 QCURVE SMOOTH",
"607 359 OFFCURVE",
"536 167 OFFCURVE",
"397 62 OFFCURVE",
"299 62 QCURVE SMOOTH",
"215 62 OFFCURVE",
"148 65 QCURVE"
);
}
);
userData = {
assembly = "NPUSHB[ ]\011/* 13 values pushed */
16 14 18 106 7 25 106 7 3 114 14 8 114 
SVTCA[0]\011/* SetFreedomAndProjectionVectorToAxis */
CALL[ ]\011/* CallFunction */
CALL[ ]\011/* CallFunction */
CALL[ ]\011/* CallFunction */
CALL[ ]\011/* CallFunction */
SHP[1]\011/* ShiftPointByLastPoint */
IUP[0]\011/* InterpolateUntPts */
IUP[1]\011/* InterpolateUntPts */";
};
width = 702;
}
);
note = uni0044;
rightKerningGroup = D;
unicode = 0044;
},
{
glyphname = Eth;
layers = (
{
layerId = "DEC32D14-9EEB-4E31-A016-AD32FECB2E7D";
paths = (
{
closed = 1;
nodes = (
"50 341 LINE",
"129 341 LINE",
"78 57 LINE",
"77 53 OFFCURVE",
"72 26 OFFCURVE",
"72 18 QCURVE SMOOTH",
"72 10 OFFCURVE",
"82 1 OFFCURVE",
"96 0 QCURVE SMOOTH",
"213 -6 OFFCURVE",
"280 -6 QCURVE SMOOTH",
"437 -6 OFFCURVE",
"626 140 OFFCURVE",
"703 367 OFFCURVE",
"703 500 QCURVE SMOOTH",
"703 622 OFFCURVE",
"572 734 OFFCURVE",
"449 734 QCURVE SMOOTH",
"197 733 LINE",
"140 406 LINE",
"61 406 LINE"
);
},
{
closed = 1;
nodes = (
"207 341 LINE",
"350 341 LINE",
"361 406 LINE",
"218 406 LINE",
"264 669 LINE",
"268 668 OFFCURVE",
"278 669 QCURVE",
"287 669 OFFCURVE",
"298 669 QCURVE",
"318 670 OFFCURVE",
"370 670 QCURVE SMOOTH",
"438 671 LINE SMOOTH",
"526 671 OFFCURVE",
"617 587 OFFCURVE",
"617 488 QCURVE SMOOTH",
"617 359 OFFCURVE",
"546 167 OFFCURVE",
"407 62 OFFCURVE",
"309 62 QCURVE SMOOTH",
"207 62 OFFCURVE",
"158 65 QCURVE"
);
}
);
userData = {
assembly = "NPUSHB[ ]\011/* 21 values pushed */
12 10 22 106 0 20 40 37 106 40 40 10 3 29 106 3 3 114 10 8 114 
SVTCA[0]\011/* SetFreedomAndProjectionVectorToAxis */
CALL[ ]\011/* CallFunction */
CALL[ ]\011/* CallFunction */
CALL[ ]\011/* CallFunction */
SRP2[ ]\011/* SetRefPoint2 */
IP[ ]\011/* InterpolatePts */
MDAP[1]\011/* MoveDirectAbsPt */
CALL[ ]\011/* CallFunction */
SHP[1]\011/* ShiftPointByLastPoint */
SHP[0]\011/* ShiftPointByLastPoint */
CALL[ ]\011/* CallFunction */
SHP[1]\011/* ShiftPointByLastPoint */
IUP[0]\011/* InterpolateUntPts */
IUP[1]\011/* InterpolateUntPts */";
};
width = 712;
}
);
note = uni00D0;
rightKerningGroup = D;
unicode = 00D0;
},
{
glyphname = E;
layers = (
{
layerId = "DEC32D14-9EEB-4E31-A016-AD32FECB2E7D";
paths = (
{
closed = 1;
nodes = (
"186 727 LINE",
"68 57 LINE",
"67 53 OFFCURVE",
"62 26 OFFCURVE",
"62 18 QCURVE SMOOTH",
"62 9 OFFCURVE",
"72 0 OFFCURVE",
"86 0 QCURVE SMOOTH",
"505 0 LINE",
"518 72 LINE",
"147 72 LINE",
"194 338 LINE",
"527 338 LINE",
"539 405 LINE",
"206 405 LINE",
"251 658 LINE",
"608 658 LINE",
"620 727 LINE"
);
}
);
userData = {
assembly = "NPUSHB[ ]\011/* 19 values pushed */
13 10 7 106 6 3 106 6 6 10 17 2 106 17 2 114 10 8 114 
SVTCA[0]\011/* SetFreedomAndProjectionVectorToAxis */
CALL[ ]\011/* CallFunction */
CALL[ ]\011/* CallFunction */
CALL[ ]\011/* CallFunction */
SRP2[ ]\011/* SetRefPoint2 */
IP[ ]\011/* InterpolatePts */
MDAP[1]\011/* MoveDirectAbsPt */
CALL[ ]\011/* CallFunction */
CALL[ ]\011/* CallFunction */
SHP[1]\011/* ShiftPointByLastPoint */
IUP[0]\011/* InterpolateUntPts */
IUP[1]\011/* InterpolateUntPts */";
};
width = 595;
}
);
note = uni0045;
rightKerningGroup = AE;
unicode = 0045;
},
{
glyphname = Eogonek;
layers = (
{
layerId = "DEC32D14-9EEB-4E31-A016-AD32FECB2E7D";
paths = (
{
closed = 1;
nodes = (
"446 0 LINE",
"420 -15 OFFCURVE",
"373 -57 OFFCURVE",
"359 -81 QCURVE SMOOTH",
"343 -108 OFFCURVE",
"343 -133 QCURVE SMOOTH",
"343 -164 OFFCURVE",
"388 -187 OFFCURVE",
"417 -187 QCURVE SMOOTH",
"448 -187 OFFCURVE",
"486 -178 QCURVE",
"491 -147 LINE",
"491 -140 OFFCURVE",
"482 -132 OFFCURVE",
"475 -132 QCURVE SMOOTH",
"466 -132 OFFCURVE",
"452 -136 QCURVE",
"449 -136 OFFCURVE",
"443 -138 QCURVE",
"437 -139 OFFCURVE",
"432 -139 QCURVE SMOOTH",
"400 -139 OFFCURVE",
"400 -115 QCURVE SMOOTH",
"400 -96 OFFCURVE",
"435 -51 OFFCURVE",
"485 -12 OFFCURVE",
"506 0 QCURVE",
"518 72 LINE",
"147 72 LINE",
"194 338 LINE",
"527 338 LINE",
"539 405 LINE",
"206 405 LINE",
"251 658 LINE",
"608 658 LINE",
"620 727 LINE",
"186 727 LINE",
"167 615 OFFCURVE",
"127 393 QCURVE SMOOTH",
"73 87 LINE",
"62 23 LINE",
"61 19 OFFCURVE",
"61 16 QCURVE SMOOTH",
"61 9 OFFCURVE",
"64 6 QCURVE",
"68 0 OFFCURVE",
"79 0 QCURVE SMOOTH"
);
}
);
userData = {
assembly = "NPUSHB[ ]\011/* 24 values pushed */
19 46 17 106 46 8 114 13 16 106 13 13 9 35 37 25 106 37 9 12 106 9 2 114 
SVTCA[0]\011/* SetFreedomAndProjectionVectorToAxis */
CALL[ ]\011/* CallFunction */
CALL[ ]\011/* CallFunction */
MDAP[1]\011/* MoveDirectAbsPt */
CALL[ ]\011/* CallFunction */
SHP[1]\011/* ShiftPointByLastPoint */
SRP2[ ]\011/* SetRefPoint2 */
IP[ ]\011/* InterpolatePts */
MDAP[1]\011/* MoveDirectAbsPt */
CALL[ ]\011/* CallFunction */
CALL[ ]\011/* CallFunction */
CALL[ ]\011/* CallFunction */
SHP[1]\011/* ShiftPointByLastPoint */
IUP[0]\011/* InterpolateUntPts */
IUP[1]\011/* InterpolateUntPts */";
};
width = 596;
}
);
note = uni0118;
rightKerningGroup = AE;
unicode = 0118;
},
{
glyphname = F;
layers = (
{
layerId = "DEC32D14-9EEB-4E31-A016-AD32FECB2E7D";
paths = (
{
closed = 1;
nodes = (
"134 0 LINE",
"194 338 LINE",
"527 338 LINE",
"539 405 LINE",
"206 405 LINE",
"251 658 LINE",
"609 658 LINE",
"621 727 LINE",
"186 727 LINE",
"68 57 LINE",
"67 53 OFFCURVE",
"62 26 OFFCURVE",
"62 18 QCURVE SMOOTH",
"62 9 OFFCURVE",
"72 0 OFFCURVE",
"86 0 QCURVE SMOOTH"
);
}
);
userData = {
assembly = "NPUSHB[ ]\011/* 17 values pushed */
2 15 13 10 106 13 13 15 6 9 106 6 2 114 15 8 114 
SVTCA[0]\011/* SetFreedomAndProjectionVectorToAxis */
CALL[ ]\011/* CallFunction */
CALL[ ]\011/* CallFunction */
CALL[ ]\011/* CallFunction */
SRP2[ ]\011/* SetRefPoint2 */
IP[ ]\011/* InterpolatePts */
MDAP[1]\011/* MoveDirectAbsPt */
CALL[ ]\011/* CallFunction */
SRP1[ ]\011/* SetRefPoint1 */
SHP[1]\011/* ShiftPointByLastPoint */
IUP[0]\011/* InterpolateUntPts */
IUP[1]\011/* InterpolateUntPts */";
};
width = 565;
}
);
note = uni0046;
rightKerningGroup = F;
unicode = 0046;
},
{
glyphname = G;
layers = (
{
layerId = "DEC32D14-9EEB-4E31-A016-AD32FECB2E7D";
paths = (
{
closed = 1;
nodes = (
"568 0 LINE",
"622 302 LINE",
"623 306 OFFCURVE",
"628 333 OFFCURVE",
"628 341 QCURVE SMOOTH",
"628 359 OFFCURVE",
"603 359 QCURVE SMOOTH",
"557 359 LINE",
"530 204 LINE SMOOTH",
"525 179 OFFCURVE",
"515 155 OFFCURVE",
"502 142 QCURVE",
"502 139 OFFCURVE",
"450 96 OFFCURVE",
"375 60 OFFCURVE",
"335 60 QCURVE SMOOTH",
"248 60 OFFCURVE",
"156 142 OFFCURVE",
"156 234 QCURVE SMOOTH",
"156 362 OFFCURVE",
"229 561 OFFCURVE",
"367 673 OFFCURVE",
"461 673 QCURVE SMOOTH",
"506 673 OFFCURVE",
"565 655 OFFCURVE",
"595 636 QCURVE",
"596 635 OFFCURVE",
"608 627 OFFCURVE",
"614 627 QCURVE SMOOTH",
"623 627 OFFCURVE",
"629 638 QCURVE SMOOTH",
"664 705 LINE",
"625 720 OFFCURVE",
"522 742 OFFCURVE",
"469 742 QCURVE SMOOTH",
"331 742 OFFCURVE",
"151 589 OFFCURVE",
"70 352 OFFCURVE",
"70 222 QCURVE SMOOTH",
"70 141 OFFCURVE",
"124 36 OFFCURVE",
"215 -12 OFFCURVE",
"274 -12 QCURVE SMOOTH",
"330 -12 OFFCURVE",
"409 8 OFFCURVE",
"452 34 OFFCURVE",
"473 51 QCURVE",
"481 57 OFFCURVE",
"495 67 OFFCURVE",
"500 67 QCURVE SMOOTH",
"507 67 OFFCURVE",
"507 58 QCURVE SMOOTH",
"507 53 OFFCURVE",
"505 40 QCURVE",
"502 27 OFFCURVE",
"502 20 QCURVE SMOOTH",
"502 0 OFFCURVE",
"521 0 QCURVE SMOOTH"
);
}
);
userData = {
assembly = "NPUSHB[ ]\011/* 18 values pushed */
57 8 114 51 51 15 23 35 106 23 3 114 15 42 106 15 9 114 
SVTCA[0]\011/* SetFreedomAndProjectionVectorToAxis */
CALL[ ]\011/* CallFunction */
CALL[ ]\011/* CallFunction */
CALL[ ]\011/* CallFunction */
CALL[ ]\011/* CallFunction */
SRP2[ ]\011/* SetRefPoint2 */
IP[ ]\011/* InterpolatePts */
MDAP[1]\011/* MoveDirectAbsPt */
CALL[ ]\011/* CallFunction */
IUP[0]\011/* InterpolateUntPts */
IUP[1]\011/* InterpolateUntPts */";
};
width = 675;
}
);
leftKerningGroup = G;
note = uni0047;
rightKerningGroup = G;
unicode = 0047;
},
{
glyphname = H;
layers = (
{
layerId = "DEC32D14-9EEB-4E31-A016-AD32FECB2E7D";
paths = (
{
closed = 1;
nodes = (
"609 0 LINE",
"729 670 LINE",
"730 674 OFFCURVE",
"735 701 OFFCURVE",
"735 709 QCURVE SMOOTH",
"735 718 OFFCURVE",
"725 727 OFFCURVE",
"711 727 QCURVE SMOOTH",
"662 727 LINE",
"605 406 LINE",
"207 406 LINE",
"253 670 LINE",
"254 674 OFFCURVE",
"259 701 OFFCURVE",
"259 709 QCURVE SMOOTH",
"259 718 OFFCURVE",
"249 727 OFFCURVE",
"235 727 QCURVE SMOOTH",
"186 727 LINE",
"68 57 LINE",
"67 53 OFFCURVE",
"62 26 OFFCURVE",
"62 18 QCURVE SMOOTH",
"62 9 OFFCURVE",
"72 0 OFFCURVE",
"86 0 QCURVE SMOOTH",
"135 0 LINE",
"195 335 LINE",
"593 335 LINE",
"542 57 LINE",
"541 53 OFFCURVE",
"536 26 OFFCURVE",
"536 18 QCURVE SMOOTH",
"536 9 OFFCURVE",
"546 0 OFFCURVE",
"560 0 QCURVE SMOOTH"
);
}
);
userData = {
assembly = "NPUSHB[ ]\011/* 20 values pushed */
35 3 13 10 21 31 28 17 8 25 106 8 8 10 17 2 114 10 8 114 
SVTCA[0]\011/* SetFreedomAndProjectionVectorToAxis */
CALL[ ]\011/* CallFunction */
CALL[ ]\011/* CallFunction */
SRP1[ ]\011/* SetRefPoint1 */
IP[ ]\011/* InterpolatePts */
MDAP[1]\011/* MoveDirectAbsPt */
CALL[ ]\011/* CallFunction */
SRP1[ ]\011/* SetRefPoint1 */
SHP[1]\011/* ShiftPointByLastPoint */
SHP[1]\011/* ShiftPointByLastPoint */
SHP[1]\011/* ShiftPointByLastPoint */
SRP1[ ]\011/* SetRefPoint1 */
SHP[1]\011/* ShiftPointByLastPoint */
SHP[1]\011/* ShiftPointByLastPoint */
SHP[1]\011/* ShiftPointByLastPoint */
IUP[0]\011/* InterpolateUntPts */
IUP[1]\011/* InterpolateUntPts */";
};
width = 733;
}
);
note = uni0048;
unicode = 0048;
},
{
glyphname = I;
layers = (
{
layerId = "DEC32D14-9EEB-4E31-A016-AD32FECB2E7D";
paths = (
{
closed = 1;
nodes = (
"186 727 LINE",
"68 57 LINE",
"67 53 OFFCURVE",
"62 26 OFFCURVE",
"62 18 QCURVE SMOOTH",
"62 9 OFFCURVE",
"72 0 OFFCURVE",
"86 0 QCURVE SMOOTH",
"135 0 LINE",
"254 670 LINE",
"255 674 OFFCURVE",
"260 701 OFFCURVE",
"260 709 QCURVE SMOOTH",
"260 718 OFFCURVE",
"250 727 OFFCURVE",
"236 727 QCURVE SMOOTH"
);
}
);
userData = {
assembly = "NPUSHB[ ]\011/* 9 values pushed */
11 8 3 15 2 114 8 8 114 
SVTCA[0]\011/* SetFreedomAndProjectionVectorToAxis */
CALL[ ]\011/* CallFunction */
CALL[ ]\011/* CallFunction */
SHP[0]\011/* ShiftPointByLastPoint */
SRP1[ ]\011/* SetRefPoint1 */
SHP[1]\011/* ShiftPointByLastPoint */
IUP[0]\011/* InterpolateUntPts */
IUP[1]\011/* InterpolateUntPts */";
};
width = 258;
}
);
leftKerningGroup = I;
note = uni0049;
unicode = 0049;
},
{
glyphname = Iogonek;
layers = (
{
layerId = "DEC32D14-9EEB-4E31-A016-AD32FECB2E7D";
paths = (
{
closed = 1;
nodes = (
"35 -24 OFFCURVE",
"-28 -96 OFFCURVE",
"-28 -133 QCURVE SMOOTH",
"-28 -164 OFFCURVE",
"17 -187 OFFCURVE",
"46 -187 QCURVE SMOOTH",
"77 -187 OFFCURVE",
"115 -178 QCURVE",
"120 -147 LINE",
"120 -140 OFFCURVE",
"111 -132 OFFCURVE",
"104 -132 QCURVE SMOOTH",
"95 -132 OFFCURVE",
"81 -136 QCURVE",
"78 -136 OFFCURVE",
"72 -138 QCURVE",
"66 -139 OFFCURVE",
"61 -139 QCURVE SMOOTH",
"29 -139 OFFCURVE",
"29 -115 QCURVE SMOOTH",
"29 -96 OFFCURVE",
"64 -51 OFFCURVE",
"114 -12 OFFCURVE",
"135 0 QCURVE",
"254 670 LINE",
"255 674 OFFCURVE",
"260 701 OFFCURVE",
"260 709 QCURVE SMOOTH",
"260 718 OFFCURVE",
"250 727 OFFCURVE",
"236 727 QCURVE SMOOTH",
"186 727 LINE",
"68 57 LINE",
"67 53 OFFCURVE",
"62 26 OFFCURVE",
"62 18 QCURVE SMOOTH",
"62 10 OFFCURVE",
"70 0 OFFCURVE",
"77 0 QCURVE"
);
}
);
userData = {
assembly = "NPUSHB[ ]\011/* 12 values pushed */
30 32 20 106 32 38 14 8 10 6 2 114 
SVTCA[0]\011/* SetFreedomAndProjectionVectorToAxis */
CALL[ ]\011/* CallFunction */
SHP[0]\011/* ShiftPointByLastPoint */
MIAP[1]\011/* MoveIndirectAbsPt */
SHP[1]\011/* ShiftPointByLastPoint */
MDAP[1]\011/* MoveDirectAbsPt */
CALL[ ]\011/* CallFunction */
SHP[1]\011/* ShiftPointByLastPoint */
IUP[0]\011/* InterpolateUntPts */
IUP[1]\011/* InterpolateUntPts */";
};
width = 258;
}
);
leftKerningGroup = I;
note = uni012E;
unicode = 012E;
},
{
glyphname = J;
layers = (
{
layerId = "DEC32D14-9EEB-4E31-A016-AD32FECB2E7D";
paths = (
{
closed = 1;
nodes = (
"463 670 LINE",
"464 674 OFFCURVE",
"469 701 OFFCURVE",
"469 709 QCURVE SMOOTH",
"469 718 OFFCURVE",
"459 727 OFFCURVE",
"445 727 QCURVE SMOOTH",
"396 727 LINE",
"311 212 LINE SMOOTH",
"301 149 OFFCURVE",
"258 81 OFFCURVE",
"202 58 OFFCURVE",
"163 58 QCURVE SMOOTH",
"125 58 OFFCURVE",
"52 77 OFFCURVE",
"25 90 QCURVE",
"0 26 LINE",
"34 10 OFFCURVE",
"118 -12 OFFCURVE",
"157 -12 QCURVE SMOOTH",
"219 -12 OFFCURVE",
"310 25 OFFCURVE",
"375 127 OFFCURVE",
"390 220 QCURVE SMOOTH"
);
}
);
userData = {
assembly = "NPUSHB[ ]\011/* 11 values pushed */
19 15 3 10 106 15 2 114 3 9 114 
SVTCA[0]\011/* SetFreedomAndProjectionVectorToAxis */
CALL[ ]\011/* CallFunction */
CALL[ ]\011/* CallFunction */
CALL[ ]\011/* CallFunction */
SRP1[ ]\011/* SetRefPoint1 */
SHP[1]\011/* ShiftPointByLastPoint */
IUP[0]\011/* InterpolateUntPts */
IUP[1]\011/* InterpolateUntPts */";
};
width = 467;
}
);
leftKerningGroup = J;
note = uni004A;
rightKerningGroup = J;
unicode = 004A;
},
{
glyphname = K;
layers = (
{
layerId = "DEC32D14-9EEB-4E31-A016-AD32FECB2E7D";
paths = (
{
closed = 1;
nodes = (
"135 0 LINE",
"196 343 LINE",
"304 343 LINE",
"500 20 LINE",
"508 8 OFFCURVE",
"520 0 OFFCURVE",
"531 0 QCURVE SMOOTH",
"613 0 LINE",
"378 385 LINE",
"690 727 LINE",
"618 727 LINE SMOOTH",
"607 727 OFFCURVE",
"591 719 OFFCURVE",
"580 707 QCURVE SMOOTH",
"313 413 LINE",
"208 413 LINE",
"254 670 LINE",
"255 674 OFFCURVE",
"260 701 OFFCURVE",
"260 709 QCURVE SMOOTH",
"260 718 OFFCURVE",
"250 727 OFFCURVE",
"236 727 QCURVE SMOOTH",
"186 727 LINE",
"68 57 LINE",
"67 53 OFFCURVE",
"62 26 OFFCURVE",
"62 18 QCURVE SMOOTH",
"62 9 OFFCURVE",
"72 0 OFFCURVE",
"86 0 QCURVE SMOOTH"
);
}
);
userData = {
assembly = "NPUSHB[ ]\011/* 19 values pushed */
21 28 14 106 28 28 6 26 23 2 30 8 114 20 16 10 6 2 114 
SVTCA[0]\011/* SetFreedomAndProjectionVectorToAxis */
CALL[ ]\011/* CallFunction */
SHP[0]\011/* ShiftPointByLastPoint */
SHP[0]\011/* ShiftPointByLastPoint */
SHP[0]\011/* ShiftPointByLastPoint */
CALL[ ]\011/* CallFunction */
SHP[0]\011/* ShiftPointByLastPoint */
SHP[0]\011/* ShiftPointByLastPoint */
SHP[0]\011/* ShiftPointByLastPoint */
SRP2[ ]\011/* SetRefPoint2 */
IP[ ]\011/* InterpolatePts */
MDAP[1]\011/* MoveDirectAbsPt */
CALL[ ]\011/* CallFunction */
IP[ ]\011/* InterpolatePts */
IUP[0]\011/* InterpolateUntPts */
IUP[1]\011/* InterpolateUntPts */";
};
width = 646;
}
);
note = uni004B;
rightKerningGroup = K;
unicode = 004B;
},
{
glyphname = L;
layers = (
{
layerId = "DEC32D14-9EEB-4E31-A016-AD32FECB2E7D";
paths = (
{
closed = 1;
nodes = (
"186 727 LINE",
"68 57 LINE",
"67 53 OFFCURVE",
"62 26 OFFCURVE",
"62 18 QCURVE SMOOTH",
"62 9 OFFCURVE",
"72 0 OFFCURVE",
"86 0 QCURVE SMOOTH",
"472 0 LINE",
"486 75 LINE",
"148 75 LINE",
"254 670 LINE",
"255 674 OFFCURVE",
"260 701 OFFCURVE",
"260 709 QCURVE SMOOTH",
"260 718 OFFCURVE",
"250 727 OFFCURVE",
"236 727 QCURVE SMOOTH"
);
}
);
userData = {
assembly = "NPUSHB[ ]\011/* 13 values pushed */
13 10 3 17 10 7 106 17 2 114 10 8 114 
SVTCA[0]\011/* SetFreedomAndProjectionVectorToAxis */
CALL[ ]\011/* CallFunction */
CALL[ ]\011/* CallFunction */
CALL[ ]\011/* CallFunction */
SRP1[ ]\011/* SetRefPoint1 */
SHP[1]\011/* ShiftPointByLastPoint */
SRP1[ ]\011/* SetRefPoint1 */
SHP[1]\011/* ShiftPointByLastPoint */
IUP[0]\011/* InterpolateUntPts */
IUP[1]\011/* InterpolateUntPts */";
};
width = 524;
}
);
note = uni004C;
rightKerningGroup = L;
unicode = 004C;
},
{
glyphname = Lslash;
layers = (
{
layerId = "DEC32D14-9EEB-4E31-A016-AD32FECB2E7D";
paths = (
{
closed = 1;
nodes = (
"28 244 LINE",
"110 292 LINE",
"69 57 LINE",
"68 53 OFFCURVE",
"63 26 OFFCURVE",
"63 18 QCURVE SMOOTH",
"63 9 OFFCURVE",
"73 0 OFFCURVE",
"87 0 QCURVE SMOOTH",
"473 0 LINE",
"487 75 LINE",
"149 75 LINE",
"194 329 LINE",
"316 397 LINE SMOOTH",
"331 405 OFFCURVE",
"340 422 OFFCURVE",
"343 437 QCURVE SMOOTH",
"353 488 LINE",
"207 402 LINE",
"255 670 LINE",
"256 674 OFFCURVE",
"261 701 OFFCURVE",
"261 709 QCURVE SMOOTH",
"261 718 OFFCURVE",
"251 727 OFFCURVE",
"237 727 QCURVE SMOOTH",
"187 727 LINE",
"123 363 LINE",
"40 317 LINE"
);
}
);
userData = {
assembly = "NPUSHB[ ]\011/* 13 values pushed */
16 2 23 20 17 106 20 8 114 6 2 2 114 
SVTCA[0]\011/* SetFreedomAndProjectionVectorToAxis */
CALL[ ]\011/* CallFunction */
SHP[0]\011/* ShiftPointByLastPoint */
CALL[ ]\011/* CallFunction */
CALL[ ]\011/* CallFunction */
SHP[1]\011/* ShiftPointByLastPoint */
SRP2[ ]\011/* SetRefPoint2 */
IP[ ]\011/* InterpolatePts */
IUP[0]\011/* InterpolateUntPts */
IUP[1]\011/* InterpolateUntPts */";
};
width = 525;
}
);
note = uni0141;
rightKerningGroup = L;
unicode = 0141;
},
{
glyphname = M;
layers = (
{
layerId = "DEC32D14-9EEB-4E31-A016-AD32FECB2E7D";
paths = (
{
closed = 1;
nodes = (
"836 0 LINE",
"878 687 LINE",
"879 710 LINE",
"879 720 OFFCURVE",
"872 727 OFFCURVE",
"862 727 QCURVE SMOOTH",
"755 727 LINE",
"444 70 LINE",
"368 706 LINE",
"366 718 OFFCURVE",
"358 727 OFFCURVE",
"347 727 QCURVE SMOOTH",
"241 727 LINE",
"27 0 LINE",
"82 0 LINE SMOOTH",
"93 0 OFFCURVE",
"104 10 OFFCURVE",
"108 23 QCURVE SMOOTH",
"296 657 LINE",
"379 21 LINE",
"381 9 OFFCURVE",
"389 0 OFFCURVE",
"400 0 QCURVE SMOOTH",
"481 0 LINE",
"799 657 LINE",
"766 39 LINE",
"765 16 LINE",
"765 7 OFFCURVE",
"772 0 OFFCURVE",
"781 0 QCURVE SMOOTH"
);
}
);
userData = {
assembly = "NPUSHB[ ]\011/* 15 values pushed */
4 10 10 23 16 2 114 21 6 6 29 2 15 8 114 
SVTCA[0]\011/* SetFreedomAndProjectionVectorToAxis */
CALL[ ]\011/* CallFunction */
SHP[0]\011/* ShiftPointByLastPoint */
SHP[0]\011/* ShiftPointByLastPoint */
SHP[0]\011/* ShiftPointByLastPoint */
SRP1[ ]\011/* SetRefPoint1 */
SHP[1]\011/* ShiftPointByLastPoint */
CALL[ ]\011/* CallFunction */
SHP[0]\011/* ShiftPointByLastPoint */
SHP[0]\011/* ShiftPointByLastPoint */
SRP1[ ]\011/* SetRefPoint1 */
SHP[1]\011/* ShiftPointByLastPoint */
IUP[0]\011/* InterpolateUntPts */
IUP[1]\011/* InterpolateUntPts */";
};
width = 926;
}
);
leftKerningGroup = M;
note = uni004D;
rightKerningGroup = M;
unicode = 004D;
},
{
glyphname = N;
layers = (
{
layerId = "DEC32D14-9EEB-4E31-A016-AD32FECB2E7D";
paths = (
{
closed = 1;
nodes = (
"185 727 LINE",
"68 57 LINE",
"67 53 OFFCURVE",
"62 26 OFFCURVE",
"62 18 QCURVE SMOOTH",
"62 9 OFFCURVE",
"72 0 OFFCURVE",
"86 0 QCURVE SMOOTH",
"131 0 LINE",
"247 657 LINE",
"497 28 LINE SMOOTH",
"504 12 OFFCURVE",
"517 0 OFFCURVE",
"534 0 QCURVE SMOOTH",
"628 0 LINE",
"747 670 LINE",
"748 674 OFFCURVE",
"753 701 OFFCURVE",
"753 709 QCURVE SMOOTH",
"753 718 OFFCURVE",
"743 727 OFFCURVE",
"729 727 QCURVE SMOOTH",
"684 727 LINE",
"568 70 LINE",
"323 699 LINE",
"316 715 OFFCURVE",
"303 727 OFFCURVE",
"286 727 QCURVE SMOOTH"
);
}
);
userData = {
assembly = "NPUSHB[ ]\011/* 12 values pushed */
17 5 26 2 114 3 13 13 22 19 8 114 
SVTCA[0]\011/* SetFreedomAndProjectionVectorToAxis */
CALL[ ]\011/* CallFunction */
SHP[0]\011/* ShiftPointByLastPoint */
SHP[0]\011/* ShiftPointByLastPoint */
SRP1[ ]\011/* SetRefPoint1 */
SHP[1]\011/* ShiftPointByLastPoint */
CALL[ ]\011/* CallFunction */
SHP[0]\011/* ShiftPointByLastPoint */
SHP[0]\011/* ShiftPointByLastPoint */
IUP[0]\011/* InterpolateUntPts */
IUP[1]\011/* InterpolateUntPts */";
};
width = 751;
}
);
note = uni004E;
unicode = 004E;
},
{
glyphname = O;
layers = (
{
layerId = "DEC32D14-9EEB-4E31-A016-AD32FECB2E7D";
paths = (
{
closed = 1;
nodes = (
"459 -16 OFFCURVE",
"631 135 OFFCURVE",
"707 368 OFFCURVE",
"707 495 QCURVE SMOOTH",
"707 620 OFFCURVE",
"584 740 OFFCURVE",
"456 740 QCURVE SMOOTH",
"321 740 OFFCURVE",
"148 590 OFFCURVE",
"70 359 OFFCURVE",
"70 233 QCURVE SMOOTH",
"70 107 OFFCURVE",
"195 -16 OFFCURVE",
"323 -16 QCURVE SMOOTH"
);
},
{
closed = 1;
nodes = (
"243 55 OFFCURVE",
"155 142 OFFCURVE",
"155 241 QCURVE SMOOTH",
"155 368 OFFCURVE",
"223 563 OFFCURVE",
"352 672 OFFCURVE",
"443 672 QCURVE SMOOTH",
"506 672 OFFCURVE",
"586 635 OFFCURVE",
"625 555 OFFCURVE",
"625 489 QCURVE SMOOTH",
"625 360 OFFCURVE",
"559 165 OFFCURVE",
"429 55 OFFCURVE",
"334 55 QCURVE SMOOTH"
);
}
);
userData = {
assembly = "NPUSHB[ ]\011/* 12 values pushed */
13 28 106 6 21 106 6 3 114 13 9 114 
SVTCA[0]\011/* SetFreedomAndProjectionVectorToAxis */
CALL[ ]\011/* CallFunction */
CALL[ ]\011/* CallFunction */
CALL[ ]\011/* CallFunction */
CALL[ ]\011/* CallFunction */
IUP[0]\011/* InterpolateUntPts */
IUP[1]\011/* InterpolateUntPts */";
};
width = 715;
}
);
leftKerningGroup = O;
note = uni004F;
rightKerningGroup = O;
unicode = 004F;
},
{
glyphname = Ohorn;
layers = (
{
layerId = "DEC32D14-9EEB-4E31-A016-AD32FECB2E7D";
paths = (
{
closed = 1;
nodes = (
"459 -16 OFFCURVE",
"631 135 OFFCURVE",
"707 368 OFFCURVE",
"707 495 QCURVE SMOOTH",
"707 572 OFFCURVE",
"683 624 QCURVE",
"690 623 OFFCURVE",
"702 623 QCURVE SMOOTH",
"743 623 OFFCURVE",
"803 666 OFFCURVE",
"834 734 OFFCURVE",
"834 773 QCURVE SMOOTH",
"834 790 OFFCURVE",
"821 808 OFFCURVE",
"806 808 QCURVE SMOOTH",
"799 808 OFFCURVE",
"785 805 QCURVE SMOOTH",
"750 798 LINE",
"753 778 OFFCURVE",
"753 755 QCURVE SMOOTH",
"753 718 OFFCURVE",
"725 672 OFFCURVE",
"695 672 QCURVE SMOOTH",
"676 672 OFFCURVE",
"645 680 OFFCURVE",
"632 691 QCURVE",
"600 716 OFFCURVE",
"514 740 OFFCURVE",
"456 740 QCURVE SMOOTH",
"321 740 OFFCURVE",
"148 590 OFFCURVE",
"70 359 OFFCURVE",
"70 233 QCURVE SMOOTH",
"70 107 OFFCURVE",
"195 -16 OFFCURVE",
"323 -16 QCURVE SMOOTH"
);
},
{
closed = 1;
nodes = (
"243 55 OFFCURVE",
"155 142 OFFCURVE",
"155 241 QCURVE SMOOTH",
"155 368 OFFCURVE",
"223 563 OFFCURVE",
"352 672 OFFCURVE",
"443 672 QCURVE SMOOTH",
"506 672 OFFCURVE",
"586 635 OFFCURVE",
"625 555 OFFCURVE",
"625 489 QCURVE SMOOTH",
"625 360 OFFCURVE",
"559 165 OFFCURVE",
"429 55 OFFCURVE",
"334 55 QCURVE SMOOTH"
);
}
);
userData = {
assembly = "NPUSHB[ ]\011/* 16 values pushed */
27 12 6 35 50 106 35 9 114 6 43 106 20 6 3 114 
SVTCA[0]\011/* SetFreedomAndProjectionVectorToAxis */
CALL[ ]\011/* CallFunction */
MDRP[01100]\011/* MoveDirectRelPt */
CALL[ ]\011/* CallFunction */
CALL[ ]\011/* CallFunction */
CALL[ ]\011/* CallFunction */
SRP2[ ]\011/* SetRefPoint2 */
IP[ ]\011/* InterpolatePts */
IP[ ]\011/* InterpolatePts */
IUP[0]\011/* InterpolateUntPts */
IUP[1]\011/* InterpolateUntPts */";
};
width = 719;
}
);
leftKerningGroup = O;
note = uni01A0;
unicode = 01A0;
},
{
glyphname = Oslash;
layers = (
{
layerId = "DEC32D14-9EEB-4E31-A016-AD32FECB2E7D";
paths = (
{
closed = 1;
nodes = (
"459 -16 OFFCURVE",
"631 135 OFFCURVE",
"707 368 OFFCURVE",
"707 495 QCURVE SMOOTH",
"707 620 OFFCURVE",
"584 740 OFFCURVE",
"456 740 QCURVE SMOOTH",
"321 740 OFFCURVE",
"148 590 OFFCURVE",
"70 359 OFFCURVE",
"70 233 QCURVE SMOOTH",
"70 107 OFFCURVE",
"195 -16 OFFCURVE",
"323 -16 QCURVE SMOOTH"
);
},
{
closed = 1;
nodes = (
"155 368 OFFCURVE",
"223 563 OFFCURVE",
"352 672 OFFCURVE",
"443 672 QCURVE SMOOTH",
"495 672 OFFCURVE",
"568 646 OFFCURVE",
"589 619 QCURVE",
"170 144 LINE",
"155 183 OFFCURVE",
"155 241 QCURVE SMOOTH"
);
},
{
closed = 1;
nodes = (
"286 55 OFFCURVE",
"217 78 OFFCURVE",
"195 103 QCURVE",
"613 574 LINE",
"625 540 OFFCURVE",
"625 489 QCURVE SMOOTH",
"625 360 OFFCURVE",
"559 165 OFFCURVE",
"429 55 OFFCURVE",
"334 55 QCURVE SMOOTH"
);
}
);
userData = {
assembly = "NPUSHB[ ]\011/* 15 values pushed */
29 15 19 13 33 106 13 9 114 6 19 106 6 3 114 
SVTCA[0]\011/* SetFreedomAndProjectionVectorToAxis */
CALL[ ]\011/* CallFunction */
CALL[ ]\011/* CallFunction */
CALL[ ]\011/* CallFunction */
CALL[ ]\011/* CallFunction */
SRP1[ ]\011/* SetRefPoint1 */
IP[ ]\011/* InterpolatePts */
IP[ ]\011/* InterpolatePts */
IUP[0]\011/* InterpolateUntPts */
IUP[1]\011/* InterpolateUntPts */";
};
width = 715;
}
);
leftKerningGroup = O;
note = uni00D8;
rightKerningGroup = O;
unicode = 00D8;
},
{
glyphname = OE;
layers = (
{
layerId = "DEC32D14-9EEB-4E31-A016-AD32FECB2E7D";
paths = (
{
closed = 1;
nodes = (
"837 0 LINE",
"850 72 LINE",
"519 72 LINE",
"566 338 LINE",
"859 338 LINE",
"871 405 LINE",
"578 405 LINE",
"623 658 LINE",
"940 658 LINE",
"952 727 LINE",
"598 727 LINE SMOOTH",
"579 727 OFFCURVE",
"557 729 QCURVE",
"534 730 OFFCURVE",
"524 730 QCURVE",
"488 732 OFFCURVE",
"474 732 QCURVE SMOOTH",
"342 732 OFFCURVE",
"162 601 OFFCURVE",
"73 378 OFFCURVE",
"73 239 QCURVE SMOOTH",
"73 116 OFFCURVE",
"202 -5 OFFCURVE",
"344 -5 QCURVE SMOOTH",
"358 -5 OFFCURVE",
"394 -3 QCURVE",
"404 -3 OFFCURVE",
"427 -2 QCURVE",
"450 0 OFFCURVE",
"469 0 QCURVE SMOOTH"
);
},
{
closed = 1;
nodes = (
"442 70 LINE",
"405 67 OFFCURVE",
"356 67 QCURVE SMOOTH",
"286 67 OFFCURVE",
"199 105 OFFCURVE",
"157 184 OFFCURVE",
"157 248 QCURVE SMOOTH",
"157 365 OFFCURVE",
"224 551 OFFCURVE",
"360 660 OFFCURVE",
"461 660 QCURVE SMOOTH",
"494 660 OFFCURVE",
"545 657 QCURVE"
);
}
);
userData = {
assembly = "NPUSHB[ ]\011/* 30 values pushed */
29 26 106 29 8 114 18 21 106 18 2 114 25 22 106 25 25 5 12 31 106 12 2 114 5 39 106 5 8 114 
SVTCA[0]\011/* SetFreedomAndProjectionVectorToAxis */
CALL[ ]\011/* CallFunction */
CALL[ ]\011/* CallFunction */
CALL[ ]\011/* CallFunction */
CALL[ ]\011/* CallFunction */
SRP2[ ]\011/* SetRefPoint2 */
IP[ ]\011/* InterpolatePts */
MDAP[1]\011/* MoveDirectAbsPt */
CALL[ ]\011/* CallFunction */
CALL[ ]\011/* CallFunction */
CALL[ ]\011/* CallFunction */
CALL[ ]\011/* CallFunction */
CALL[ ]\011/* CallFunction */
IUP[0]\011/* InterpolateUntPts */
IUP[1]\011/* InterpolateUntPts */";
};
width = 927;
}
);
leftKerningGroup = O;
note = uni0152;
rightKerningGroup = AE;
unicode = 0152;
},
{
glyphname = P;
layers = (
{
layerId = "DEC32D14-9EEB-4E31-A016-AD32FECB2E7D";
paths = (
{
closed = 1;
nodes = (
"68 57 LINE",
"67 53 OFFCURVE",
"62 26 OFFCURVE",
"62 18 QCURVE SMOOTH",
"62 9 OFFCURVE",
"72 0 OFFCURVE",
"86 0 QCURVE SMOOTH",
"135 0 LINE",
"184 276 LINE",
"261 272 OFFCURVE",
"309 272 QCURVE SMOOTH",
"429 272 OFFCURVE",
"574 339 OFFCURVE",
"639 470 OFFCURVE",
"639 570 QCURVE SMOOTH",
"639 627 OFFCURVE",
"589 699 OFFCURVE",
"486 734 OFFCURVE",
"405 734 QCURVE SMOOTH",
"297 734 OFFCURVE",
"187 731 QCURVE"
);
},
{
closed = 1;
nodes = (
"253 669 LINE",
"255 669 OFFCURVE",
"289 671 QCURVE SMOOTH",
"322 672 OFFCURVE",
"392 672 QCURVE SMOOTH",
"453 672 OFFCURVE",
"525 648 OFFCURVE",
"557 596 OFFCURVE",
"557 552 QCURVE SMOOTH",
"557 335 OFFCURVE",
"341 335 QCURVE SMOOTH",
"273 335 OFFCURVE",
"195 340 QCURVE"
);
}
);
userData = {
assembly = "NPUSHB[ ]\011/* 19 values pushed */
16 13 20 1 9 22 106 9 9 13 1 28 106 1 3 114 13 8 114 
SVTCA[0]\011/* SetFreedomAndProjectionVectorToAxis */
CALL[ ]\011/* CallFunction */
CALL[ ]\011/* CallFunction */
CALL[ ]\011/* CallFunction */
SRP2[ ]\011/* SetRefPoint2 */
IP[ ]\011/* InterpolatePts */
MDAP[1]\011/* MoveDirectAbsPt */
CALL[ ]\011/* CallFunction */
SRP1[ ]\011/* SetRefPoint1 */
SHP[1]\011/* ShiftPointByLastPoint */
SRP1[ ]\011/* SetRefPoint1 */
SHP[1]\011/* ShiftPointByLastPoint */
IUP[0]\011/* InterpolateUntPts */
IUP[1]\011/* InterpolateUntPts */";
};
width = 621;
}
);
note = uni0050;
rightKerningGroup = P;
unicode = 0050;
},
{
glyphname = Thorn;
layers = (
{
layerId = "DEC32D14-9EEB-4E31-A016-AD32FECB2E7D";
paths = (
{
closed = 1;
nodes = (
"254 670 LINE",
"255 674 OFFCURVE",
"260 701 OFFCURVE",
"260 709 QCURVE SMOOTH",
"260 718 OFFCURVE",
"250 727 OFFCURVE",
"236 727 QCURVE SMOOTH",
"186 727 LINE",
"68 57 LINE",
"67 53 OFFCURVE",
"62 26 OFFCURVE",
"62 18 QCURVE SMOOTH",
"62 9 OFFCURVE",
"72 0 OFFCURVE",
"86 0 QCURVE SMOOTH",
"135 0 LINE",
"161 145 LINE",
"239 141 OFFCURVE",
"286 141 QCURVE SMOOTH",
"406 141 OFFCURVE",
"551 208 OFFCURVE",
"616 339 OFFCURVE",
"616 439 QCURVE SMOOTH",
"616 496 OFFCURVE",
"566 568 OFFCURVE",
"463 603 OFFCURVE",
"382 603 QCURVE SMOOTH",
"307 603 OFFCURVE",
"241 600 QCURVE"
);
},
{
closed = 1;
nodes = (
"230 538 LINE",
"298 541 OFFCURVE",
"369 541 QCURVE SMOOTH",
"430 541 OFFCURVE",
"502 517 OFFCURVE",
"534 465 OFFCURVE",
"534 421 QCURVE SMOOTH",
"534 204 OFFCURVE",
"318 204 QCURVE SMOOTH",
"250 204 OFFCURVE",
"172 209 QCURVE"
);
}
);
userData = {
assembly = "NPUSHB[ ]\011/* 23 values pushed */
16 13 24 20 9 30 106 9 9 13 20 1 36 106 1 1 13 20 2 114 13 8 114 
SVTCA[0]\011/* SetFreedomAndProjectionVectorToAxis */
CALL[ ]\011/* CallFunction */
CALL[ ]\011/* CallFunction */
SRP1[ ]\011/* SetRefPoint1 */
IP[ ]\011/* InterpolatePts */
MDAP[1]\011/* MoveDirectAbsPt */
CALL[ ]\011/* CallFunction */
SRP1[ ]\011/* SetRefPoint1 */
SRP2[ ]\011/* SetRefPoint2 */
IP[ ]\011/* InterpolatePts */
MDAP[1]\011/* MoveDirectAbsPt */
CALL[ ]\011/* CallFunction */
SRP1[ ]\011/* SetRefPoint1 */
SHP[1]\011/* ShiftPointByLastPoint */
SRP1[ ]\011/* SetRefPoint1 */
SHP[1]\011/* ShiftPointByLastPoint */
IUP[0]\011/* InterpolateUntPts */
IUP[1]\011/* InterpolateUntPts */";
};
width = 620;
}
);
note = uni00DE;
rightKerningGroup = P;
unicode = 00DE;
},
{
glyphname = Q;
layers = (
{
layerId = "DEC32D14-9EEB-4E31-A016-AD32FECB2E7D";
paths = (
{
closed = 1;
nodes = (
"459 -16 OFFCURVE",
"631 135 OFFCURVE",
"707 368 OFFCURVE",
"707 495 QCURVE SMOOTH",
"707 620 OFFCURVE",
"584 740 OFFCURVE",
"456 740 QCURVE SMOOTH",
"321 740 OFFCURVE",
"148 590 OFFCURVE",
"70 359 OFFCURVE",
"70 233 QCURVE SMOOTH",
"70 107 OFFCURVE",
"195 -16 OFFCURVE",
"323 -16 QCURVE SMOOTH"
);
},
{
closed = 1;
nodes = (
"243 55 OFFCURVE",
"155 142 OFFCURVE",
"155 241 QCURVE SMOOTH",
"155 368 OFFCURVE",
"223 563 OFFCURVE",
"352 672 OFFCURVE",
"443 672 QCURVE SMOOTH",
"506 672 OFFCURVE",
"586 635 OFFCURVE",
"625 555 OFFCURVE",
"625 489 QCURVE SMOOTH",
"625 360 OFFCURVE",
"559 165 OFFCURVE",
"429 55 OFFCURVE",
"334 55 QCURVE SMOOTH"
);
},
{
closed = 1;
nodes = (
"631 -128 LINE",
"618 -138 OFFCURVE",
"578 -151 OFFCURVE",
"554 -151 QCURVE SMOOTH",
"539 -151 OFFCURVE",
"505 -138 OFFCURVE",
"486 -124 QCURVE SMOOTH",
"466 -110 OFFCURVE",
"463 -108 QCURVE",
"426 -79 OFFCURVE",
"364 -48 OFFCURVE",
"323 -48 QCURVE SMOOTH",
"290 -48 OFFCURVE",
"226 -65 OFFCURVE",
"202 -78 QCURVE",
"227 -138 LINE",
"243 -128 OFFCURVE",
"286 -113 OFFCURVE",
"309 -113 QCURVE SMOOTH",
"331 -113 OFFCURVE",
"370 -134 OFFCURVE",
"401 -157 QCURVE SMOOTH",
"427 -176 OFFCURVE",
"464 -199 OFFCURVE",
"512 -216 OFFCURVE",
"539 -216 QCURVE SMOOTH",
"571 -216 OFFCURVE",
"632 -199 OFFCURVE",
"654 -186 QCURVE"
);
}
);
userData = {
assembly = "NPUSHB[ ]\011/* 29 values pushed */
45 38 106 45 45 13 31 53 106 63 31 79 31 95 31 3 31 13 28 106 13 9 114 6 21 106 6 3 114 
SVTCA[0]\011/* SetFreedomAndProjectionVectorToAxis */
CALL[ ]\011/* CallFunction */
CALL[ ]\011/* CallFunction */
CALL[ ]\011/* CallFunction */
CALL[ ]\011/* CallFunction */
MDAP[1]\011/* MoveDirectAbsPt */
DELTAP1[ ]\011/* DeltaExceptionP1 */
CALL[ ]\011/* CallFunction */
SRP2[ ]\011/* SetRefPoint2 */
IP[ ]\011/* InterpolatePts */
MDAP[1]\011/* MoveDirectAbsPt */
CALL[ ]\011/* CallFunction */
IUP[0]\011/* InterpolateUntPts */
IUP[1]\011/* InterpolateUntPts */";
};
width = 715;
}
);
leftKerningGroup = Q;
note = uni0051;
rightKerningGroup = Q;
unicode = 0051;
},
{
glyphname = R;
layers = (
{
layerId = "DEC32D14-9EEB-4E31-A016-AD32FECB2E7D";
paths = (
{
closed = 1;
nodes = (
"463 30 OFFCURVE",
"463 18 QCURVE SMOOTH",
"463 9 OFFCURVE",
"473 0 OFFCURVE",
"487 0 QCURVE SMOOTH",
"536 0 LINE",
"543 54 OFFCURVE",
"553 112 QCURVE SMOOTH",
"560 154 OFFCURVE",
"569 226 OFFCURVE",
"569 243 QCURVE SMOOTH",
"569 269 OFFCURVE",
"552 307 OFFCURVE",
"531 323 QCURVE",
"519 331 OFFCURVE",
"514 337 OFFCURVE",
"514 342 QCURVE SMOOTH",
"514 347 OFFCURVE",
"524 356 OFFCURVE",
"531 359 QCURVE",
"567 379 OFFCURVE",
"615 456 OFFCURVE",
"637 546 OFFCURVE",
"637 589 QCURVE SMOOTH",
"637 644 OFFCURVE",
"592 707 OFFCURVE",
"492 734 OFFCURVE",
"404 734 QCURVE SMOOTH",
"287 734 OFFCURVE",
"187 731 QCURVE",
"68 57 LINE",
"67 53 OFFCURVE",
"62 26 OFFCURVE",
"62 18 QCURVE SMOOTH",
"62 9 OFFCURVE",
"72 0 OFFCURVE",
"86 0 QCURVE SMOOTH",
"135 0 LINE",
"188 302 LINE",
"380 302 LINE SMOOTH",
"422 302 OFFCURVE",
"470 286 OFFCURVE",
"492 250 OFFCURVE",
"492 219 QCURVE SMOOTH",
"492 207 OFFCURVE",
"482 139 OFFCURVE",
"476 103 QCURVE SMOOTH",
"470 69 OFFCURVE",
"468 57 QCURVE SMOOTH"
);
},
{
closed = 1;
nodes = (
"200 368 LINE",
"254 669 LINE",
"326 671 OFFCURVE",
"390 671 QCURVE SMOOTH",
"453 671 OFFCURVE",
"525 652 OFFCURVE",
"556 611 OFFCURVE",
"556 576 QCURVE SMOOTH",
"556 475 OFFCURVE",
"491 389 QCURVE",
"482 379 OFFCURVE",
"472 372 OFFCURVE",
"447 368 OFFCURVE",
"421 368 QCURVE SMOOTH"
);
}
);
userData = {
assembly = "NPUSHB[ ]\011/* 20 values pushed */
31 61 9 106 61 61 11 20 58 106 18 20 3 114 46 43 14 11 8 114 
SVTCA[0]\011/* SetFreedomAndProjectionVectorToAxis */
CALL[ ]\011/* CallFunction */
SHP[0]\011/* ShiftPointByLastPoint */
SHP[0]\011/* ShiftPointByLastPoint */
SHP[0]\011/* ShiftPointByLastPoint */
CALL[ ]\011/* CallFunction */
SHP[0]\011/* ShiftPointByLastPoint */
CALL[ ]\011/* CallFunction */
SRP2[ ]\011/* SetRefPoint2 */
IP[ ]\011/* InterpolatePts */
MDAP[1]\011/* MoveDirectAbsPt */
CALL[ ]\011/* CallFunction */
IP[ ]\011/* InterpolatePts */
IUP[0]\011/* InterpolateUntPts */
IUP[1]\011/* InterpolateUntPts */";
};
width = 652;
}
);
note = uni0052;
rightKerningGroup = R;
unicode = 0052;
},
{
glyphname = S;
layers = (
{
layerId = "DEC32D14-9EEB-4E31-A016-AD32FECB2E7D";
paths = (
{
closed = 1;
nodes = (
"35 55 LINE",
"72 27 OFFCURVE",
"184 -12 OFFCURVE",
"248 -12 QCURVE SMOOTH",
"330 -12 OFFCURVE",
"445 43 OFFCURVE",
"503 136 OFFCURVE",
"503 193 QCURVE SMOOTH",
"503 239 OFFCURVE",
"468 303 OFFCURVE",
"408 350 OFFCURVE",
"355 382 QCURVE SMOOTH",
"323 400 LINE SMOOTH",
"277 426 OFFCURVE",
"227 462 OFFCURVE",
"193 511 OFFCURVE",
"193 544 QCURVE SMOOTH",
"193 583 OFFCURVE",
"239 640 OFFCURVE",
"313 670 OFFCURVE",
"356 670 QCURVE SMOOTH",
"391 670 OFFCURVE",
"440 650 OFFCURVE",
"464 634 QCURVE",
"471 630 OFFCURVE",
"484 623 OFFCURVE",
"487 623 QCURVE SMOOTH",
"496 623 OFFCURVE",
"502 634 QCURVE",
"541 699 LINE",
"510 715 OFFCURVE",
"419 737 OFFCURVE",
"368 737 QCURVE SMOOTH",
"287 737 OFFCURVE",
"171 682 OFFCURVE",
"111 589 OFFCURVE",
"111 534 QCURVE SMOOTH",
"111 485 OFFCURVE",
"150 417 OFFCURVE",
"215 370 OFFCURVE",
"267 342 QCURVE SMOOTH",
"322 312 OFFCURVE",
"381 273 OFFCURVE",
"420 217 OFFCURVE",
"420 178 QCURVE SMOOTH",
"420 116 OFFCURVE",
"323 59 OFFCURVE",
"250 59 QCURVE SMOOTH",
"198 59 OFFCURVE",
"103 95 OFFCURVE",
"69 121 QCURVE"
);
}
);
userData = {
assembly = "NPUSHB[ ]\011/* 17 values pushed */
10 29 46 39 17 46 2 106 46 9 114 17 29 106 17 3 114 
SVTCA[0]\011/* SetFreedomAndProjectionVectorToAxis */
CALL[ ]\011/* CallFunction */
CALL[ ]\011/* CallFunction */
CALL[ ]\011/* CallFunction */
CALL[ ]\011/* CallFunction */
SRP1[ ]\011/* SetRefPoint1 */
IP[ ]\011/* InterpolatePts */
SRP1[ ]\011/* SetRefPoint1 */
SRP2[ ]\011/* SetRefPoint2 */
IP[ ]\011/* InterpolatePts */
IUP[0]\011/* InterpolateUntPts */
IUP[1]\011/* InterpolateUntPts */";
};
width = 551;
}
);
leftKerningGroup = S;
note = uni0053;
rightKerningGroup = S;
unicode = 0053;
},
{
glyphname = Scedilla;
layers = (
{
layerId = "DEC32D14-9EEB-4E31-A016-AD32FECB2E7D";
paths = (
{
closed = 1;
nodes = (
"323 400 LINE SMOOTH",
"277 426 OFFCURVE",
"227 462 OFFCURVE",
"193 511 OFFCURVE",
"193 544 QCURVE SMOOTH",
"193 583 OFFCURVE",
"239 640 OFFCURVE",
"313 670 OFFCURVE",
"356 670 QCURVE SMOOTH",
"391 670 OFFCURVE",
"440 650 OFFCURVE",
"464 634 QCURVE",
"471 630 OFFCURVE",
"484 623 OFFCURVE",
"487 623 QCURVE SMOOTH",
"496 623 OFFCURVE",
"502 634 QCURVE",
"541 699 LINE",
"510 715 OFFCURVE",
"419 737 OFFCURVE",
"368 737 QCURVE SMOOTH",
"287 737 OFFCURVE",
"171 682 OFFCURVE",
"111 589 OFFCURVE",
"111 534 QCURVE SMOOTH",
"111 485 OFFCURVE",
"150 417 OFFCURVE",
"215 370 OFFCURVE",
"267 342 QCURVE SMOOTH",
"322 312 OFFCURVE",
"381 273 OFFCURVE",
"420 217 OFFCURVE",
"420 178 QCURVE SMOOTH",
"420 116 OFFCURVE",
"323 59 OFFCURVE",
"250 59 QCURVE SMOOTH",
"198 59 OFFCURVE",
"103 95 OFFCURVE",
"69 121 QCURVE",
"35 55 LINE",
"67 31 OFFCURVE",
"163 -7 OFFCURVE",
"219 -11 QCURVE",
"194 -94 LINE",
"212 -94 LINE SMOOTH",
"251 -94 OFFCURVE",
"251 -115 QCURVE SMOOTH",
"251 -128 OFFCURVE",
"228 -143 OFFCURVE",
"209 -143 QCURVE SMOOTH",
"200 -143 OFFCURVE",
"186 -138 QCURVE SMOOTH",
"171 -133 OFFCURVE",
"167 -133 QCURVE SMOOTH",
"159 -133 OFFCURVE",
"150 -141 OFFCURVE",
"146 -151 QCURVE",
"135 -175 LINE",
"147 -180 OFFCURVE",
"180 -187 OFFCURVE",
"198 -187 QCURVE SMOOTH",
"222 -187 OFFCURVE",
"274 -168 OFFCURVE",
"309 -130 OFFCURVE",
"309 -104 QCURVE SMOOTH",
"309 -61 OFFCURVE",
"251 -57 QCURVE",
"264 -12 LINE",
"340 -9 OFFCURVE",
"448 47 OFFCURVE",
"503 138 OFFCURVE",
"503 193 QCURVE SMOOTH",
"503 239 OFFCURVE",
"468 303 OFFCURVE",
"408 350 OFFCURVE",
"355 382 QCURVE SMOOTH"
);
}
);
userData = {
assembly = "PUSHW[ ]\011/* 2 values pushed */
8 -16 
NPUSHB[ ]\011/* 28 values pushed */
8 76 63 31 79 31 2 31 31 14 76 54 66 106 54 3 114 14 25 106 17 14 7 39 106 32 7 9 
SVTCA[0]\011/* SetFreedomAndProjectionVectorToAxis */
MIAP[1]\011/* MoveIndirectAbsPt */
SHP[1]\011/* ShiftPointByLastPoint */
CALL[ ]\011/* CallFunction */
MDAP[1]\011/* MoveDirectAbsPt */
SHP[1]\011/* ShiftPointByLastPoint */
CALL[ ]\011/* CallFunction */
CALL[ ]\011/* CallFunction */
CALL[ ]\011/* CallFunction */
SRP1[ ]\011/* SetRefPoint1 */
SRP2[ ]\011/* SetRefPoint2 */
IP[ ]\011/* InterpolatePts */
RDTG[ ]\011/* RoundDownToGrid */
MDAP[1]\011/* MoveDirectAbsPt */
DELTAP1[ ]\011/* DeltaExceptionP1 */
SRP2[ ]\011/* SetRefPoint2 */
IP[ ]\011/* InterpolatePts */
SHPIX[ ]\011/* ShiftZoneByPixel */
IUP[0]\011/* InterpolateUntPts */
IUP[1]\011/* InterpolateUntPts */";
};
width = 551;
}
);
leftKerningGroup = S;
note = uni015E;
rightKerningGroup = S;
unicode = 015E;
},
{
glyphname = Schwa;
layers = (
{
layerId = "DEC32D14-9EEB-4E31-A016-AD32FECB2E7D";
paths = (
{
closed = 1;
nodes = (
"74 295 OFFCURVE",
"74 239 QCURVE SMOOTH",
"74 112 OFFCURVE",
"198 -16 OFFCURVE",
"326 -16 QCURVE SMOOTH",
"432 -16 OFFCURVE",
"580 66 OFFCURVE",
"674 233 OFFCURVE",
"697 362 QCURVE SMOOTH",
"710 430 OFFCURVE",
"710 491 QCURVE SMOOTH",
"710 615 OFFCURVE",
"587 740 OFFCURVE",
"459 740 QCURVE SMOOTH",
"406 740 OFFCURVE",
"294 718 OFFCURVE",
"248 703 QCURVE",
"259 636 LINE SMOOTH",
"261 625 OFFCURVE",
"270 625 QCURVE SMOOTH",
"277 625 OFFCURVE",
"288 632 QCURVE SMOOTH",
"318 650 OFFCURVE",
"399 672 OFFCURVE",
"446 672 QCURVE SMOOTH",
"509 672 OFFCURVE",
"588 635 OFFCURVE",
"627 555 OFFCURVE",
"627 489 QCURVE SMOOTH",
"627 452 OFFCURVE",
"621 407 QCURVE",
"141 407 LINE SMOOTH",
"117 407 OFFCURVE",
"90 386 OFFCURVE",
"86 362 QCURVE SMOOTH"
);
},
{
closed = 1;
nodes = (
"275 55 OFFCURVE",
"196 93 OFFCURVE",
"158 175 OFFCURVE",
"158 241 QCURVE SMOOTH",
"158 286 OFFCURVE",
"165 335 QCURVE",
"609 335 LINE",
"587 228 OFFCURVE",
"520 107 OFFCURVE",
"416 55 OFFCURVE",
"337 55 QCURVE SMOOTH"
);
}
);
userData = {
assembly = "NPUSHB[ ]\011/* 18 values pushed */
29 45 106 39 2 106 39 39 29 20 9 106 20 3 114 29 9 114 
SVTCA[0]\011/* SetFreedomAndProjectionVectorToAxis */
CALL[ ]\011/* CallFunction */
CALL[ ]\011/* CallFunction */
CALL[ ]\011/* CallFunction */
SRP2[ ]\011/* SetRefPoint2 */
IP[ ]\011/* InterpolatePts */
MDAP[1]\011/* MoveDirectAbsPt */
CALL[ ]\011/* CallFunction */
CALL[ ]\011/* CallFunction */
IUP[0]\011/* InterpolateUntPts */
IUP[1]\011/* InterpolateUntPts */";
};
width = 721;
}
);
note = uni018F;
unicode = 018F;
},
{
glyphname = T;
layers = (
{
layerId = "DEC32D14-9EEB-4E31-A016-AD32FECB2E7D";
paths = (
{
closed = 1;
nodes = (
"339 658 LINE",
"232 57 LINE",
"231 53 OFFCURVE",
"226 26 OFFCURVE",
"226 18 QCURVE SMOOTH",
"226 9 OFFCURVE",
"236 0 OFFCURVE",
"250 0 QCURVE SMOOTH",
"300 0 LINE",
"417 658 LINE",
"662 658 LINE",
"674 727 LINE",
"106 727 LINE",
"94 658 LINE"
);
}
);
userData = {
assembly = "NPUSHB[ ]\011/* 12 values pushed */
9 6 4 1 0 106 1 2 114 6 8 114 
SVTCA[0]\011/* SetFreedomAndProjectionVectorToAxis */
CALL[ ]\011/* CallFunction */
CALL[ ]\011/* CallFunction */
CALL[ ]\011/* CallFunction */
SHP[0]\011/* ShiftPointByLastPoint */
SRP1[ ]\011/* SetRefPoint1 */
SHP[1]\011/* ShiftPointByLastPoint */
IUP[0]\011/* InterpolateUntPts */
IUP[1]\011/* InterpolateUntPts */";
};
width = 586;
}
);
leftKerningGroup = T;
note = uni0054;
rightKerningGroup = T;
unicode = 0054;
},
{
glyphname = U;
layers = (
{
layerId = "DEC32D14-9EEB-4E31-A016-AD32FECB2E7D";
paths = (
{
closed = 1;
nodes = (
"601 0 LINE",
"719 670 LINE SMOOTH",
"724 698 OFFCURVE",
"724 709 QCURVE SMOOTH",
"724 718 OFFCURVE",
"714 727 OFFCURVE",
"700 727 QCURVE SMOOTH",
"651 727 LINE",
"559 201 LINE SMOOTH",
"555 178 OFFCURVE",
"537 153 OFFCURVE",
"521 140 QCURVE SMOOTH",
"504 126 OFFCURVE",
"442 88 OFFCURVE",
"360 57 OFFCURVE",
"321 57 QCURVE SMOOTH",
"263 57 OFFCURVE",
"196 85 OFFCURVE",
"166 143 OFFCURVE",
"166 191 QCURVE SMOOTH",
"166 218 OFFCURVE",
"178 301 OFFCURVE",
"186 343 QCURVE SMOOTH",
"201 431 OFFCURVE",
"241 635 OFFCURVE",
"248 670 QCURVE",
"249 674 OFFCURVE",
"254 701 OFFCURVE",
"254 709 QCURVE SMOOTH",
"254 718 OFFCURVE",
"244 727 OFFCURVE",
"230 727 QCURVE SMOOTH",
"180 727 LINE",
"111 360 LINE",
"110 353 OFFCURVE",
"104 322 QCURVE SMOOTH",
"98 290 OFFCURVE",
"85 202 OFFCURVE",
"85 171 QCURVE SMOOTH",
"85 80 OFFCURVE",
"175 -12 OFFCURVE",
"277 -12 QCURVE SMOOTH",
"328 -12 OFFCURVE",
"411 9 OFFCURVE",
"466 37 OFFCURVE",
"494 55 QCURVE SMOOTH",
"505 62 OFFCURVE",
"524 72 OFFCURVE",
"529 72 QCURVE SMOOTH",
"538 72 OFFCURVE",
"538 59 QCURVE SMOOTH",
"538 49 OFFCURVE",
"536 38 QCURVE SMOOTH",
"534 27 OFFCURVE",
"534 18 QCURVE SMOOTH",
"534 9 OFFCURVE",
"544 0 OFFCURVE",
"558 0 QCURVE SMOOTH"
);
}
);
userData = {
assembly = "NPUSHB[ ]\011/* 16 values pushed */
29 54 51 25 16 42 106 0 8 114 25 2 114 16 9 114 
SVTCA[0]\011/* SetFreedomAndProjectionVectorToAxis */
CALL[ ]\011/* CallFunction */
CALL[ ]\011/* CallFunction */
CALL[ ]\011/* CallFunction */
CALL[ ]\011/* CallFunction */
SRP1[ ]\011/* SetRefPoint1 */
SHP[1]\011/* ShiftPointByLastPoint */
SHP[1]\011/* ShiftPointByLastPoint */
SHP[1]\011/* ShiftPointByLastPoint */
IUP[0]\011/* InterpolateUntPts */
IUP[1]\011/* InterpolateUntPts */";
};
width = 722;
}
);
leftKerningGroup = U;
note = uni0055;
unicode = 0055;
},
{
glyphname = Uhorn;
layers = (
{
layerId = "DEC32D14-9EEB-4E31-A016-AD32FECB2E7D";
paths = (
{
closed = 1;
nodes = (
"601 0 LINE",
"720 678 LINE",
"797 680 OFFCURVE",
"882 756 OFFCURVE",
"882 828 QCURVE SMOOTH",
"882 845 OFFCURVE",
"869 863 OFFCURVE",
"854 863 QCURVE SMOOTH",
"847 863 OFFCURVE",
"833 860 QCURVE SMOOTH",
"798 853 LINE",
"801 833 OFFCURVE",
"801 810 QCURVE SMOOTH",
"801 727 OFFCURVE",
"723 727 QCURVE SMOOTH",
"651 727 LINE",
"559 201 LINE SMOOTH",
"555 178 OFFCURVE",
"537 153 OFFCURVE",
"521 140 QCURVE SMOOTH",
"504 126 OFFCURVE",
"442 88 OFFCURVE",
"360 57 OFFCURVE",
"321 57 QCURVE SMOOTH",
"263 57 OFFCURVE",
"196 85 OFFCURVE",
"166 143 OFFCURVE",
"166 191 QCURVE SMOOTH",
"166 218 OFFCURVE",
"178 301 OFFCURVE",
"186 343 QCURVE SMOOTH",
"201 431 OFFCURVE",
"241 635 OFFCURVE",
"248 670 QCURVE",
"249 674 OFFCURVE",
"254 701 OFFCURVE",
"254 709 QCURVE SMOOTH",
"254 718 OFFCURVE",
"244 727 OFFCURVE",
"230 727 QCURVE SMOOTH",
"180 727 LINE",
"111 360 LINE",
"110 353 OFFCURVE",
"104 322 QCURVE SMOOTH",
"98 290 OFFCURVE",
"85 202 OFFCURVE",
"85 171 QCURVE SMOOTH",
"85 80 OFFCURVE",
"175 -12 OFFCURVE",
"277 -12 QCURVE SMOOTH",
"328 -12 OFFCURVE",
"411 9 OFFCURVE",
"466 37 OFFCURVE",
"494 55 QCURVE SMOOTH",
"505 62 OFFCURVE",
"524 72 OFFCURVE",
"529 72 QCURVE SMOOTH",
"538 72 OFFCURVE",
"538 59 QCURVE SMOOTH",
"538 49 OFFCURVE",
"536 38 QCURVE SMOOTH",
"534 27 OFFCURVE",
"534 18 QCURVE SMOOTH",
"534 9 OFFCURVE",
"544 0 OFFCURVE",
"558 0 QCURVE SMOOTH"
);
}
);
userData = {
assembly = "NPUSHB[ ]\011/* 16 values pushed */
65 8 114 63 57 49 49 24 2 114 15 41 106 15 9 114 
SVTCA[0]\011/* SetFreedomAndProjectionVectorToAxis */
CALL[ ]\011/* CallFunction */
CALL[ ]\011/* CallFunction */
CALL[ ]\011/* CallFunction */
SHP[0]\011/* ShiftPointByLastPoint */
SRP0[ ]\011/* SetRefPoint0 */
MDRP[00100]\011/* MoveDirectRelPt */
SHP[1]\011/* ShiftPointByLastPoint */
CALL[ ]\011/* CallFunction */
IUP[0]\011/* InterpolateUntPts */
IUP[1]\011/* InterpolateUntPts */";
};
width = 724;
}
);
note = uni01AF;
unicode = 01AF;
},
{
glyphname = Uogonek;
layers = (
{
layerId = "DEC32D14-9EEB-4E31-A016-AD32FECB2E7D";
paths = (
{
closed = 1;
nodes = (
"719 670 LINE SMOOTH",
"724 698 OFFCURVE",
"724 709 QCURVE SMOOTH",
"724 718 OFFCURVE",
"714 727 OFFCURVE",
"700 727 QCURVE SMOOTH",
"651 727 LINE",
"567 245 LINE SMOOTH",
"559 206 OFFCURVE",
"550 173 OFFCURVE",
"536 153 OFFCURVE",
"521 140 QCURVE SMOOTH",
"504 126 OFFCURVE",
"442 88 OFFCURVE",
"360 57 OFFCURVE",
"321 57 QCURVE SMOOTH",
"263 57 OFFCURVE",
"196 85 OFFCURVE",
"166 143 OFFCURVE",
"166 191 QCURVE SMOOTH",
"166 218 OFFCURVE",
"178 301 OFFCURVE",
"186 343 QCURVE SMOOTH",
"205 455 OFFCURVE",
"241 634 QCURVE SMOOTH",
"248 670 LINE",
"249 674 OFFCURVE",
"254 701 OFFCURVE",
"254 709 QCURVE SMOOTH",
"254 718 OFFCURVE",
"244 727 OFFCURVE",
"230 727 QCURVE SMOOTH",
"180 727 LINE",
"111 360 LINE",
"107 337 LINE SMOOTH",
"94 269 OFFCURVE",
"88 218 QCURVE SMOOTH",
"85 193 OFFCURVE",
"85 171 QCURVE SMOOTH",
"85 80 OFFCURVE",
"175 -12 OFFCURVE",
"277 -12 QCURVE SMOOTH",
"331 -12 OFFCURVE",
"418 10 OFFCURVE",
"474 39 OFFCURVE",
"501 57 QCURVE SMOOTH",
"504 59 OFFCURVE",
"509 63 QCURVE",
"514 66 OFFCURVE",
"526 72 OFFCURVE",
"529 72 QCURVE SMOOTH",
"538 72 OFFCURVE",
"538 59 QCURVE SMOOTH",
"538 54 OFFCURVE",
"536 38 QCURVE SMOOTH",
"534 18 LINE",
"534 0 OFFCURVE",
"547 0 QCURVE",
"521 -16 OFFCURVE",
"470 -59 OFFCURVE",
"455 -82 QCURVE SMOOTH",
"438 -109 OFFCURVE",
"438 -133 QCURVE SMOOTH",
"438 -164 OFFCURVE",
"483 -187 OFFCURVE",
"512 -187 QCURVE SMOOTH",
"543 -187 OFFCURVE",
"581 -178 QCURVE",
"586 -147 LINE",
"586 -140 OFFCURVE",
"577 -132 OFFCURVE",
"570 -132 QCURVE SMOOTH",
"561 -132 OFFCURVE",
"547 -136 QCURVE",
"544 -136 OFFCURVE",
"538 -138 QCURVE",
"532 -139 OFFCURVE",
"527 -139 QCURVE SMOOTH",
"495 -139 OFFCURVE",
"495 -115 QCURVE SMOOTH",
"495 -96 OFFCURVE",
"530 -51 OFFCURVE",
"580 -12 OFFCURVE",
"601 0 QCURVE"
);
}
);
userData = {
assembly = "NPUSHB[ ]\011/* 21 values pushed */
25 83 8 114 80 77 54 50 2 114 41 67 106 41 9 114 15 17 5 106 17 
SVTCA[0]\011/* SetFreedomAndProjectionVectorToAxis */
MDAP[1]\011/* MoveDirectAbsPt */
CALL[ ]\011/* CallFunction */
SHP[1]\011/* ShiftPointByLastPoint */
CALL[ ]\011/* CallFunction */
CALL[ ]\011/* CallFunction */
CALL[ ]\011/* CallFunction */
SHP[0]\011/* ShiftPointByLastPoint */
SHP[0]\011/* ShiftPointByLastPoint */
SHP[0]\011/* ShiftPointByLastPoint */
CALL[ ]\011/* CallFunction */
SHP[0]\011/* ShiftPointByLastPoint */
IUP[0]\011/* InterpolateUntPts */
IUP[1]\011/* InterpolateUntPts */";
};
width = 722;
}
);
leftKerningGroup = U;
note = uni0172;
unicode = 0172;
},
{
glyphname = V;
layers = (
{
layerId = "DEC32D14-9EEB-4E31-A016-AD32FECB2E7D";
paths = (
{
closed = 1;
nodes = (
"339 0 LINE",
"719 727 LINE",
"653 727 LINE SMOOTH",
"642 727 OFFCURVE",
"630 718 OFFCURVE",
"624 706 QCURVE SMOOTH",
"298 69 LINE",
"192 706 LINE SMOOTH",
"190 718 OFFCURVE",
"182 727 OFFCURVE",
"171 727 QCURVE SMOOTH",
"105 727 LINE",
"224 21 LINE SMOOTH",
"226 8 OFFCURVE",
"234 0 OFFCURVE",
"245 0 QCURVE SMOOTH"
);
}
);
userData = {
assembly = "PUSHB[ ]\011/* 8 values pushed */
8 15 8 114 13 3 2 114 
SVTCA[0]\011/* SetFreedomAndProjectionVectorToAxis */
CALL[ ]\011/* CallFunction */
SHP[0]\011/* ShiftPointByLastPoint */
CALL[ ]\011/* CallFunction */
SHP[0]\011/* ShiftPointByLastPoint */
IUP[0]\011/* InterpolateUntPts */
IUP[1]\011/* InterpolateUntPts */";
};
width = 619;
}
);
leftKerningGroup = V;
note = uni0056;
rightKerningGroup = V;
unicode = 0056;
},
{
glyphname = W;
layers = (
{
layerId = "DEC32D14-9EEB-4E31-A016-AD32FECB2E7D";
paths = (
{
closed = 1;
nodes = (
"716 0 LINE",
"1029 727 LINE",
"971 727 LINE SMOOTH",
"960 727 OFFCURVE",
"947 718 OFFCURVE",
"942 706 QCURVE SMOOTH",
"672 69 LINE",
"631 706 LINE SMOOTH",
"630 718 OFFCURVE",
"621 727 OFFCURVE",
"610 727 QCURVE SMOOTH",
"513 727 LINE",
"243 69 LINE",
"196 706 LINE SMOOTH",
"195 718 OFFCURVE",
"186 727 OFFCURVE",
"175 727 QCURVE SMOOTH",
"116 727 LINE",
"170 21 LINE SMOOTH",
"171 9 OFFCURVE",
"180 0 OFFCURVE",
"191 0 QCURVE SMOOTH",
"289 0 LINE",
"560 663 LINE",
"598 21 LINE SMOOTH",
"599 9 OFFCURVE",
"608 0 OFFCURVE",
"619 0 QCURVE SMOOTH"
);
}
);
userData = {
assembly = "NPUSHB[ ]\011/* 14 values pushed */
3 16 16 25 9 2 114 20 14 14 27 5 8 114 
SVTCA[0]\011/* SetFreedomAndProjectionVectorToAxis */
CALL[ ]\011/* CallFunction */
SHP[0]\011/* ShiftPointByLastPoint */
SHP[0]\011/* ShiftPointByLastPoint */
SRP1[ ]\011/* SetRefPoint1 */
SHP[1]\011/* ShiftPointByLastPoint */
CALL[ ]\011/* CallFunction */
SHP[0]\011/* ShiftPointByLastPoint */
SHP[0]\011/* ShiftPointByLastPoint */
SRP1[ ]\011/* SetRefPoint1 */
SHP[1]\011/* ShiftPointByLastPoint */
IUP[0]\011/* InterpolateUntPts */
IUP[1]\011/* InterpolateUntPts */";
};
width = 953;
}
);
leftKerningGroup = W;
note = uni0057;
rightKerningGroup = W;
unicode = 0057;
},
{
glyphname = X;
layers = (
{
layerId = "DEC32D14-9EEB-4E31-A016-AD32FECB2E7D";
paths = (
{
closed = 1;
nodes = (
"556 0 LINE",
"382 362 LINE",
"676 727 LINE",
"605 727 LINE SMOOTH",
"594 727 OFFCURVE",
"579 719 OFFCURVE",
"569 707 QCURVE SMOOTH",
"346 421 LINE",
"214 707 LINE",
"209 719 OFFCURVE",
"197 727 OFFCURVE",
"186 727 QCURVE SMOOTH",
"116 727 LINE",
"287 365 LINE",
"-11 0 LINE",
"58 0 LINE SMOOTH",
"69 0 OFFCURVE",
"84 8 OFFCURVE",
"94 20 QCURVE SMOOTH",
"323 303 LINE",
"456 20 LINE",
"461 8 OFFCURVE",
"473 0 OFFCURVE",
"484 0 QCURVE SMOOTH"
);
}
);
userData = {
assembly = "NPUSHB[ ]\011/* 11 values pushed */
15 3 23 20 10 2 114 23 8 8 114 
SVTCA[0]\011/* SetFreedomAndProjectionVectorToAxis */
CALL[ ]\011/* CallFunction */
SHP[0]\011/* ShiftPointByLastPoint */
CALL[ ]\011/* CallFunction */
SHP[0]\011/* ShiftPointByLastPoint */
SRP2[ ]\011/* SetRefPoint2 */
IP[ ]\011/* InterpolatePts */
IP[ ]\011/* InterpolatePts */
IUP[0]\011/* InterpolateUntPts */
IUP[1]\011/* InterpolateUntPts */";
};
width = 604;
}
);
leftKerningGroup = X;
note = uni0058;
rightKerningGroup = X;
unicode = 0058;
},
{
glyphname = Y;
layers = (
{
layerId = "DEC32D14-9EEB-4E31-A016-AD32FECB2E7D";
paths = (
{
closed = 1;
nodes = (
"294 0 LINE",
"333 219 LINE",
"669 727 LINE",
"598 727 LINE SMOOTH",
"587 727 OFFCURVE",
"577 719 OFFCURVE",
"569 706 QCURVE SMOOTH",
"309 298 LINE",
"190 706 LINE",
"187 719 OFFCURVE",
"180 727 OFFCURVE",
"169 727 QCURVE SMOOTH",
"100 727 LINE",
"255 219 LINE",
"227 57 LINE",
"226 53 OFFCURVE",
"221 26 OFFCURVE",
"221 18 QCURVE SMOOTH",
"221 9 OFFCURVE",
"231 0 OFFCURVE",
"245 0 QCURVE SMOOTH"
);
}
);
userData = {
assembly = "NPUSHB[ ]\011/* 10 values pushed */
12 7 2 20 8 114 17 7 2 114 
SVTCA[0]\011/* SetFreedomAndProjectionVectorToAxis */
CALL[ ]\011/* CallFunction */
SHP[0]\011/* ShiftPointByLastPoint */
CALL[ ]\011/* CallFunction */
SHP[0]\011/* ShiftPointByLastPoint */
SRP1[ ]\011/* SetRefPoint1 */
IP[ ]\011/* InterpolatePts */
IUP[0]\011/* InterpolateUntPts */
IUP[1]\011/* InterpolateUntPts */";
};
width = 572;
}
);
leftKerningGroup = Y;
note = uni0059;
rightKerningGroup = Y;
unicode = 0059;
},
{
glyphname = Z;
layers = (
{
layerId = "DEC32D14-9EEB-4E31-A016-AD32FECB2E7D";
paths = (
{
closed = 1;
nodes = (
"9 0 LINE",
"473 0 LINE",
"486 71 LINE",
"112 71 LINE",
"567 644 LINE SMOOTH",
"578 657 OFFCURVE",
"589 679 OFFCURVE",
"591 693 QCURVE SMOOTH",
"596 727 LINE",
"143 727 LINE",
"130 656 LINE",
"492 656 LINE",
"38 83 LINE SMOOTH",
"27 69 OFFCURVE",
"15 44 OFFCURVE",
"13 29 QCURVE SMOOTH"
);
}
);
userData = {
assembly = "NPUSHB[ ]\011/* 12 values pushed */
15 12 106 6 5 106 6 2 114 15 8 114 
SVTCA[0]\011/* SetFreedomAndProjectionVectorToAxis */
CALL[ ]\011/* CallFunction */
CALL[ ]\011/* CallFunction */
CALL[ ]\011/* CallFunction */
CALL[ ]\011/* CallFunction */
IUP[0]\011/* InterpolateUntPts */
IUP[1]\011/* InterpolateUntPts */";
};
width = 544;
}
);
leftKerningGroup = Z;
note = uni005A;
rightKerningGroup = Z;
unicode = 005A;
},
{
glyphname = a;
layers = (
{
layerId = "DEC32D14-9EEB-4E31-A016-AD32FECB2E7D";
paths = (
{
closed = 1;
nodes = (
"408 23 LINE SMOOTH",
"408 11 OFFCURVE",
"418 0 OFFCURVE",
"429 0 QCURVE SMOOTH",
"477 0 LINE",
"477 37 LINE SMOOTH",
"477 68 OFFCURVE",
"481 118 OFFCURVE",
"486 147 QCURVE SMOOTH",
"536 433 LINE SMOOTH",
"540 457 OFFCURVE",
"540 460 QCURVE SMOOTH",
"540 468 OFFCURVE",
"530 478 OFFCURVE",
"519 484 QCURVE SMOOTH",
"486 501 OFFCURVE",
"393 524 OFFCURVE",
"343 524 QCURVE SMOOTH",
"251 524 OFFCURVE",
"123 423 OFFCURVE",
"60 260 OFFCURVE",
"60 169 QCURVE SMOOTH",
"60 113 OFFCURVE",
"101 31 OFFCURVE",
"176 -12 OFFCURVE",
"227 -12 QCURVE SMOOTH",
"295 -12 OFFCURVE",
"362 35 QCURVE SMOOTH",
"365 37 OFFCURVE",
"380 48 QCURVE SMOOTH",
"394 58 OFFCURVE",
"400 58 QCURVE SMOOTH",
"404 58 OFFCURVE",
"408 52 OFFCURVE",
"408 44 QCURVE SMOOTH"
);
},
{
closed = 1;
nodes = (
"414 159 LINE SMOOTH",
"412 149 OFFCURVE",
"407 137 OFFCURVE",
"400 130 QCURVE SMOOTH",
"324 54 OFFCURVE",
"260 54 QCURVE SMOOTH",
"204 54 OFFCURVE",
"141 121 OFFCURVE",
"141 194 QCURVE SMOOTH",
"141 257 OFFCURVE",
"182 378 OFFCURVE",
"268 458 OFFCURVE",
"331 458 QCURVE SMOOTH",
"356 458 OFFCURVE",
"406 448 OFFCURVE",
"444 434 OFFCURVE",
"451 428 QCURVE",
"459 422 OFFCURVE",
"459 415 QCURVE SMOOTH",
"459 413 OFFCURVE",
"455 389 QCURVE SMOOTH"
);
}
);
userData = {
assembly = "NPUSHB[ ]\011/* 15 values pushed */
8 49 106 16 42 106 30 10 114 16 7 114 8 11 114 
SVTCA[0]\011/* SetFreedomAndProjectionVectorToAxis */
CALL[ ]\011/* CallFunction */
CALL[ ]\011/* CallFunction */
CALL[ ]\011/* CallFunction */
CALL[ ]\011/* CallFunction */
CALL[ ]\011/* CallFunction */
IUP[0]\011/* InterpolateUntPts */
IUP[1]\011/* InterpolateUntPts */";
};
width = 550;
}
);
leftKerningGroup = a;
note = uni0061;
unicode = 0061;
},
{
glyphname = aogonek;
layers = (
{
layerId = "DEC32D14-9EEB-4E31-A016-AD32FECB2E7D";
paths = (
{
closed = 1;
nodes = (
"477 37 LINE",
"476 71 OFFCURVE",
"486 149 OFFCURVE",
"497 210 QCURVE SMOOTH",
"536 433 LINE SMOOTH",
"540 457 OFFCURVE",
"540 460 QCURVE SMOOTH",
"540 468 OFFCURVE",
"530 478 OFFCURVE",
"519 484 QCURVE SMOOTH",
"486 501 OFFCURVE",
"393 524 OFFCURVE",
"343 524 QCURVE SMOOTH",
"257 524 OFFCURVE",
"133 435 OFFCURVE",
"67 289 OFFCURVE",
"61 204 QCURVE SMOOTH",
"60 192 OFFCURVE",
"60 169 QCURVE SMOOTH",
"60 95 OFFCURVE",
"130 2 OFFCURVE",
"191 -9 QCURVE SMOOTH",
"209 -12 OFFCURVE",
"227 -12 QCURVE SMOOTH",
"271 -12 OFFCURVE",
"345 21 OFFCURVE",
"362 35 QCURVE",
"365 37 OFFCURVE",
"380 48 QCURVE SMOOTH",
"394 58 OFFCURVE",
"400 58 QCURVE SMOOTH",
"404 58 OFFCURVE",
"408 52 OFFCURVE",
"408 44 QCURVE SMOOTH",
"408 23 LINE SMOOTH",
"408 10 OFFCURVE",
"414 0 OFFCURVE",
"425 0 QCURVE",
"407 -10 OFFCURVE",
"398 -16 QCURVE SMOOTH",
"362 -39 OFFCURVE",
"314 -102 OFFCURVE",
"314 -133 QCURVE SMOOTH",
"314 -164 OFFCURVE",
"359 -187 OFFCURVE",
"388 -187 QCURVE SMOOTH",
"419 -187 OFFCURVE",
"457 -178 QCURVE",
"462 -147 LINE",
"462 -140 OFFCURVE",
"453 -132 OFFCURVE",
"446 -132 QCURVE SMOOTH",
"437 -132 OFFCURVE",
"423 -136 QCURVE",
"420 -136 OFFCURVE",
"414 -138 QCURVE",
"408 -139 OFFCURVE",
"403 -139 QCURVE SMOOTH",
"371 -139 OFFCURVE",
"371 -115 QCURVE SMOOTH",
"371 -96 OFFCURVE",
"406 -51 OFFCURVE",
"456 -12 OFFCURVE",
"477 0 QCURVE"
);
},
{
closed = 1;
nodes = (
"414 159 LINE SMOOTH",
"412 149 OFFCURVE",
"407 137 OFFCURVE",
"400 130 QCURVE SMOOTH",
"324 54 OFFCURVE",
"260 54 QCURVE SMOOTH",
"204 54 OFFCURVE",
"141 121 OFFCURVE",
"141 194 QCURVE SMOOTH",
"141 257 OFFCURVE",
"182 378 OFFCURVE",
"268 458 OFFCURVE",
"331 458 QCURVE SMOOTH",
"369 458 OFFCURVE",
"427 442 OFFCURVE",
"459 421 OFFCURVE",
"459 415 QCURVE SMOOTH",
"459 413 OFFCURVE",
"455 389 QCURVE SMOOTH"
);
}
);
userData = {
assembly = "NPUSHB[ ]\011/* 22 values pushed */
25 63 10 50 69 106 50 7 114 39 76 106 39 11 114 15 17 5 106 17 14 114 
SVTCA[0]\011/* SetFreedomAndProjectionVectorToAxis */
CALL[ ]\011/* CallFunction */
CALL[ ]\011/* CallFunction */
SHP[1]\011/* ShiftPointByLastPoint */
CALL[ ]\011/* CallFunction */
CALL[ ]\011/* CallFunction */
CALL[ ]\011/* CallFunction */
CALL[ ]\011/* CallFunction */
MIAP[1]\011/* MoveIndirectAbsPt */
SHP[1]\011/* ShiftPointByLastPoint */
IUP[0]\011/* InterpolateUntPts */
IUP[1]\011/* InterpolateUntPts */";
};
width = 550;
}
);
leftKerningGroup = a;
note = uni0105;
unicode = 0105;
},
{
glyphname = ae;
layers = (
{
layerId = "DEC32D14-9EEB-4E31-A016-AD32FECB2E7D";
paths = (
{
closed = 1;
nodes = (
"621 -12 OFFCURVE",
"717 17 OFFCURVE",
"751 37 QCURVE",
"730 86 LINE",
"701 71 OFFCURVE",
"631 50 OFFCURVE",
"601 50 QCURVE SMOOTH",
"533 50 OFFCURVE",
"460 104 OFFCURVE",
"460 165 QCURVE SMOOTH",
"460 184 OFFCURVE",
"465 214 QCURVE",
"485 208 OFFCURVE",
"537 200 OFFCURVE",
"564 200 QCURVE SMOOTH",
"624 200 OFFCURVE",
"727 233 OFFCURVE",
"796 299 OFFCURVE",
"807 346 QCURVE SMOOTH",
"812 369 OFFCURVE",
"812 390 QCURVE SMOOTH",
"812 452 OFFCURVE",
"730 527 OFFCURVE",
"648 527 QCURVE SMOOTH",
"605 527 OFFCURVE",
"532 497 OFFCURVE",
"512 483 QCURVE",
"507 480 OFFCURVE",
"503 477 QCURVE SMOOTH",
"498 473 OFFCURVE",
"488 468 OFFCURVE",
"483 468 QCURVE SMOOTH",
"480 468 OFFCURVE",
"471 475 OFFCURVE",
"466 480 QCURVE",
"452 493 OFFCURVE",
"423 512 OFFCURVE",
"372 527 OFFCURVE",
"337 527 QCURVE SMOOTH",
"245 527 OFFCURVE",
"120 419 OFFCURVE",
"59 257 OFFCURVE",
"59 175 QCURVE SMOOTH",
"59 112 OFFCURVE",
"102 28 OFFCURVE",
"175 -12 OFFCURVE",
"222 -12 QCURVE SMOOTH",
"270 -12 OFFCURVE",
"339 20 OFFCURVE",
"372 46 QCURVE SMOOTH",
"381 53 OFFCURVE",
"397 63 OFFCURVE",
"402 63 QCURVE SMOOTH",
"405 63 OFFCURVE",
"411 58 OFFCURVE",
"416 52 OFFCURVE",
"417 50 QCURVE",
"432 30 OFFCURVE",
"500 -12 OFFCURVE",
"568 -12 QCURVE SMOOTH"
);
},
{
closed = 1;
nodes = (
"396 247 LINE SMOOTH",
"384 181 OFFCURVE",
"384 143 QCURVE SMOOTH",
"384 129 OFFCURVE",
"385 122 QCURVE",
"357 94 OFFCURVE",
"292 54 OFFCURVE",
"250 54 QCURVE SMOOTH",
"217 54 OFFCURVE",
"167 84 OFFCURVE",
"138 142 OFFCURVE",
"138 182 QCURVE SMOOTH",
"138 248 OFFCURVE",
"176 378 OFFCURVE",
"262 465 OFFCURVE",
"328 465 QCURVE SMOOTH",
"357 465 OFFCURVE",
"416 438 OFFCURVE",
"423 417 QCURVE SMOOTH",
"424 414 OFFCURVE",
"424 409 QCURVE SMOOTH",
"424 405 OFFCURVE",
"423 401 QCURVE SMOOTH",
"422 397 OFFCURVE",
"422 393 QCURVE"
);
},
{
closed = 1;
nodes = (
"541 256 OFFCURVE",
"489 265 OFFCURVE",
"475 272 QCURVE",
"496 394 LINE SMOOTH",
"498 407 OFFCURVE",
"507 419 OFFCURVE",
"520 430 QCURVE",
"540 445 OFFCURVE",
"600 465 OFFCURVE",
"636 465 QCURVE SMOOTH",
"658 465 OFFCURVE",
"673 461 QCURVE SMOOTH",
"703 453 OFFCURVE",
"732 410 OFFCURVE",
"732 380 QCURVE SMOOTH",
"732 317 OFFCURVE",
"646 256 OFFCURVE",
"577 256 QCURVE SMOOTH"
);
}
);
userData = {
assembly = "NPUSHB[ ]\011/* 26 values pushed */
59 52 106 59 12 76 106 44 102 106 44 44 12 20 68 106 35 92 106 35 20 7 114 12 11 114 
SVTCA[0]\011/* SetFreedomAndProjectionVectorToAxis */
CALL[ ]\011/* CallFunction */
CALL[ ]\011/* CallFunction */
SHP[0]\011/* ShiftPointByLastPoint */
CALL[ ]\011/* CallFunction */
CALL[ ]\011/* CallFunction */
SRP2[ ]\011/* SetRefPoint2 */
IP[ ]\011/* InterpolatePts */
MDAP[1]\011/* MoveDirectAbsPt */
CALL[ ]\011/* CallFunction */
CALL[ ]\011/* CallFunction */
SHP[1]\011/* ShiftPointByLastPoint */
CALL[ ]\011/* CallFunction */
IUP[0]\011/* InterpolateUntPts */
IUP[1]\011/* InterpolateUntPts */";
};
width = 802;
}
);
leftKerningGroup = a;
note = uni00E6;
rightKerningGroup = ae;
unicode = 00E6;
},
{
glyphname = b;
layers = (
{
layerId = "DEC32D14-9EEB-4E31-A016-AD32FECB2E7D";
paths = (
{
closed = 1;
nodes = (
"229 670 LINE",
"230 674 OFFCURVE",
"235 701 OFFCURVE",
"235 709 QCURVE SMOOTH",
"235 718 OFFCURVE",
"225 727 OFFCURVE",
"211 727 QCURVE SMOOTH",
"165 727 LINE",
"51 52 LINE",
"50 49 OFFCURVE",
"50 43 QCURVE SMOOTH",
"50 34 OFFCURVE",
"59 24 OFFCURVE",
"71 18 QCURVE SMOOTH",
"97 5 OFFCURVE",
"180 -12 OFFCURVE",
"230 -12 QCURVE SMOOTH",
"329 -12 OFFCURVE",
"465 89 OFFCURVE",
"531 251 OFFCURVE",
"531 343 QCURVE SMOOTH",
"531 399 OFFCURVE",
"490 481 OFFCURVE",
"415 524 OFFCURVE",
"364 524 QCURVE SMOOTH",
"331 524 OFFCURVE",
"276 507 OFFCURVE",
"246 489 OFFCURVE",
"230 478 QCURVE SMOOTH",
"224 474 OFFCURVE",
"218 469 QCURVE",
"212 463 OFFCURVE",
"200 454 OFFCURVE",
"197 454 QCURVE SMOOTH",
"192 454 OFFCURVE",
"192 460 QCURVE SMOOTH",
"192 464 OFFCURVE",
"196 476 QCURVE",
"199 488 OFFCURVE",
"202 503 QCURVE"
);
},
{
closed = 1;
nodes = (
"179 363 OFFCURVE",
"184 375 OFFCURVE",
"191 382 QCURVE SMOOTH",
"267 458 OFFCURVE",
"331 458 QCURVE SMOOTH",
"387 458 OFFCURVE",
"450 391 OFFCURVE",
"450 318 QCURVE SMOOTH",
"450 255 OFFCURVE",
"406 134 OFFCURVE",
"312 54 OFFCURVE",
"242 54 QCURVE SMOOTH",
"181 54 OFFCURVE",
"129 80 OFFCURVE",
"132 99 QCURVE SMOOTH",
"141 155 OFFCURVE",
"165 289 OFFCURVE",
"177 353 QCURVE SMOOTH"
);
}
);
userData = {
assembly = "NPUSHB[ ]\011/* 17 values pushed */
35 31 22 45 106 14 52 106 14 7 114 31 0 114 22 11 114 
SVTCA[0]\011/* SetFreedomAndProjectionVectorToAxis */
CALL[ ]\011/* CallFunction */
CALL[ ]\011/* CallFunction */
CALL[ ]\011/* CallFunction */
CALL[ ]\011/* CallFunction */
CALL[ ]\011/* CallFunction */
SRP1[ ]\011/* SetRefPoint1 */
SHP[1]\011/* ShiftPointByLastPoint */
IUP[0]\011/* InterpolateUntPts */
IUP[1]\011/* InterpolateUntPts */";
};
width = 543;
}
);
leftKerningGroup = b;
note = uni0062;
rightKerningGroup = b;
unicode = 0062;
},
{
glyphname = c;
layers = (
{
layerId = "DEC32D14-9EEB-4E31-A016-AD32FECB2E7D";
paths = (
{
closed = 1;
nodes = (
"391 85 LINE",
"366 70 OFFCURVE",
"306 50 OFFCURVE",
"279 50 QCURVE SMOOTH",
"206 50 OFFCURVE",
"139 119 OFFCURVE",
"139 187 QCURVE SMOOTH",
"139 264 OFFCURVE",
"188 398 OFFCURVE",
"238 433 QCURVE SMOOTH",
"283 465 OFFCURVE",
"343 465 QCURVE SMOOTH",
"369 465 OFFCURVE",
"402 453 OFFCURVE",
"415 445 QCURVE",
"427 437 OFFCURVE",
"431 437 QCURVE SMOOTH",
"436 437 OFFCURVE",
"445 446 OFFCURVE",
"452 458 QCURVE SMOOTH",
"480 505 LINE",
"452 515 OFFCURVE",
"393 527 OFFCURVE",
"351 527 QCURVE SMOOTH",
"259 527 OFFCURVE",
"127 428 OFFCURVE",
"60 271 OFFCURVE",
"60 185 QCURVE SMOOTH",
"60 79 OFFCURVE",
"160 -12 OFFCURVE",
"244 -12 QCURVE SMOOTH",
"291 -12 OFFCURVE",
"380 14 OFFCURVE",
"412 32 QCURVE"
);
}
);
userData = {
assembly = "NPUSHB[ ]\011/* 12 values pushed */
2 29 106 9 21 106 9 7 114 2 11 114 
SVTCA[0]\011/* SetFreedomAndProjectionVectorToAxis */
CALL[ ]\011/* CallFunction */
CALL[ ]\011/* CallFunction */
CALL[ ]\011/* CallFunction */
CALL[ ]\011/* CallFunction */
IUP[0]\011/* InterpolateUntPts */
IUP[1]\011/* InterpolateUntPts */";
};
width = 449;
}
);
leftKerningGroup = c;
note = uni0063;
rightKerningGroup = c;
unicode = 0063;
},
{
glyphname = ccedilla;
layers = (
{
layerId = "DEC32D14-9EEB-4E31-A016-AD32FECB2E7D";
paths = (
{
closed = 1;
nodes = (
"480 505 LINE",
"452 515 OFFCURVE",
"393 527 OFFCURVE",
"351 527 QCURVE SMOOTH",
"259 527 OFFCURVE",
"127 428 OFFCURVE",
"60 271 OFFCURVE",
"60 185 QCURVE SMOOTH",
"60 92 OFFCURVE",
"137 0 OFFCURVE",
"204 -9 QCURVE",
"179 -94 LINE",
"197 -94 LINE SMOOTH",
"236 -94 OFFCURVE",
"236 -115 QCURVE SMOOTH",
"236 -128 OFFCURVE",
"213 -143 OFFCURVE",
"194 -143 QCURVE SMOOTH",
"185 -143 OFFCURVE",
"171 -138 QCURVE SMOOTH",
"156 -133 OFFCURVE",
"152 -133 QCURVE SMOOTH",
"144 -133 OFFCURVE",
"135 -141 OFFCURVE",
"131 -151 QCURVE",
"120 -175 LINE",
"132 -180 OFFCURVE",
"165 -187 OFFCURVE",
"183 -187 QCURVE SMOOTH",
"207 -187 OFFCURVE",
"259 -168 OFFCURVE",
"294 -130 OFFCURVE",
"294 -104 QCURVE SMOOTH",
"294 -61 OFFCURVE",
"236 -57 QCURVE",
"249 -12 LINE",
"295 -11 OFFCURVE",
"381 14 OFFCURVE",
"412 32 QCURVE",
"391 85 LINE",
"366 70 OFFCURVE",
"306 50 OFFCURVE",
"279 50 QCURVE SMOOTH",
"205 50 OFFCURVE",
"139 118 OFFCURVE",
"139 187 QCURVE SMOOTH",
"139 243 OFFCURVE",
"165 348 OFFCURVE",
"222 429 OFFCURVE",
"265 449 QCURVE SMOOTH",
"300 465 OFFCURVE",
"343 465 QCURVE SMOOTH",
"369 465 OFFCURVE",
"402 453 OFFCURVE",
"415 445 QCURVE",
"427 437 OFFCURVE",
"431 437 QCURVE SMOOTH",
"436 437 OFFCURVE",
"445 446 OFFCURVE",
"452 458 QCURVE SMOOTH"
);
}
);
userData = {
assembly = "PUSHW[ ]\011/* 2 values pushed */
24 -16 
NPUSHB[ ]\011/* 28 values pushed */
24 60 63 47 79 47 2 47 47 30 60 55 7 106 55 7 114 30 41 106 33 30 48 23 16 106 23 11 
SVTCA[0]\011/* SetFreedomAndProjectionVectorToAxis */
MIAP[1]\011/* MoveIndirectAbsPt */
CALL[ ]\011/* CallFunction */
SHP[1]\011/* ShiftPointByLastPoint */
MDAP[1]\011/* MoveDirectAbsPt */
SHP[1]\011/* ShiftPointByLastPoint */
CALL[ ]\011/* CallFunction */
CALL[ ]\011/* CallFunction */
CALL[ ]\011/* CallFunction */
SRP1[ ]\011/* SetRefPoint1 */
SRP2[ ]\011/* SetRefPoint2 */
IP[ ]\011/* InterpolatePts */
RDTG[ ]\011/* RoundDownToGrid */
MDAP[1]\011/* MoveDirectAbsPt */
DELTAP1[ ]\011/* DeltaExceptionP1 */
SRP2[ ]\011/* SetRefPoint2 */
IP[ ]\011/* InterpolatePts */
SHPIX[ ]\011/* ShiftZoneByPixel */
IUP[0]\011/* InterpolateUntPts */
IUP[1]\011/* InterpolateUntPts */";
};
width = 449;
}
);
leftKerningGroup = c;
note = uni00E7;
rightKerningGroup = c;
unicode = 00E7;
},
{
glyphname = d;
layers = (
{
layerId = "DEC32D14-9EEB-4E31-A016-AD32FECB2E7D";
paths = (
{
closed = 1;
nodes = (
"578 670 LINE",
"579 674 OFFCURVE",
"584 701 OFFCURVE",
"584 709 QCURVE SMOOTH",
"584 718 OFFCURVE",
"574 727 OFFCURVE",
"560 727 QCURVE SMOOTH",
"514 727 LINE",
"475 502 LINE",
"449 511 OFFCURVE",
"379 524 OFFCURVE",
"343 524 QCURVE SMOOTH",
"251 524 OFFCURVE",
"123 423 OFFCURVE",
"60 260 OFFCURVE",
"60 169 QCURVE SMOOTH",
"60 113 OFFCURVE",
"101 31 OFFCURVE",
"176 -12 OFFCURVE",
"227 -12 QCURVE SMOOTH",
"295 -12 OFFCURVE",
"362 35 QCURVE SMOOTH",
"365 37 OFFCURVE",
"380 48 QCURVE SMOOTH",
"394 58 OFFCURVE",
"400 58 QCURVE SMOOTH",
"404 58 OFFCURVE",
"408 52 OFFCURVE",
"408 44 QCURVE SMOOTH",
"408 23 LINE SMOOTH",
"408 11 OFFCURVE",
"418 0 OFFCURVE",
"429 0 QCURVE SMOOTH",
"477 0 LINE",
"477 37 LINE SMOOTH",
"477 68 OFFCURVE",
"481 118 OFFCURVE",
"486 147 QCURVE SMOOTH"
);
},
{
closed = 1;
nodes = (
"414 159 LINE SMOOTH",
"412 149 OFFCURVE",
"407 137 OFFCURVE",
"400 130 QCURVE SMOOTH",
"324 54 OFFCURVE",
"260 54 QCURVE SMOOTH",
"204 54 OFFCURVE",
"141 121 OFFCURVE",
"141 194 QCURVE SMOOTH",
"141 257 OFFCURVE",
"182 378 OFFCURVE",
"268 458 OFFCURVE",
"331 458 QCURVE SMOOTH",
"356 458 OFFCURVE",
"406 448 OFFCURVE",
"444 434 OFFCURVE",
"451 428 QCURVE",
"459 422 OFFCURVE",
"459 415 QCURVE SMOOTH",
"459 413 OFFCURVE",
"455 389 QCURVE SMOOTH"
);
}
);
userData = {
assembly = "NPUSHB[ ]\011/* 20 values pushed */
33 29 17 52 106 25 45 106 25 7 114 4 10 114 29 0 114 17 11 114 
SVTCA[0]\011/* SetFreedomAndProjectionVectorToAxis */
CALL[ ]\011/* CallFunction */
CALL[ ]\011/* CallFunction */
CALL[ ]\011/* CallFunction */
CALL[ ]\011/* CallFunction */
CALL[ ]\011/* CallFunction */
CALL[ ]\011/* CallFunction */
SRP1[ ]\011/* SetRefPoint1 */
SHP[1]\011/* ShiftPointByLastPoint */
IUP[0]\011/* InterpolateUntPts */
IUP[1]\011/* InterpolateUntPts */";
};
width = 557;
}
);
leftKerningGroup = d;
note = uni0064;
unicode = 0064;
},
{
glyphname = eth;
layers = (
{
layerId = "DEC32D14-9EEB-4E31-A016-AD32FECB2E7D";
paths = (
{
closed = 1;
nodes = (
"481 714 LINE",
"454 755 LINE",
"386 708 LINE",
"355 748 LINE",
"303 710 LINE",
"333 671 LINE",
"261 623 LINE",
"288 582 LINE",
"361 634 LINE",
"384 602 OFFCURVE",
"425 532 OFFCURVE",
"435 505 QCURVE",
"417 515 OFFCURVE",
"370 528 OFFCURVE",
"346 528 QCURVE SMOOTH",
"256 528 OFFCURVE",
"126 426 OFFCURVE",
"60 265 OFFCURVE",
"60 178 QCURVE SMOOTH",
"60 85 OFFCURVE",
"159 -12 OFFCURVE",
"258 -12 QCURVE SMOOTH",
"350 -12 OFFCURVE",
"479 83 OFFCURVE",
"544 236 OFFCURVE",
"544 321 QCURVE SMOOTH",
"544 413 OFFCURVE",
"468 595 OFFCURVE",
"415 670 QCURVE"
);
},
{
closed = 1;
nodes = (
"198 49 OFFCURVE",
"140 127 OFFCURVE",
"140 190 QCURVE SMOOTH",
"140 259 OFFCURVE",
"184 386 OFFCURVE",
"275 467 OFFCURVE",
"342 467 QCURVE SMOOTH",
"407 467 OFFCURVE",
"470 392 OFFCURVE",
"470 329 QCURVE SMOOTH",
"470 257 OFFCURVE",
"429 130 OFFCURVE",
"338 49 OFFCURVE",
"268 49 QCURVE SMOOTH"
);
},
{
closed = 1;
nodes = (
"439 727 LINE"
);
}
);
userData = {
assembly = "NPUSHB[ ]\011/* 21 values pushed */
25 19 13 24 43 0 16 1 6 13 35 106 13 7 114 6 42 106 6 11 114 
SVTCA[0]\011/* SetFreedomAndProjectionVectorToAxis */
CALL[ ]\011/* CallFunction */
CALL[ ]\011/* CallFunction */
CALL[ ]\011/* CallFunction */
CALL[ ]\011/* CallFunction */
SRP2[ ]\011/* SetRefPoint2 */
IP[ ]\011/* InterpolatePts */
IP[ ]\011/* InterpolatePts */
MIAP[1]\011/* MoveIndirectAbsPt */
MDRP[00100]\011/* MoveDirectRelPt */
SRP1[ ]\011/* SetRefPoint1 */
IP[ ]\011/* InterpolatePts */
IP[ ]\011/* InterpolatePts */
IUP[0]\011/* InterpolateUntPts */
IUP[1]\011/* InterpolateUntPts */";
};
width = 561;
}
);
note = uni00F0;
unicode = 00F0;
},
{
glyphname = dcroat;
layers = (
{
layerId = "DEC32D14-9EEB-4E31-A016-AD32FECB2E7D";
paths = (
{
closed = 1;
nodes = (
"573 645 LINE",
"578 670 LINE SMOOTH",
"579 675 OFFCURVE",
"582 686 QCURVE",
"584 697 OFFCURVE",
"584 705 QCURVE SMOOTH",
"584 727 OFFCURVE",
"560 727 QCURVE SMOOTH",
"514 727 LINE",
"500 645 LINE",
"338 645 LINE",
"328 592 LINE",
"491 592 LINE",
"475 502 LINE",
"439 515 OFFCURVE",
"394 521 QCURVE SMOOTH",
"370 524 OFFCURVE",
"343 524 QCURVE SMOOTH",
"251 524 OFFCURVE",
"123 423 OFFCURVE",
"60 260 OFFCURVE",
"60 169 QCURVE SMOOTH",
"60 113 OFFCURVE",
"101 31 OFFCURVE",
"176 -12 OFFCURVE",
"227 -12 QCURVE SMOOTH",
"259 -12 OFFCURVE",
"316 7 OFFCURVE",
"336 20 QCURVE",
"356 32 OFFCURVE",
"362 35 QCURVE",
"365 37 OFFCURVE",
"380 48 QCURVE SMOOTH",
"394 58 OFFCURVE",
"400 58 QCURVE SMOOTH",
"404 58 OFFCURVE",
"408 52 OFFCURVE",
"408 44 QCURVE SMOOTH",
"408 23 LINE SMOOTH",
"408 11 OFFCURVE",
"418 0 OFFCURVE",
"429 0 QCURVE SMOOTH",
"477 0 LINE",
"477 37 LINE SMOOTH",
"477 70 OFFCURVE",
"484 135 OFFCURVE",
"492 181 QCURVE SMOOTH",
"564 592 LINE",
"627 592 LINE",
"637 645 LINE"
);
},
{
closed = 1;
nodes = (
"414 159 LINE SMOOTH",
"412 149 OFFCURVE",
"407 137 OFFCURVE",
"400 130 QCURVE SMOOTH",
"324 54 OFFCURVE",
"260 54 QCURVE SMOOTH",
"204 54 OFFCURVE",
"141 121 OFFCURVE",
"141 194 QCURVE SMOOTH",
"141 257 OFFCURVE",
"182 378 OFFCURVE",
"268 458 OFFCURVE",
"331 458 QCURVE SMOOTH",
"369 458 OFFCURVE",
"427 442 OFFCURVE",
"459 421 OFFCURVE",
"459 415 QCURVE SMOOTH",
"459 413 OFFCURVE",
"455 389 QCURVE SMOOTH"
);
}
);
userData = {
assembly = "NPUSHB[ ]\011/* 26 values pushed */
38 49 2 106 39 49 49 32 41 0 114 32 55 106 32 7 114 24 62 106 24 11 114 8 10 114 
SVTCA[0]\011/* SetFreedomAndProjectionVectorToAxis */
CALL[ ]\011/* CallFunction */
CALL[ ]\011/* CallFunction */
CALL[ ]\011/* CallFunction */
CALL[ ]\011/* CallFunction */
CALL[ ]\011/* CallFunction */
CALL[ ]\011/* CallFunction */
SRP1[ ]\011/* SetRefPoint1 */
IP[ ]\011/* InterpolatePts */
MDAP[1]\011/* MoveDirectAbsPt */
SHP[1]\011/* ShiftPointByLastPoint */
CALL[ ]\011/* CallFunction */
SHP[0]\011/* ShiftPointByLastPoint */
IUP[0]\011/* InterpolateUntPts */
IUP[1]\011/* InterpolateUntPts */";
};
width = 557;
}
);
leftKerningGroup = d;
note = uni0111;
unicode = 0111;
},
{
glyphname = e;
layers = (
{
layerId = "DEC32D14-9EEB-4E31-A016-AD32FECB2E7D";
paths = (
{
closed = 1;
nodes = (
"415 103 LINE",
"385 81 OFFCURVE",
"307 50 OFFCURVE",
"269 50 QCURVE SMOOTH",
"210 50 OFFCURVE",
"134 113 OFFCURVE",
"134 187 QCURVE SMOOTH",
"134 205 OFFCURVE",
"135 214 QCURVE",
"157 208 OFFCURVE",
"221 200 OFFCURVE",
"256 200 QCURVE SMOOTH",
"320 200 OFFCURVE",
"436 247 OFFCURVE",
"508 335 OFFCURVE",
"508 394 QCURVE SMOOTH",
"508 435 OFFCURVE",
"466 495 OFFCURVE",
"386 527 OFFCURVE",
"330 527 QCURVE SMOOTH",
"241 527 OFFCURVE",
"117 427 OFFCURVE",
"55 271 OFFCURVE",
"55 187 QCURVE SMOOTH",
"55 123 OFFCURVE",
"100 34 OFFCURVE",
"183 -12 OFFCURVE",
"240 -12 QCURVE SMOOTH",
"299 -12 OFFCURVE",
"404 27 OFFCURVE",
"440 55 QCURVE"
);
},
{
closed = 1;
nodes = (
"152 321 OFFCURVE",
"192 409 OFFCURVE",
"266 469 OFFCURVE",
"319 469 QCURVE SMOOTH",
"374 469 OFFCURVE",
"427 418 OFFCURVE",
"427 378 QCURVE SMOOTH",
"427 337 OFFCURVE",
"379 282 OFFCURVE",
"303 256 OFFCURVE",
"259 256 QCURVE SMOOTH",
"182 256 OFFCURVE",
"143 272 QCURVE"
);
}
);
userData = {
assembly = "NPUSHB[ ]\011/* 18 values pushed */
2 26 106 18 32 106 18 18 2 10 39 106 10 7 114 2 11 114 
SVTCA[0]\011/* SetFreedomAndProjectionVectorToAxis */
CALL[ ]\011/* CallFunction */
CALL[ ]\011/* CallFunction */
CALL[ ]\011/* CallFunction */
SRP2[ ]\011/* SetRefPoint2 */
IP[ ]\011/* InterpolatePts */
MDAP[1]\011/* MoveDirectAbsPt */
CALL[ ]\011/* CallFunction */
CALL[ ]\011/* CallFunction */
IUP[0]\011/* InterpolateUntPts */
IUP[1]\011/* InterpolateUntPts */";
};
width = 498;
}
);
leftKerningGroup = e;
note = uni0065;
rightKerningGroup = ae;
unicode = 0065;
},
{
glyphname = eogonek;
layers = (
{
layerId = "DEC32D14-9EEB-4E31-A016-AD32FECB2E7D";
paths = (
{
closed = 1;
nodes = (
"415 103 LINE",
"385 81 OFFCURVE",
"307 50 OFFCURVE",
"269 50 QCURVE SMOOTH",
"211 50 OFFCURVE",
"134 114 OFFCURVE",
"134 187 QCURVE SMOOTH",
"134 205 OFFCURVE",
"135 214 QCURVE",
"157 208 OFFCURVE",
"221 200 OFFCURVE",
"256 200 QCURVE SMOOTH",
"320 200 OFFCURVE",
"436 247 OFFCURVE",
"508 335 OFFCURVE",
"508 394 QCURVE SMOOTH",
"508 435 OFFCURVE",
"466 495 OFFCURVE",
"386 527 OFFCURVE",
"330 527 QCURVE SMOOTH",
"249 527 OFFCURVE",
"131 443 OFFCURVE",
"64 308 OFFCURVE",
"57 231 QCURVE",
"55 216 OFFCURVE",
"55 187 QCURVE SMOOTH",
"55 123 OFFCURVE",
"100 34 OFFCURVE",
"183 -12 OFFCURVE",
"240 -12 QCURVE SMOOTH",
"266 -12 OFFCURVE",
"296 -5 QCURVE",
"258 -30 OFFCURVE",
"202 -99 OFFCURVE",
"202 -133 QCURVE SMOOTH",
"202 -164 OFFCURVE",
"247 -187 OFFCURVE",
"276 -187 QCURVE SMOOTH",
"307 -187 OFFCURVE",
"345 -178 QCURVE",
"350 -147 LINE",
"350 -140 OFFCURVE",
"341 -132 OFFCURVE",
"334 -132 QCURVE SMOOTH",
"325 -132 OFFCURVE",
"311 -136 QCURVE",
"308 -136 OFFCURVE",
"302 -138 QCURVE",
"296 -139 OFFCURVE",
"291 -139 QCURVE SMOOTH",
"259 -139 OFFCURVE",
"259 -115 QCURVE SMOOTH",
"259 -95 OFFCURVE",
"298 -50 OFFCURVE",
"355 -5 OFFCURVE",
"411 35 QCURVE",
"421 41 OFFCURVE",
"436 52 OFFCURVE",
"440 55 QCURVE"
);
},
{
closed = 1;
nodes = (
"152 321 OFFCURVE",
"192 409 OFFCURVE",
"266 469 OFFCURVE",
"319 469 QCURVE SMOOTH",
"374 469 OFFCURVE",
"427 418 OFFCURVE",
"427 378 QCURVE SMOOTH",
"427 337 OFFCURVE",
"379 282 OFFCURVE",
"303 256 OFFCURVE",
"259 256 QCURVE SMOOTH",
"182 256 OFFCURVE",
"143 272 QCURVE"
);
}
);
userData = {
assembly = "NPUSHB[ ]\011/* 29 values pushed */
46 60 106 46 46 28 38 67 106 38 7 114 3 58 58 57 28 54 106 28 11 114 18 20 8 106 20 14 114 
SVTCA[0]\011/* SetFreedomAndProjectionVectorToAxis */
CALL[ ]\011/* CallFunction */
CALL[ ]\011/* CallFunction */
SHP[1]\011/* ShiftPointByLastPoint */
CALL[ ]\011/* CallFunction */
CALL[ ]\011/* CallFunction */
SHP[0]\011/* ShiftPointByLastPoint */
SHP[1]\011/* ShiftPointByLastPoint */
SRP2[ ]\011/* SetRefPoint2 */
IP[ ]\011/* InterpolatePts */
CALL[ ]\011/* CallFunction */
CALL[ ]\011/* CallFunction */
SRP2[ ]\011/* SetRefPoint2 */
IP[ ]\011/* InterpolatePts */
MDAP[1]\011/* MoveDirectAbsPt */
CALL[ ]\011/* CallFunction */
IUP[0]\011/* InterpolateUntPts */
IUP[1]\011/* InterpolateUntPts */";
};
width = 498;
}
);
leftKerningGroup = e;
note = uni0119;
rightKerningGroup = ae;
unicode = 0119;
},
{
glyphname = schwa;
layers = (
{
layerId = "DEC32D14-9EEB-4E31-A016-AD32FECB2E7D";
paths = (
{
closed = 1;
nodes = (
"60 213 OFFCURVE",
"60 182 QCURVE SMOOTH",
"60 123 OFFCURVE",
"105 36 OFFCURVE",
"194 -12 OFFCURVE",
"258 -12 QCURVE SMOOTH",
"374 -12 OFFCURVE",
"519 126 OFFCURVE",
"542 258 QCURVE SMOOTH",
"549 296 OFFCURVE",
"549 333 QCURVE SMOOTH",
"549 426 OFFCURVE",
"449 528 OFFCURVE",
"353 528 QCURVE SMOOTH",
"310 528 OFFCURVE",
"216 513 OFFCURVE",
"177 503 QCURVE",
"178 450 LINE",
"216 457 OFFCURVE",
"304 467 OFFCURVE",
"342 467 QCURVE SMOOTH",
"470 467 OFFCURVE",
"470 330 QCURVE SMOOTH",
"470 305 OFFCURVE",
"468 291 QCURVE",
"121 291 LINE SMOOTH",
"97 291 OFFCURVE",
"70 270 OFFCURVE",
"66 246 QCURVE SMOOTH"
);
},
{
closed = 1;
nodes = (
"140 49 OFFCURVE",
"140 185 QCURVE SMOOTH",
"140 208 OFFCURVE",
"143 233 QCURVE",
"458 233 LINE",
"416 49 OFFCURVE",
"268 49 QCURVE SMOOTH"
);
}
);
userData = {
assembly = "NPUSHB[ ]\011/* 18 values pushed */
22 35 106 31 2 106 31 31 22 14 7 106 14 7 114 22 11 114 
SVTCA[0]\011/* SetFreedomAndProjectionVectorToAxis */
CALL[ ]\011/* CallFunction */
CALL[ ]\011/* CallFunction */
CALL[ ]\011/* CallFunction */
SRP2[ ]\011/* SetRefPoint2 */
IP[ ]\011/* InterpolatePts */
MDAP[1]\011/* MoveDirectAbsPt */
CALL[ ]\011/* CallFunction */
CALL[ ]\011/* CallFunction */
IUP[0]\011/* InterpolateUntPts */
IUP[1]\011/* InterpolateUntPts */";
};
width = 566;
}
);
note = uni0259;
unicode = 0259;
},
{
glyphname = f;
layers = (
{
layerId = "DEC32D14-9EEB-4E31-A016-AD32FECB2E7D";
paths = (
{
closed = 1;
nodes = (
"146 457 LINE",
"67 -79 LINE SMOOTH",
"59 -123 OFFCURVE",
"29 -166 OFFCURVE",
"0 -166 QCURVE SMOOTH",
"-16 -166 OFFCURVE",
"-49 -153 OFFCURVE",
"-62 -144 QCURVE",
"-86 -195 LINE",
"-67 -207 OFFCURVE",
"-19 -224 OFFCURVE",
"5 -224 QCURVE SMOOTH",
"45 -224 OFFCURVE",
"100 -192 OFFCURVE",
"135 -120 OFFCURVE",
"144 -58 QCURVE SMOOTH",
"221 457 LINE",
"354 457 LINE",
"364 515 LINE",
"229 515 LINE",
"239 582 LINE SMOOTH",
"244 615 OFFCURVE",
"262 657 OFFCURVE",
"300 680 OFFCURVE",
"332 680 QCURVE SMOOTH",
"360 680 OFFCURVE",
"409 667 QCURVE",
"424 723 LINE",
"404 729 OFFCURVE",
"357 737 OFFCURVE",
"336 737 QCURVE SMOOTH",
"260 737 OFFCURVE",
"177 662 OFFCURVE",
"164 577 QCURVE SMOOTH",
"154 515 LINE",
"79 515 LINE",
"69 457 LINE"
);
}
);
userData = {
assembly = "NPUSHB[ ]\011/* 22 values pushed */
9 6 25 32 106 1 0 17 20 106 6 12 106 17 6 114 6 1 114 25 15 114 
SVTCA[0]\011/* SetFreedomAndProjectionVectorToAxis */
CALL[ ]\011/* CallFunction */
CALL[ ]\011/* CallFunction */
CALL[ ]\011/* CallFunction */
CALL[ ]\011/* CallFunction */
CALL[ ]\011/* CallFunction */
SHP[0]\011/* ShiftPointByLastPoint */
SHP[1]\011/* ShiftPointByLastPoint */
CALL[ ]\011/* CallFunction */
SRP1[ ]\011/* SetRefPoint1 */
SHP[1]\011/* ShiftPointByLastPoint */
IUP[0]\011/* InterpolateUntPts */
IUP[1]\011/* InterpolateUntPts */";
};
width = 324;
}
);
leftKerningGroup = f;
note = uni0066;
rightKerningGroup = f;
unicode = 0066;
},
{
glyphname = g;
layers = (
{
layerId = "DEC32D14-9EEB-4E31-A016-AD32FECB2E7D";
paths = (
{
closed = 1;
nodes = (
"540 457 OFFCURVE",
"540 460 QCURVE SMOOTH",
"540 468 OFFCURVE",
"530 478 OFFCURVE",
"519 484 QCURVE SMOOTH",
"486 501 OFFCURVE",
"393 524 OFFCURVE",
"343 524 QCURVE SMOOTH",
"251 524 OFFCURVE",
"123 423 OFFCURVE",
"60 260 OFFCURVE",
"60 169 QCURVE SMOOTH",
"60 113 OFFCURVE",
"101 31 OFFCURVE",
"176 -12 OFFCURVE",
"227 -12 QCURVE SMOOTH",
"268 -12 OFFCURVE",
"331 14 OFFCURVE",
"350 27 QCURVE SMOOTH",
"363 36 OFFCURVE",
"373 45 QCURVE SMOOTH",
"390 60 OFFCURVE",
"395 60 QCURVE SMOOTH",
"400 60 OFFCURVE",
"400 54 QCURVE SMOOTH",
"400 47 OFFCURVE",
"394 6 OFFCURVE",
"386 -40 QCURVE SMOOTH",
"375 -102 OFFCURVE",
"304 -159 OFFCURVE",
"254 -159 QCURVE SMOOTH",
"212 -159 OFFCURVE",
"140 -120 OFFCURVE",
"116 -92 QCURVE",
"68 -140 LINE",
"96 -175 OFFCURVE",
"187 -224 OFFCURVE",
"241 -224 QCURVE SMOOTH",
"333 -224 OFFCURVE",
"448 -131 OFFCURVE",
"463 -22 QCURVE SMOOTH",
"466 5 LINE",
"468 17 OFFCURVE",
"476 73 QCURVE SMOOTH",
"483 128 OFFCURVE",
"494 192 QCURVE SMOOTH",
"515 307 OFFCURVE",
"536 433 QCURVE SMOOTH"
);
},
{
closed = 1;
nodes = (
"414 159 LINE SMOOTH",
"412 149 OFFCURVE",
"407 137 OFFCURVE",
"400 130 QCURVE SMOOTH",
"324 54 OFFCURVE",
"260 54 QCURVE SMOOTH",
"204 54 OFFCURVE",
"141 121 OFFCURVE",
"141 194 QCURVE SMOOTH",
"141 257 OFFCURVE",
"182 378 OFFCURVE",
"268 458 OFFCURVE",
"331 458 QCURVE SMOOTH",
"356 458 OFFCURVE",
"406 448 OFFCURVE",
"444 434 OFFCURVE",
"451 428 QCURVE",
"459 422 OFFCURVE",
"459 415 QCURVE SMOOTH",
"459 413 OFFCURVE",
"455 389 QCURVE SMOOTH"
);
}
);
userData = {
assembly = "NPUSHB[ ]\011/* 21 values pushed */
13 69 16 39 55 106 39 7 114 31 62 106 31 11 114 9 16 106 9 15 114 
SVTCA[0]\011/* SetFreedomAndProjectionVectorToAxis */
CALL[ ]\011/* CallFunction */
CALL[ ]\011/* CallFunction */
CALL[ ]\011/* CallFunction */
CALL[ ]\011/* CallFunction */
CALL[ ]\011/* CallFunction */
CALL[ ]\011/* CallFunction */
SRP1[ ]\011/* SetRefPoint1 */
SRP2[ ]\011/* SetRefPoint2 */
IP[ ]\011/* InterpolatePts */
IUP[0]\011/* InterpolateUntPts */
IUP[1]\011/* InterpolateUntPts */";
};
width = 545;
}
);
leftKerningGroup = g;
note = uni0067;
rightKerningGroup = g;
unicode = 0067;
},
{
glyphname = h;
layers = (
{
layerId = "DEC32D14-9EEB-4E31-A016-AD32FECB2E7D";
paths = (
{
closed = 1;
nodes = (
"238 670 LINE",
"239 674 OFFCURVE",
"244 701 OFFCURVE",
"244 709 QCURVE SMOOTH",
"244 718 OFFCURVE",
"234 727 OFFCURVE",
"220 727 QCURVE SMOOTH",
"174 727 LINE",
"55 51 LINE",
"54 47 OFFCURVE",
"50 25 OFFCURVE",
"50 18 QCURVE SMOOTH",
"50 9 OFFCURVE",
"60 0 OFFCURVE",
"74 0 QCURVE SMOOTH",
"120 0 LINE",
"184 359 LINE SMOOTH",
"186 369 OFFCURVE",
"192 383 OFFCURVE",
"199 390 QCURVE SMOOTH",
"220 411 OFFCURVE",
"302 461 OFFCURVE",
"347 461 QCURVE SMOOTH",
"452 461 OFFCURVE",
"452 382 QCURVE SMOOTH",
"452 365 OFFCURVE",
"445 324 OFFCURVE",
"444 319 QCURVE SMOOTH",
"396 51 LINE",
"395 47 OFFCURVE",
"391 25 OFFCURVE",
"391 18 QCURVE SMOOTH",
"391 9 OFFCURVE",
"401 0 OFFCURVE",
"415 0 QCURVE SMOOTH",
"461 0 LINE",
"525 356 LINE SMOOTH",
"531 390 OFFCURVE",
"531 408 QCURVE SMOOTH",
"531 449 OFFCURVE",
"490 502 OFFCURVE",
"423 527 OFFCURVE",
"381 527 QCURVE SMOOTH",
"331 527 OFFCURVE",
"254 493 OFFCURVE",
"229 475 QCURVE",
"226 473 OFFCURVE",
"222 470 QCURVE SMOOTH",
"218 467 OFFCURVE",
"210 462 OFFCURVE",
"206 462 QCURVE SMOOTH",
"201 462 OFFCURVE",
"201 468 QCURVE SMOOTH",
"201 474 OFFCURVE",
"204 484 QCURVE",
"206 494 OFFCURVE",
"208 505 QCURVE SMOOTH"
);
}
);
userData = {
assembly = "NPUSHB[ ]\011/* 18 values pushed */
21 24 44 41 52 48 13 33 106 13 7 114 48 0 114 41 10 114 
SVTCA[0]\011/* SetFreedomAndProjectionVectorToAxis */
CALL[ ]\011/* CallFunction */
CALL[ ]\011/* CallFunction */
CALL[ ]\011/* CallFunction */
CALL[ ]\011/* CallFunction */
SRP1[ ]\011/* SetRefPoint1 */
SHP[1]\011/* ShiftPointByLastPoint */
SRP1[ ]\011/* SetRefPoint1 */
SHP[1]\011/* ShiftPointByLastPoint */
SHP[1]\011/* ShiftPointByLastPoint */
SHP[1]\011/* ShiftPointByLastPoint */
IUP[0]\011/* InterpolateUntPts */
IUP[1]\011/* InterpolateUntPts */";
};
width = 551;
}
);
leftKerningGroup = b;
note = uni0068;
unicode = 0068;
},
{
glyphname = i;
layers = (
{
layerId = "DEC32D14-9EEB-4E31-A016-AD32FECB2E7D";
paths = (
{
closed = 1;
nodes = (
"145 638 LINE",
"247 638 LINE",
"263 727 LINE",
"161 727 LINE"
);
},
{
closed = 1;
nodes = (
"137 515 LINE",
"56 57 LINE",
"55 53 OFFCURVE",
"50 26 OFFCURVE",
"50 18 QCURVE SMOOTH",
"50 9 OFFCURVE",
"60 0 OFFCURVE",
"74 0 QCURVE SMOOTH",
"120 0 LINE",
"201 458 LINE",
"202 462 OFFCURVE",
"207 489 OFFCURVE",
"207 497 QCURVE SMOOTH",
"207 506 OFFCURVE",
"197 515 OFFCURVE",
"183 515 QCURVE SMOOTH"
);
}
);
userData = {
assembly = "NPUSHB[ ]\011/* 14 values pushed */
15 12 0 3 106 19 6 114 0 0 114 12 10 114 
SVTCA[0]\011/* SetFreedomAndProjectionVectorToAxis */
CALL[ ]\011/* CallFunction */
CALL[ ]\011/* CallFunction */
CALL[ ]\011/* CallFunction */
CALL[ ]\011/* CallFunction */
SRP1[ ]\011/* SetRefPoint1 */
SHP[1]\011/* ShiftPointByLastPoint */
IUP[0]\011/* InterpolateUntPts */
IUP[1]\011/* InterpolateUntPts */";
};
width = 219;
}
);
leftKerningGroup = i;
note = uni0069;
rightKerningGroup = i;
unicode = 0069;
},
{
glyphname = idotless;
layers = (
{
layerId = "DEC32D14-9EEB-4E31-A016-AD32FECB2E7D";
paths = (
{
closed = 1;
nodes = (
"137 515 LINE",
"56 57 LINE",
"55 53 OFFCURVE",
"50 26 OFFCURVE",
"50 18 QCURVE SMOOTH",
"50 9 OFFCURVE",
"60 0 OFFCURVE",
"74 0 QCURVE SMOOTH",
"120 0 LINE",
"201 458 LINE",
"202 462 OFFCURVE",
"207 489 OFFCURVE",
"207 497 QCURVE SMOOTH",
"207 506 OFFCURVE",
"197 515 OFFCURVE",
"183 515 QCURVE SMOOTH"
);
}
);
userData = {
assembly = "NPUSHB[ ]\011/* 9 values pushed */
11 8 3 15 6 114 8 10 114 
SVTCA[0]\011/* SetFreedomAndProjectionVectorToAxis */
CALL[ ]\011/* CallFunction */
CALL[ ]\011/* CallFunction */
SHP[0]\011/* ShiftPointByLastPoint */
SRP1[ ]\011/* SetRefPoint1 */
SHP[1]\011/* ShiftPointByLastPoint */
IUP[0]\011/* InterpolateUntPts */
IUP[1]\011/* InterpolateUntPts */";
};
width = 219;
}
);
leftKerningGroup = i;
note = uni0131;
rightKerningGroup = i;
unicode = 0131;
},
{
glyphname = iogonek;
layers = (
{
layerId = "DEC32D14-9EEB-4E31-A016-AD32FECB2E7D";
paths = (
{
closed = 1;
nodes = (
"145 638 LINE",
"247 638 LINE",
"263 727 LINE",
"161 727 LINE"
);
},
{
closed = 1;
nodes = (
"201 458 LINE",
"202 462 OFFCURVE",
"207 489 OFFCURVE",
"207 497 QCURVE SMOOTH",
"207 506 OFFCURVE",
"197 515 OFFCURVE",
"183 515 QCURVE SMOOTH",
"137 515 LINE",
"56 57 LINE",
"55 53 OFFCURVE",
"50 26 OFFCURVE",
"50 18 QCURVE SMOOTH",
"50 0 OFFCURVE",
"69 0 QCURVE",
"41 -12 OFFCURVE",
"-10 -55 OFFCURVE",
"-43 -108 OFFCURVE",
"-43 -133 QCURVE SMOOTH",
"-43 -164 OFFCURVE",
"2 -187 OFFCURVE",
"31 -187 QCURVE SMOOTH",
"62 -187 OFFCURVE",
"100 -178 QCURVE",
"105 -147 LINE",
"105 -140 OFFCURVE",
"96 -132 OFFCURVE",
"89 -132 QCURVE SMOOTH",
"80 -132 OFFCURVE",
"66 -136 QCURVE",
"63 -136 OFFCURVE",
"57 -138 QCURVE",
"51 -139 OFFCURVE",
"46 -139 QCURVE SMOOTH",
"14 -139 OFFCURVE",
"14 -115 QCURVE SMOOTH",
"14 -96 OFFCURVE",
"49 -51 OFFCURVE",
"99 -12 OFFCURVE",
"120 0 QCURVE"
);
}
);
userData = {
assembly = "NPUSHB[ ]\011/* 20 values pushed */
28 42 10 114 34 6 114 19 21 9 106 21 14 114 0 3 106 0 0 114 
SVTCA[0]\011/* SetFreedomAndProjectionVectorToAxis */
CALL[ ]\011/* CallFunction */
CALL[ ]\011/* CallFunction */
CALL[ ]\011/* CallFunction */
CALL[ ]\011/* CallFunction */
SHP[1]\011/* ShiftPointByLastPoint */
CALL[ ]\011/* CallFunction */
CALL[ ]\011/* CallFunction */
SHP[0]\011/* ShiftPointByLastPoint */
IUP[0]\011/* InterpolateUntPts */
IUP[1]\011/* InterpolateUntPts */";
};
width = 219;
}
);
leftKerningGroup = i;
note = uni012F;
rightKerningGroup = i;
unicode = 012F;
},
{
glyphname = j;
layers = (
{
layerId = "DEC32D14-9EEB-4E31-A016-AD32FECB2E7D";
paths = (
{
closed = 1;
nodes = (
"148 638 LINE",
"250 638 LINE",
"266 727 LINE",
"164 727 LINE"
);
},
{
closed = 1;
nodes = (
"207 458 LINE SMOOTH",
"212 486 OFFCURVE",
"212 497 QCURVE SMOOTH",
"212 506 OFFCURVE",
"202 515 OFFCURVE",
"188 515 QCURVE SMOOTH",
"143 515 LINE",
"53 -79 LINE SMOOTH",
"45 -126 OFFCURVE",
"15 -166 OFFCURVE",
"-14 -166 QCURVE SMOOTH",
"-28 -166 OFFCURVE",
"-60 -159 QCURVE",
"-75 -214 LINE",
"-45 -224 OFFCURVE",
"-7 -224 QCURVE SMOOTH",
"34 -224 OFFCURVE",
"87 -192 OFFCURVE",
"120 -120 OFFCURVE",
"130 -58 QCURVE SMOOTH"
);
}
);
userData = {
assembly = "NPUSHB[ ]\011/* 16 values pushed */
9 7 12 106 0 3 106 16 6 114 0 0 114 7 15 114 
SVTCA[0]\011/* SetFreedomAndProjectionVectorToAxis */
CALL[ ]\011/* CallFunction */
CALL[ ]\011/* CallFunction */
CALL[ ]\011/* CallFunction */
CALL[ ]\011/* CallFunction */
CALL[ ]\011/* CallFunction */
SHP[1]\011/* ShiftPointByLastPoint */
IUP[0]\011/* InterpolateUntPts */
IUP[1]\011/* InterpolateUntPts */";
};
width = 229;
}
);
leftKerningGroup = j;
note = uni006A;
unicode = 006A;
},
{
glyphname = k;
layers = (
{
layerId = "DEC32D14-9EEB-4E31-A016-AD32FECB2E7D";
paths = (
{
closed = 1;
nodes = (
"120 0 LINE",
"163 243 LINE",
"194 250 OFFCURVE",
"248 273 QCURVE",
"376 20 LINE SMOOTH",
"382 8 OFFCURVE",
"393 0 OFFCURVE",
"404 0 QCURVE SMOOTH",
"476 0 LINE",
"316 308 LINE",
"365 343 OFFCURVE",
"439 411 OFFCURVE",
"493 473 OFFCURVE",
"525 515 QCURVE",
"455 515 LINE SMOOTH",
"443 515 OFFCURVE",
"428 507 OFFCURVE",
"419 495 QCURVE SMOOTH",
"372 431 OFFCURVE",
"235 328 OFFCURVE",
"174 310 QCURVE",
"238 670 LINE",
"239 674 OFFCURVE",
"244 701 OFFCURVE",
"244 709 QCURVE SMOOTH",
"244 718 OFFCURVE",
"234 727 OFFCURVE",
"220 727 QCURVE SMOOTH",
"174 727 LINE",
"55 51 LINE",
"54 47 OFFCURVE",
"50 25 OFFCURVE",
"50 18 QCURVE SMOOTH",
"50 9 OFFCURVE",
"60 0 OFFCURVE",
"74 0 QCURVE SMOOTH"
);
}
);
userData = {
assembly = "NPUSHB[ ]\011/* 22 values pushed */
31 25 20 14 33 106 14 14 20 30 27 2 35 10 114 20 6 114 10 6 0 114 
SVTCA[0]\011/* SetFreedomAndProjectionVectorToAxis */
CALL[ ]\011/* CallFunction */
SHP[0]\011/* ShiftPointByLastPoint */
CALL[ ]\011/* CallFunction */
CALL[ ]\011/* CallFunction */
SHP[0]\011/* ShiftPointByLastPoint */
SHP[0]\011/* ShiftPointByLastPoint */
SHP[0]\011/* ShiftPointByLastPoint */
SRP1[ ]\011/* SetRefPoint1 */
IP[ ]\011/* InterpolatePts */
MDAP[1]\011/* MoveDirectAbsPt */
CALL[ ]\011/* CallFunction */
SRP1[ ]\011/* SetRefPoint1 */
IP[ ]\011/* InterpolatePts */
IP[ ]\011/* InterpolatePts */
IUP[0]\011/* InterpolateUntPts */
IUP[1]\011/* InterpolateUntPts */";
};
width = 500;
}
);
leftKerningGroup = b;
note = uni006B;
rightKerningGroup = k;
unicode = 006B;
},
{
glyphname = l;
layers = (
{
layerId = "DEC32D14-9EEB-4E31-A016-AD32FECB2E7D";
paths = (
{
closed = 1;
nodes = (
"163 727 LINE",
"65 148 LINE SMOOTH",
"58 107 OFFCURVE",
"58 78 QCURVE SMOOTH",
"58 35 OFFCURVE",
"106 -7 OFFCURVE",
"151 -7 QCURVE SMOOTH",
"175 -7 OFFCURVE",
"218 3 OFFCURVE",
"233 10 QCURVE",
"223 60 LINE",
"197 51 OFFCURVE",
"179 51 QCURVE SMOOTH",
"155 51 OFFCURVE",
"132 73 OFFCURVE",
"132 97 QCURVE SMOOTH",
"132 111 OFFCURVE",
"141 163 QCURVE SMOOTH",
"174 360 LINE SMOOTH",
"210 576 OFFCURVE",
"227 670 QCURVE",
"228 674 OFFCURVE",
"233 701 OFFCURVE",
"233 709 QCURVE SMOOTH",
"233 718 OFFCURVE",
"223 727 OFFCURVE",
"209 727 QCURVE SMOOTH"
);
}
);
userData = {
assembly = "NPUSHB[ ]\011/* 13 values pushed */
16 19 2 25 19 13 106 25 0 114 19 11 114 
SVTCA[0]\011/* SetFreedomAndProjectionVectorToAxis */
CALL[ ]\011/* CallFunction */
CALL[ ]\011/* CallFunction */
CALL[ ]\011/* CallFunction */
SRP1[ ]\011/* SetRefPoint1 */
SHP[1]\011/* ShiftPointByLastPoint */
SRP1[ ]\011/* SetRefPoint1 */
SHP[1]\011/* ShiftPointByLastPoint */
IUP[0]\011/* InterpolateUntPts */
IUP[1]\011/* InterpolateUntPts */";
};
width = 258;
}
);
leftKerningGroup = b;
note = uni006C;
unicode = 006C;
},
{
glyphname = lslash;
layers = (
{
layerId = "DEC32D14-9EEB-4E31-A016-AD32FECB2E7D";
paths = (
{
closed = 1;
nodes = (
"163 727 LINE",
"105 387 LINE",
"34 346 LINE",
"22 277 LINE",
"94 319 LINE",
"65 148 LINE SMOOTH",
"58 109 OFFCURVE",
"58 78 QCURVE SMOOTH",
"58 35 OFFCURVE",
"106 -7 OFFCURVE",
"151 -7 QCURVE SMOOTH",
"175 -7 OFFCURVE",
"218 3 OFFCURVE",
"233 10 QCURVE",
"223 60 LINE",
"197 51 OFFCURVE",
"179 51 QCURVE SMOOTH",
"155 51 OFFCURVE",
"132 73 OFFCURVE",
"132 97 QCURVE SMOOTH",
"132 123 OFFCURVE",
"174 358 QCURVE",
"234 393 LINE SMOOTH",
"249 402 OFFCURVE",
"259 420 OFFCURVE",
"262 434 QCURVE SMOOTH",
"270 478 LINE",
"186 428 LINE",
"227 670 LINE",
"228 674 OFFCURVE",
"233 701 OFFCURVE",
"233 709 QCURVE SMOOTH",
"233 718 OFFCURVE",
"223 727 OFFCURVE",
"209 727 QCURVE SMOOTH"
);
}
);
userData = {
assembly = "NPUSHB[ ]\011/* 13 values pushed */
13 24 3 34 0 114 21 24 18 106 24 11 114 
SVTCA[0]\011/* SetFreedomAndProjectionVectorToAxis */
CALL[ ]\011/* CallFunction */
CALL[ ]\011/* CallFunction */
SHP[1]\011/* ShiftPointByLastPoint */
CALL[ ]\011/* CallFunction */
SHP[0]\011/* ShiftPointByLastPoint */
SRP2[ ]\011/* SetRefPoint2 */
IP[ ]\011/* InterpolatePts */
IUP[0]\011/* InterpolateUntPts */
IUP[1]\011/* InterpolateUntPts */";
};
width = 258;
}
);
leftKerningGroup = b;
note = uni0142;
unicode = 0142;
},
{
glyphname = m;
layers = (
{
layerId = "DEC32D14-9EEB-4E31-A016-AD32FECB2E7D";
paths = (
{
closed = 1;
nodes = (
"716 57 LINE",
"715 53 OFFCURVE",
"710 26 OFFCURVE",
"710 18 QCURVE SMOOTH",
"710 9 OFFCURVE",
"720 0 OFFCURVE",
"734 0 QCURVE SMOOTH",
"780 0 LINE",
"844 356 LINE SMOOTH",
"850 390 OFFCURVE",
"850 408 QCURVE SMOOTH",
"850 468 OFFCURVE",
"769 527 OFFCURVE",
"707 527 QCURVE SMOOTH",
"662 527 OFFCURVE",
"586 495 OFFCURVE",
"565 480 QCURVE SMOOTH",
"559 476 OFFCURVE",
"551 470 QCURVE SMOOTH",
"542 463 OFFCURVE",
"524 450 OFFCURVE",
"520 450 QCURVE SMOOTH",
"517 450 OFFCURVE",
"512 454 OFFCURVE",
"506 464 OFFCURVE",
"505 466 QCURVE",
"493 488 OFFCURVE",
"435 527 OFFCURVE",
"377 527 QCURVE SMOOTH",
"332 527 OFFCURVE",
"256 495 OFFCURVE",
"235 480 QCURVE SMOOTH",
"231 477 OFFCURVE",
"203 457 OFFCURVE",
"198 457 QCURVE SMOOTH",
"193 457 OFFCURVE",
"189 463 OFFCURVE",
"189 471 QCURVE SMOOTH",
"189 492 LINE SMOOTH",
"189 504 OFFCURVE",
"179 515 OFFCURVE",
"168 515 QCURVE SMOOTH",
"120 515 LINE",
"120 478 LINE SMOOTH",
"120 447 OFFCURVE",
"116 397 OFFCURVE",
"111 368 QCURVE SMOOTH",
"56 57 LINE",
"55 53 OFFCURVE",
"50 26 OFFCURVE",
"50 18 QCURVE SMOOTH",
"50 9 OFFCURVE",
"60 0 OFFCURVE",
"74 0 QCURVE SMOOTH",
"120 0 LINE",
"183 356 LINE SMOOTH",
"185 366 OFFCURVE",
"191 380 OFFCURVE",
"198 387 QCURVE SMOOTH",
"221 410 OFFCURVE",
"300 461 OFFCURVE",
"343 461 QCURVE SMOOTH",
"393 461 OFFCURVE",
"441 422 OFFCURVE",
"441 382 QCURVE SMOOTH",
"441 365 OFFCURVE",
"434 324 OFFCURVE",
"433 319 QCURVE SMOOTH",
"386 57 LINE",
"385 53 OFFCURVE",
"380 26 OFFCURVE",
"380 18 QCURVE SMOOTH",
"380 9 OFFCURVE",
"390 0 OFFCURVE",
"404 0 QCURVE SMOOTH",
"450 0 LINE",
"513 356 LINE SMOOTH",
"515 366 OFFCURVE",
"521 380 OFFCURVE",
"528 387 QCURVE SMOOTH",
"551 410 OFFCURVE",
"630 461 OFFCURVE",
"673 461 QCURVE SMOOTH",
"723 461 OFFCURVE",
"771 422 OFFCURVE",
"771 382 QCURVE SMOOTH",
"771 365 OFFCURVE",
"764 324 OFFCURVE",
"763 319 QCURVE SMOOTH"
);
}
);
userData = {
assembly = "NPUSHB[ ]\011/* 22 values pushed */
13 81 16 37 84 34 74 5 106 74 59 26 106 45 6 114 59 7 114 34 10 114 
SVTCA[0]\011/* SetFreedomAndProjectionVectorToAxis */
CALL[ ]\011/* CallFunction */
CALL[ ]\011/* CallFunction */
CALL[ ]\011/* CallFunction */
CALL[ ]\011/* CallFunction */
SHP[1]\011/* ShiftPointByLastPoint */
CALL[ ]\011/* CallFunction */
SRP1[ ]\011/* SetRefPoint1 */
SHP[1]\011/* ShiftPointByLastPoint */
SHP[1]\011/* ShiftPointByLastPoint */
SHP[1]\011/* ShiftPointByLastPoint */
SHP[1]\011/* ShiftPointByLastPoint */
SHP[1]\011/* ShiftPointByLastPoint */
IUP[0]\011/* InterpolateUntPts */
IUP[1]\011/* InterpolateUntPts */";
};
width = 870;
}
);
leftKerningGroup = m;
note = uni006D;
unicode = 006D;
},
{
glyphname = n;
layers = (
{
layerId = "DEC32D14-9EEB-4E31-A016-AD32FECB2E7D";
paths = (
{
closed = 1;
nodes = (
"120 0 LINE",
"184 359 LINE SMOOTH",
"186 369 OFFCURVE",
"192 383 OFFCURVE",
"199 390 QCURVE SMOOTH",
"220 411 OFFCURVE",
"302 461 OFFCURVE",
"347 461 QCURVE SMOOTH",
"452 461 OFFCURVE",
"452 382 QCURVE SMOOTH",
"452 363 OFFCURVE",
"448 341 QCURVE SMOOTH",
"444 319 OFFCURVE",
"444 316 QCURVE",
"397 57 LINE",
"396 53 OFFCURVE",
"391 26 OFFCURVE",
"391 18 QCURVE SMOOTH",
"391 9 OFFCURVE",
"401 0 OFFCURVE",
"415 0 QCURVE SMOOTH",
"461 0 LINE",
"525 356 LINE SMOOTH",
"531 390 OFFCURVE",
"531 408 QCURVE SMOOTH",
"531 449 OFFCURVE",
"490 502 OFFCURVE",
"423 527 OFFCURVE",
"381 527 QCURVE SMOOTH",
"333 527 OFFCURVE",
"257 495 OFFCURVE",
"235 480 QCURVE",
"231 477 OFFCURVE",
"203 457 OFFCURVE",
"198 457 QCURVE SMOOTH",
"193 457 OFFCURVE",
"189 463 OFFCURVE",
"189 471 QCURVE SMOOTH",
"189 492 LINE SMOOTH",
"189 504 OFFCURVE",
"179 515 OFFCURVE",
"168 515 QCURVE SMOOTH",
"120 515 LINE",
"120 478 LINE SMOOTH",
"120 422 OFFCURVE",
"111 368 QCURVE SMOOTH",
"56 57 LINE",
"55 53 OFFCURVE",
"50 26 OFFCURVE",
"50 18 QCURVE SMOOTH",
"50 9 OFFCURVE",
"60 0 OFFCURVE",
"74 0 QCURVE SMOOTH"
);
}
);
userData = {
assembly = "NPUSHB[ ]\011/* 16 values pushed */
31 2 34 52 23 44 106 9 6 114 23 7 114 52 10 114 
SVTCA[0]\011/* SetFreedomAndProjectionVectorToAxis */
CALL[ ]\011/* CallFunction */
CALL[ ]\011/* CallFunction */
CALL[ ]\011/* CallFunction */
CALL[ ]\011/* CallFunction */
SRP1[ ]\011/* SetRefPoint1 */
SHP[1]\011/* ShiftPointByLastPoint */
SHP[1]\011/* ShiftPointByLastPoint */
SHP[1]\011/* ShiftPointByLastPoint */
IUP[0]\011/* InterpolateUntPts */
IUP[1]\011/* InterpolateUntPts */";
};
width = 551;
}
);
leftKerningGroup = n;
note = uni006E;
rightKerningGroup = n;
unicode = 006E;
},
{
glyphname = o;
layers = (
{
layerId = "DEC32D14-9EEB-4E31-A016-AD32FECB2E7D";
paths = (
{
closed = 1;
nodes = (
"363 -12 OFFCURVE",
"494 99 OFFCURVE",
"549 262 OFFCURVE",
"549 344 QCURVE SMOOTH",
"549 435 OFFCURVE",
"450 528 OFFCURVE",
"353 528 QCURVE SMOOTH",
"247 528 OFFCURVE",
"116 417 OFFCURVE",
"61 254 OFFCURVE",
"61 172 QCURVE SMOOTH",
"61 81 OFFCURVE",
"160 -12 OFFCURVE",
"257 -12 QCURVE SMOOTH"
);
},
{
closed = 1;
nodes = (
"402 467 OFFCURVE",
"470 399 OFFCURVE",
"470 336 QCURVE SMOOTH",
"470 282 OFFCURVE",
"439 152 OFFCURVE",
"351 49 OFFCURVE",
"273 49 QCURVE SMOOTH",
"208 49 OFFCURVE",
"140 117 OFFCURVE",
"140 180 QCURVE SMOOTH",
"140 234 OFFCURVE",
"171 364 OFFCURVE",
"259 467 OFFCURVE",
"337 467 QCURVE SMOOTH"
);
}
);
userData = {
assembly = "NPUSHB[ ]\011/* 12 values pushed */
13 20 106 6 27 106 6 7 114 13 11 114 
SVTCA[0]\011/* SetFreedomAndProjectionVectorToAxis */
CALL[ ]\011/* CallFunction */
CALL[ ]\011/* CallFunction */
CALL[ ]\011/* CallFunction */
CALL[ ]\011/* CallFunction */
IUP[0]\011/* InterpolateUntPts */
IUP[1]\011/* InterpolateUntPts */";
};
width = 566;
}
);
leftKerningGroup = o;
note = uni006F;
rightKerningGroup = o;
unicode = 006F;
},
{
glyphname = ohorn;
layers = (
{
layerId = "DEC32D14-9EEB-4E31-A016-AD32FECB2E7D";
paths = (
{
closed = 1;
nodes = (
"363 -12 OFFCURVE",
"494 99 OFFCURVE",
"549 262 OFFCURVE",
"549 344 QCURVE SMOOTH",
"549 389 OFFCURVE",
"537 422 QCURVE",
"546 422 LINE SMOOTH",
"587 422 OFFCURVE",
"647 464 OFFCURVE",
"677 533 OFFCURVE",
"677 572 QCURVE SMOOTH",
"677 589 OFFCURVE",
"664 607 OFFCURVE",
"649 607 QCURVE SMOOTH",
"642 607 OFFCURVE",
"628 604 QCURVE SMOOTH",
"594 597 LINE",
"597 578 OFFCURVE",
"597 557 QCURVE SMOOTH",
"597 520 OFFCURVE",
"570 471 OFFCURVE",
"538 471 QCURVE SMOOTH",
"525 471 OFFCURVE",
"507 478 OFFCURVE",
"496 486 QCURVE",
"484 494 OFFCURVE",
"476 499 QCURVE SMOOTH",
"427 528 OFFCURVE",
"353 528 QCURVE SMOOTH",
"247 528 OFFCURVE",
"116 417 OFFCURVE",
"61 254 OFFCURVE",
"61 172 QCURVE SMOOTH",
"61 81 OFFCURVE",
"160 -12 OFFCURVE",
"257 -12 QCURVE SMOOTH"
);
},
{
closed = 1;
nodes = (
"402 467 OFFCURVE",
"470 399 OFFCURVE",
"470 336 QCURVE SMOOTH",
"470 282 OFFCURVE",
"439 152 OFFCURVE",
"351 49 OFFCURVE",
"273 49 QCURVE SMOOTH",
"208 49 OFFCURVE",
"140 117 OFFCURVE",
"140 180 QCURVE SMOOTH",
"140 234 OFFCURVE",
"171 364 OFFCURVE",
"259 467 OFFCURVE",
"337 467 QCURVE SMOOTH"
);
}
);
userData = {
assembly = "NPUSHB[ ]\011/* 16 values pushed */
29 13 6 35 42 106 35 11 114 6 49 106 21 6 7 114 
SVTCA[0]\011/* SetFreedomAndProjectionVectorToAxis */
CALL[ ]\011/* CallFunction */
MDRP[00100]\011/* MoveDirectRelPt */
CALL[ ]\011/* CallFunction */
CALL[ ]\011/* CallFunction */
CALL[ ]\011/* CallFunction */
SRP2[ ]\011/* SetRefPoint2 */
IP[ ]\011/* InterpolatePts */
IP[ ]\011/* InterpolatePts */
IUP[0]\011/* InterpolateUntPts */
IUP[1]\011/* InterpolateUntPts */";
};
width = 585;
}
);
leftKerningGroup = o;
note = uni01A1;
unicode = 01A1;
},
{
glyphname = oslash;
layers = (
{
layerId = "DEC32D14-9EEB-4E31-A016-AD32FECB2E7D";
paths = (
{
closed = 1;
nodes = (
"363 -12 OFFCURVE",
"494 99 OFFCURVE",
"549 262 OFFCURVE",
"549 344 QCURVE SMOOTH",
"549 435 OFFCURVE",
"450 528 OFFCURVE",
"353 528 QCURVE SMOOTH",
"247 528 OFFCURVE",
"116 417 OFFCURVE",
"61 254 OFFCURVE",
"61 172 QCURVE SMOOTH",
"61 81 OFFCURVE",
"160 -12 OFFCURVE",
"257 -12 QCURVE SMOOTH"
);
},
{
closed = 1;
nodes = (
"397 467 OFFCURVE",
"428 445 QCURVE",
"157 96 LINE",
"140 124 OFFCURVE",
"140 180 QCURVE SMOOTH",
"140 234 OFFCURVE",
"171 364 OFFCURVE",
"259 467 OFFCURVE",
"337 467 QCURVE SMOOTH"
);
},
{
closed = 1;
nodes = (
"217 49 OFFCURVE",
"187 66 QCURVE",
"456 413 LINE",
"470 382 OFFCURVE",
"470 336 QCURVE SMOOTH",
"470 282 OFFCURVE",
"439 152 OFFCURVE",
"351 49 OFFCURVE",
"273 49 QCURVE SMOOTH"
);
}
);
userData = {
assembly = "NPUSHB[ ]\011/* 15 values pushed */
28 19 22 13 31 106 13 11 114 6 22 106 6 7 114 
SVTCA[0]\011/* SetFreedomAndProjectionVectorToAxis */
CALL[ ]\011/* CallFunction */
CALL[ ]\011/* CallFunction */
CALL[ ]\011/* CallFunction */
CALL[ ]\011/* CallFunction */
SRP1[ ]\011/* SetRefPoint1 */
IP[ ]\011/* InterpolatePts */
IP[ ]\011/* InterpolatePts */
IUP[0]\011/* InterpolateUntPts */
IUP[1]\011/* InterpolateUntPts */";
};
width = 566;
}
);
leftKerningGroup = o;
note = uni00F8;
rightKerningGroup = o;
unicode = 00F8;
},
{
glyphname = oe;
layers = (
{
layerId = "DEC32D14-9EEB-4E31-A016-AD32FECB2E7D";
paths = (
{
closed = 1;
nodes = (
"712 200 OFFCURVE",
"828 247 OFFCURVE",
"900 335 OFFCURVE",
"900 394 QCURVE SMOOTH",
"900 435 OFFCURVE",
"858 495 OFFCURVE",
"778 527 OFFCURVE",
"722 527 QCURVE SMOOTH",
"669 527 OFFCURVE",
"588 486 OFFCURVE",
"554 452 QCURVE",
"548 445 OFFCURVE",
"537 438 OFFCURVE",
"532 438 QCURVE SMOOTH",
"527 438 OFFCURVE",
"519 445 OFFCURVE",
"514 453 QCURVE SMOOTH",
"464 528 OFFCURVE",
"353 528 QCURVE SMOOTH",
"258 528 OFFCURVE",
"126 428 OFFCURVE",
"61 268 OFFCURVE",
"61 180 QCURVE SMOOTH",
"61 86 OFFCURVE",
"161 -12 OFFCURVE",
"258 -12 QCURVE SMOOTH",
"313 -12 OFFCURVE",
"400 28 OFFCURVE",
"439 64 QCURVE",
"446 71 OFFCURVE",
"460 79 OFFCURVE",
"464 79 QCURVE SMOOTH",
"473 79 OFFCURVE",
"483 64 QCURVE SMOOTH",
"507 28 OFFCURVE",
"593 -12 OFFCURVE",
"651 -12 QCURVE SMOOTH",
"696 -12 OFFCURVE",
"791 16 OFFCURVE",
"829 36 QCURVE",
"808 86 LINE",
"778 71 OFFCURVE",
"707 50 OFFCURVE",
"675 50 QCURVE SMOOTH",
"525 50 OFFCURVE",
"525 186 QCURVE SMOOTH",
"525 204 OFFCURVE",
"526 214 QCURVE",
"548 208 OFFCURVE",
"613 200 OFFCURVE",
"648 200 QCURVE SMOOTH"
);
},
{
closed = 1;
nodes = (
"544 321 OFFCURVE",
"584 409 OFFCURVE",
"658 469 OFFCURVE",
"711 469 QCURVE SMOOTH",
"766 469 OFFCURVE",
"819 418 OFFCURVE",
"819 378 QCURVE SMOOTH",
"819 337 OFFCURVE",
"771 282 OFFCURVE",
"695 256 OFFCURVE",
"651 256 QCURVE SMOOTH",
"574 256 OFFCURVE",
"535 272 QCURVE"
);
},
{
closed = 1;
nodes = (
"140 49 OFFCURVE",
"140 187 QCURVE SMOOTH",
"140 256 OFFCURVE",
"183 384 OFFCURVE",
"275 467 OFFCURVE",
"342 467 QCURVE SMOOTH",
"470 467 OFFCURVE",
"470 330 QCURVE SMOOTH",
"470 261 OFFCURVE",
"427 132 OFFCURVE",
"336 49 OFFCURVE",
"268 49 QCURVE SMOOTH"
);
}
);
userData = {
assembly = "NPUSHB[ ]\011/* 29 values pushed */
24 75 106 13 6 106 13 24 50 52 106 50 50 24 31 69 106 42 59 106 42 42 24 31 7 114 24 11 114 
SVTCA[0]\011/* SetFreedomAndProjectionVectorToAxis */
CALL[ ]\011/* CallFunction */
CALL[ ]\011/* CallFunction */
SRP1[ ]\011/* SetRefPoint1 */
IP[ ]\011/* InterpolatePts */
MDAP[1]\011/* MoveDirectAbsPt */
CALL[ ]\011/* CallFunction */
CALL[ ]\011/* CallFunction */
SRP2[ ]\011/* SetRefPoint2 */
IP[ ]\011/* InterpolatePts */
MDAP[1]\011/* MoveDirectAbsPt */
CALL[ ]\011/* CallFunction */
SRP1[ ]\011/* SetRefPoint1 */
SHP[1]\011/* ShiftPointByLastPoint */
CALL[ ]\011/* CallFunction */
CALL[ ]\011/* CallFunction */
IUP[0]\011/* InterpolateUntPts */
IUP[1]\011/* InterpolateUntPts */";
};
width = 888;
}
);
leftKerningGroup = o;
note = uni0153;
rightKerningGroup = ae;
unicode = 0153;
},
{
glyphname = p;
layers = (
{
layerId = "DEC32D14-9EEB-4E31-A016-AD32FECB2E7D";
paths = (
{
closed = 1;
nodes = (
"26 -121 LINE",
"25 -125 OFFCURVE",
"20 -152 OFFCURVE",
"20 -160 QCURVE SMOOTH",
"20 -169 OFFCURVE",
"30 -178 OFFCURVE",
"44 -178 QCURVE SMOOTH",
"90 -178 LINE",
"123 10 LINE",
"149 1 OFFCURVE",
"219 -12 OFFCURVE",
"255 -12 QCURVE SMOOTH",
"347 -12 OFFCURVE",
"475 89 OFFCURVE",
"538 252 OFFCURVE",
"538 343 QCURVE SMOOTH",
"538 399 OFFCURVE",
"497 481 OFFCURVE",
"422 524 OFFCURVE",
"371 524 QCURVE SMOOTH",
"303 524 OFFCURVE",
"236 477 QCURVE SMOOTH",
"233 475 OFFCURVE",
"219 465 QCURVE SMOOTH",
"204 454 OFFCURVE",
"198 454 QCURVE SMOOTH",
"194 454 OFFCURVE",
"190 460 OFFCURVE",
"190 468 QCURVE SMOOTH",
"190 492 LINE SMOOTH",
"190 504 OFFCURVE",
"180 515 OFFCURVE",
"169 515 QCURVE SMOOTH",
"121 515 LINE",
"121 478 LINE SMOOTH",
"121 422 OFFCURVE",
"112 368 QCURVE SMOOTH"
);
},
{
closed = 1;
nodes = (
"184 353 LINE SMOOTH",
"186 363 OFFCURVE",
"191 375 OFFCURVE",
"198 382 QCURVE SMOOTH",
"274 458 OFFCURVE",
"338 458 QCURVE SMOOTH",
"394 458 OFFCURVE",
"457 391 OFFCURVE",
"457 318 QCURVE SMOOTH",
"457 255 OFFCURVE",
"416 134 OFFCURVE",
"330 54 OFFCURVE",
"267 54 QCURVE SMOOTH",
"242 54 OFFCURVE",
"192 64 OFFCURVE",
"154 78 OFFCURVE",
"147 84 QCURVE",
"139 90 OFFCURVE",
"139 97 QCURVE SMOOTH",
"139 99 OFFCURVE",
"143 123 QCURVE SMOOTH"
);
}
);
userData = {
assembly = "NPUSHB[ ]\011/* 20 values pushed */
32 29 24 44 106 16 51 106 24 11 114 2 6 114 16 7 114 29 14 114 
SVTCA[0]\011/* SetFreedomAndProjectionVectorToAxis */
CALL[ ]\011/* CallFunction */
CALL[ ]\011/* CallFunction */
CALL[ ]\011/* CallFunction */
CALL[ ]\011/* CallFunction */
CALL[ ]\011/* CallFunction */
CALL[ ]\011/* CallFunction */
SRP1[ ]\011/* SetRefPoint1 */
SHP[1]\011/* ShiftPointByLastPoint */
IUP[0]\011/* InterpolateUntPts */
IUP[1]\011/* InterpolateUntPts */";
};
width = 550;
}
);
leftKerningGroup = p;
note = uni0070;
rightKerningGroup = p;
unicode = 0070;
},
{
glyphname = thorn;
layers = (
{
layerId = "DEC32D14-9EEB-4E31-A016-AD32FECB2E7D";
paths = (
{
closed = 1;
nodes = (
"535 399 OFFCURVE",
"494 481 OFFCURVE",
"419 524 OFFCURVE",
"368 524 QCURVE SMOOTH",
"321 524 OFFCURVE",
"255 494 OFFCURVE",
"234 478 QCURVE",
"228 474 OFFCURVE",
"222 469 QCURVE",
"216 463 OFFCURVE",
"204 454 OFFCURVE",
"201 454 QCURVE SMOOTH",
"196 454 OFFCURVE",
"196 460 QCURVE SMOOTH",
"196 464 OFFCURVE",
"200 476 QCURVE",
"203 488 OFFCURVE",
"206 503 QCURVE SMOOTH",
"238 676 LINE",
"239 680 OFFCURVE",
"243 702 OFFCURVE",
"243 709 QCURVE SMOOTH",
"243 718 OFFCURVE",
"233 727 OFFCURVE",
"219 727 QCURVE SMOOTH",
"173 727 LINE",
"85 229 LINE",
"22 -127 LINE",
"21 -131 OFFCURVE",
"17 -153 OFFCURVE",
"17 -160 QCURVE SMOOTH",
"17 -169 OFFCURVE",
"27 -178 OFFCURVE",
"41 -178 QCURVE SMOOTH",
"87 -178 LINE",
"120 13 LINE",
"146 4 OFFCURVE",
"216 -9 OFFCURVE",
"252 -9 QCURVE SMOOTH",
"344 -9 OFFCURVE",
"472 92 OFFCURVE",
"535 253 OFFCURVE",
"535 343 QCURVE SMOOTH"
);
},
{
closed = 1;
nodes = (
"181 353 LINE SMOOTH",
"183 363 OFFCURVE",
"188 375 OFFCURVE",
"195 382 QCURVE SMOOTH",
"271 458 OFFCURVE",
"335 458 QCURVE SMOOTH",
"391 458 OFFCURVE",
"454 391 OFFCURVE",
"454 318 QCURVE SMOOTH",
"454 255 OFFCURVE",
"413 134 OFFCURVE",
"327 54 OFFCURVE",
"264 54 QCURVE SMOOTH",
"226 54 OFFCURVE",
"168 70 OFFCURVE",
"136 91 OFFCURVE",
"136 97 QCURVE SMOOTH",
"136 99 OFFCURVE",
"140 123 QCURVE SMOOTH"
);
}
);
userData = {
assembly = "NPUSHB[ ]\011/* 22 values pushed */
11 8 20 16 3 48 106 38 55 106 38 7 114 3 11 114 16 0 114 8 14 114 
SVTCA[0]\011/* SetFreedomAndProjectionVectorToAxis */
CALL[ ]\011/* CallFunction */
CALL[ ]\011/* CallFunction */
CALL[ ]\011/* CallFunction */
CALL[ ]\011/* CallFunction */
CALL[ ]\011/* CallFunction */
CALL[ ]\011/* CallFunction */
SRP1[ ]\011/* SetRefPoint1 */
SHP[1]\011/* ShiftPointByLastPoint */
SRP1[ ]\011/* SetRefPoint1 */
SHP[1]\011/* ShiftPointByLastPoint */
IUP[0]\011/* InterpolateUntPts */
IUP[1]\011/* InterpolateUntPts */";
};
width = 547;
}
);
leftKerningGroup = b;
note = uni00FE;
rightKerningGroup = b;
unicode = 00FE;
},
{
glyphname = q;
layers = (
{
layerId = "DEC32D14-9EEB-4E31-A016-AD32FECB2E7D";
paths = (
{
closed = 1;
nodes = (
"486 501 OFFCURVE",
"393 524 OFFCURVE",
"343 524 QCURVE SMOOTH",
"251 524 OFFCURVE",
"123 423 OFFCURVE",
"60 260 OFFCURVE",
"60 169 QCURVE SMOOTH",
"60 113 OFFCURVE",
"101 31 OFFCURVE",
"176 -12 OFFCURVE",
"227 -12 QCURVE SMOOTH",
"300 -12 OFFCURVE",
"363 35 QCURVE",
"369 40 OFFCURVE",
"375 46 QCURVE",
"381 51 OFFCURVE",
"392 60 OFFCURVE",
"395 60 QCURVE SMOOTH",
"400 60 OFFCURVE",
"400 54 QCURVE SMOOTH",
"400 50 OFFCURVE",
"396 37 QCURVE SMOOTH",
"392 24 OFFCURVE",
"389 9 QCURVE SMOOTH",
"365 -121 LINE",
"364 -125 OFFCURVE",
"359 -152 OFFCURVE",
"359 -160 QCURVE SMOOTH",
"359 -169 OFFCURVE",
"369 -178 OFFCURVE",
"383 -178 QCURVE SMOOTH",
"429 -178 LINE",
"536 433 LINE SMOOTH",
"540 457 OFFCURVE",
"540 460 QCURVE SMOOTH",
"540 468 OFFCURVE",
"530 478 OFFCURVE",
"519 484 QCURVE SMOOTH"
);
},
{
closed = 1;
nodes = (
"414 159 LINE SMOOTH",
"412 149 OFFCURVE",
"407 137 OFFCURVE",
"400 130 QCURVE SMOOTH",
"324 54 OFFCURVE",
"260 54 QCURVE SMOOTH",
"204 54 OFFCURVE",
"141 121 OFFCURVE",
"141 194 QCURVE SMOOTH",
"141 257 OFFCURVE",
"182 378 OFFCURVE",
"268 458 OFFCURVE",
"331 458 QCURVE SMOOTH",
"356 458 OFFCURVE",
"406 448 OFFCURVE",
"444 434 OFFCURVE",
"451 428 QCURVE",
"459 422 OFFCURVE",
"459 415 QCURVE SMOOTH",
"459 413 OFFCURVE",
"455 389 QCURVE SMOOTH"
);
}
);
userData = {
assembly = "NPUSHB[ ]\011/* 17 values pushed */
9 6 26 52 106 34 45 106 26 11 114 34 7 114 6 14 114 
SVTCA[0]\011/* SetFreedomAndProjectionVectorToAxis */
CALL[ ]\011/* CallFunction */
CALL[ ]\011/* CallFunction */
CALL[ ]\011/* CallFunction */
CALL[ ]\011/* CallFunction */
CALL[ ]\011/* CallFunction */
SRP1[ ]\011/* SetRefPoint1 */
SHP[1]\011/* ShiftPointByLastPoint */
IUP[0]\011/* InterpolateUntPts */
IUP[1]\011/* InterpolateUntPts */";
};
width = 545;
}
);
leftKerningGroup = q;
note = uni0071;
unicode = 0071;
},
{
glyphname = r;
layers = (
{
layerId = "DEC32D14-9EEB-4E31-A016-AD32FECB2E7D";
paths = (
{
closed = 1;
nodes = (
"56 57 LINE",
"55 53 OFFCURVE",
"50 26 OFFCURVE",
"50 18 QCURVE SMOOTH",
"50 9 OFFCURVE",
"60 0 OFFCURVE",
"74 0 QCURVE SMOOTH",
"120 0 LINE",
"184 360 LINE SMOOTH",
"186 371 OFFCURVE",
"192 384 OFFCURVE",
"199 391 QCURVE SMOOTH",
"208 400 OFFCURVE",
"247 424 OFFCURVE",
"304 444 OFFCURVE",
"334 444 QCURVE SMOOTH",
"351 444 OFFCURVE",
"373 438 QCURVE",
"386 523 LINE",
"368 524 LINE",
"330 524 OFFCURVE",
"255 491 OFFCURVE",
"235 477 QCURVE SMOOTH",
"231 474 OFFCURVE",
"218 465 OFFCURVE",
"201 454 OFFCURVE",
"197 454 QCURVE SMOOTH",
"193 454 OFFCURVE",
"189 460 OFFCURVE",
"189 468 QCURVE SMOOTH",
"189 492 LINE SMOOTH",
"189 504 OFFCURVE",
"179 515 OFFCURVE",
"168 515 QCURVE SMOOTH",
"120 515 LINE",
"120 478 LINE SMOOTH",
"120 422 OFFCURVE",
"111 368 QCURVE SMOOTH"
);
}
);
userData = {
assembly = "NPUSHB[ ]\011/* 14 values pushed */
33 30 17 21 106 2 6 114 17 7 114 30 10 114 
SVTCA[0]\011/* SetFreedomAndProjectionVectorToAxis */
CALL[ ]\011/* CallFunction */
CALL[ ]\011/* CallFunction */
CALL[ ]\011/* CallFunction */
CALL[ ]\011/* CallFunction */
SRP1[ ]\011/* SetRefPoint1 */
SHP[1]\011/* ShiftPointByLastPoint */
IUP[0]\011/* InterpolateUntPts */
IUP[1]\011/* InterpolateUntPts */";
};
width = 342;
}
);
leftKerningGroup = r;
note = uni0072;
rightKerningGroup = r;
unicode = 0072;
},
{
glyphname = s;
layers = (
{
layerId = "DEC32D14-9EEB-4E31-A016-AD32FECB2E7D";
paths = (
{
closed = 1;
nodes = (
"24 33 LINE",
"57 14 OFFCURVE",
"146 -12 OFFCURVE",
"192 -12 QCURVE SMOOTH",
"256 -12 OFFCURVE",
"345 29 OFFCURVE",
"390 98 OFFCURVE",
"390 141 QCURVE SMOOTH",
"390 179 OFFCURVE",
"359 229 OFFCURVE",
"309 262 OFFCURVE",
"257 289 QCURVE SMOOTH",
"228 304 LINE SMOOTH",
"193 322 OFFCURVE",
"159 356 OFFCURVE",
"159 382 QCURVE SMOOTH",
"159 400 OFFCURVE",
"176 431 OFFCURVE",
"191 442 QCURVE SMOOTH",
"206 453 OFFCURVE",
"246 464 OFFCURVE",
"268 464 QCURVE SMOOTH",
"293 464 OFFCURVE",
"334 449 OFFCURVE",
"351 440 QCURVE",
"368 430 OFFCURVE",
"370 430 QCURVE SMOOTH",
"374 430 OFFCURVE",
"383 441 OFFCURVE",
"389 451 QCURVE SMOOTH",
"415 497 LINE",
"387 508 OFFCURVE",
"313 524 OFFCURVE",
"277 524 QCURVE SMOOTH",
"215 524 OFFCURVE",
"126 482 OFFCURVE",
"79 412 OFFCURVE",
"79 371 QCURVE SMOOTH",
"79 350 OFFCURVE",
"84 332 QCURVE",
"91 310 OFFCURVE",
"121 277 OFFCURVE",
"163 250 OFFCURVE",
"199 232 QCURVE",
"206 228 OFFCURVE",
"220 222 QCURVE",
"253 205 OFFCURVE",
"288 184 OFFCURVE",
"309 151 OFFCURVE",
"309 127 QCURVE SMOOTH",
"309 87 OFFCURVE",
"244 50 OFFCURVE",
"193 50 QCURVE SMOOTH",
"156 50 OFFCURVE",
"81 74 OFFCURVE",
"53 91 QCURVE"
);
}
);
userData = {
assembly = "NPUSHB[ ]\011/* 17 values pushed */
13 51 33 45 21 51 2 106 51 11 114 21 33 106 21 7 114 
SVTCA[0]\011/* SetFreedomAndProjectionVectorToAxis */
CALL[ ]\011/* CallFunction */
CALL[ ]\011/* CallFunction */
CALL[ ]\011/* CallFunction */
CALL[ ]\011/* CallFunction */
SRP1[ ]\011/* SetRefPoint1 */
IP[ ]\011/* InterpolatePts */
SRP1[ ]\011/* SetRefPoint1 */
SRP2[ ]\011/* SetRefPoint2 */
IP[ ]\011/* InterpolatePts */
IUP[0]\011/* InterpolateUntPts */
IUP[1]\011/* InterpolateUntPts */";
};
width = 425;
}
);
leftKerningGroup = s;
note = uni0073;
rightKerningGroup = s;
unicode = 0073;
},
{
glyphname = scedilla;
layers = (
{
layerId = "DEC32D14-9EEB-4E31-A016-AD32FECB2E7D";
paths = (
{
closed = 1;
nodes = (
"228 304 LINE SMOOTH",
"193 322 OFFCURVE",
"159 356 OFFCURVE",
"159 382 QCURVE SMOOTH",
"159 400 OFFCURVE",
"176 431 OFFCURVE",
"191 442 QCURVE SMOOTH",
"206 453 OFFCURVE",
"246 464 OFFCURVE",
"268 464 QCURVE SMOOTH",
"293 464 OFFCURVE",
"334 449 OFFCURVE",
"351 440 QCURVE",
"368 430 OFFCURVE",
"370 430 QCURVE SMOOTH",
"374 430 OFFCURVE",
"383 441 OFFCURVE",
"389 451 QCURVE SMOOTH",
"415 497 LINE",
"387 508 OFFCURVE",
"313 524 OFFCURVE",
"277 524 QCURVE SMOOTH",
"215 524 OFFCURVE",
"126 482 OFFCURVE",
"79 412 OFFCURVE",
"79 371 QCURVE SMOOTH",
"79 350 OFFCURVE",
"84 332 QCURVE",
"91 310 OFFCURVE",
"121 277 OFFCURVE",
"163 250 OFFCURVE",
"199 232 QCURVE",
"206 228 OFFCURVE",
"220 222 QCURVE",
"253 205 OFFCURVE",
"288 184 OFFCURVE",
"309 151 OFFCURVE",
"309 127 QCURVE SMOOTH",
"309 87 OFFCURVE",
"244 50 OFFCURVE",
"193 50 QCURVE SMOOTH",
"156 50 OFFCURVE",
"81 74 OFFCURVE",
"53 91 QCURVE",
"24 33 LINE",
"56 15 OFFCURVE",
"141 -11 OFFCURVE",
"186 -12 QCURVE",
"162 -94 LINE",
"180 -94 LINE SMOOTH",
"219 -94 OFFCURVE",
"219 -115 QCURVE SMOOTH",
"219 -128 OFFCURVE",
"196 -143 OFFCURVE",
"177 -143 QCURVE SMOOTH",
"168 -143 OFFCURVE",
"154 -138 QCURVE SMOOTH",
"139 -133 OFFCURVE",
"135 -133 QCURVE SMOOTH",
"127 -133 OFFCURVE",
"118 -141 OFFCURVE",
"114 -151 QCURVE",
"103 -175 LINE",
"115 -180 OFFCURVE",
"148 -187 OFFCURVE",
"166 -187 QCURVE SMOOTH",
"190 -187 OFFCURVE",
"242 -168 OFFCURVE",
"277 -130 OFFCURVE",
"277 -104 QCURVE SMOOTH",
"277 -61 OFFCURVE",
"219 -57 QCURVE",
"233 -10 LINE",
"284 -4 OFFCURVE",
"355 39 OFFCURVE",
"390 103 OFFCURVE",
"390 141 QCURVE SMOOTH",
"390 179 OFFCURVE",
"359 229 OFFCURVE",
"309 262 OFFCURVE",
"257 289 QCURVE SMOOTH"
);
}
);
userData = {
assembly = "PUSHW[ ]\011/* 2 values pushed */
9 -16 
NPUSHB[ ]\011/* 33 values pushed */
9 81 63 32 79 32 2 32 32 15 81 51 33 59 71 106 2 40 59 7 114 33 40 106 8 33 11 114 15 26 106 18 15 
SVTCA[0]\011/* SetFreedomAndProjectionVectorToAxis */
MDAP[1]\011/* MoveDirectAbsPt */
SHP[1]\011/* ShiftPointByLastPoint */
CALL[ ]\011/* CallFunction */
CALL[ ]\011/* CallFunction */
SHP[0]\011/* ShiftPointByLastPoint */
CALL[ ]\011/* CallFunction */
CALL[ ]\011/* CallFunction */
SRP1[ ]\011/* SetRefPoint1 */
IP[ ]\011/* InterpolatePts */
CALL[ ]\011/* CallFunction */
SRP1[ ]\011/* SetRefPoint1 */
IP[ ]\011/* InterpolatePts */
SRP1[ ]\011/* SetRefPoint1 */
SRP2[ ]\011/* SetRefPoint2 */
IP[ ]\011/* InterpolatePts */
RDTG[ ]\011/* RoundDownToGrid */
MDAP[1]\011/* MoveDirectAbsPt */
DELTAP1[ ]\011/* DeltaExceptionP1 */
SRP2[ ]\011/* SetRefPoint2 */
IP[ ]\011/* InterpolatePts */
SHPIX[ ]\011/* ShiftZoneByPixel */
IUP[0]\011/* InterpolateUntPts */
IUP[1]\011/* InterpolateUntPts */";
};
width = 425;
}
);
leftKerningGroup = s;
note = uni015F;
rightKerningGroup = s;
unicode = 015F;
},
{
glyphname = germandbls;
layers = (
{
layerId = "DEC32D14-9EEB-4E31-A016-AD32FECB2E7D";
paths = (
{
closed = 1;
nodes = (
"69 457 LINE",
"145 457 LINE",
"64 -80 LINE SMOOTH",
"58 -122 OFFCURVE",
"26 -166 OFFCURVE",
"-3 -166 QCURVE SMOOTH",
"-16 -166 OFFCURVE",
"-49 -159 QCURVE",
"-64 -214 LINE",
"-33 -224 OFFCURVE",
"4 -224 QCURVE SMOOTH",
"44 -224 OFFCURVE",
"98 -192 OFFCURVE",
"131 -120 OFFCURVE",
"141 -58 QCURVE SMOOTH",
"228 512 LINE SMOOTH",
"235 560 OFFCURVE",
"270 630 OFFCURVE",
"343 672 OFFCURVE",
"404 672 QCURVE SMOOTH",
"463 672 OFFCURVE",
"516 612 OFFCURVE",
"516 562 QCURVE SMOOTH",
"516 528 OFFCURVE",
"490 465 OFFCURVE",
"465 435 QCURVE SMOOTH",
"453 421 OFFCURVE",
"430 409 OFFCURVE",
"405 409 QCURVE SMOOTH",
"312 409 LINE",
"300 345 LINE",
"386 345 LINE SMOOTH",
"408 345 OFFCURVE",
"430 341 OFFCURVE",
"445 329 OFFCURVE",
"453 316 QCURVE SMOOTH",
"460 305 OFFCURVE",
"470 255 OFFCURVE",
"470 232 QCURVE SMOOTH",
"470 153 OFFCURVE",
"399 55 OFFCURVE",
"307 55 QCURVE SMOOTH",
"285 55 OFFCURVE",
"237 64 OFFCURVE",
"217 70 QCURVE",
"199 9 LINE",
"223 3 OFFCURVE",
"277 -6 OFFCURVE",
"300 -6 QCURVE SMOOTH",
"434 -6 OFFCURVE",
"551 132 OFFCURVE",
"551 242 QCURVE SMOOTH",
"551 280 OFFCURVE",
"531 334 OFFCURVE",
"518 347 QCURVE",
"507 357 OFFCURVE",
"491 365 QCURVE",
"483 370 OFFCURVE",
"476 376 OFFCURVE",
"476 381 QCURVE SMOOTH",
"476 386 OFFCURVE",
"482 393 OFFCURVE",
"489 397 QCURVE",
"495 401 OFFCURVE",
"498 403 QCURVE SMOOTH",
"545 436 OFFCURVE",
"591 530 OFFCURVE",
"591 582 QCURVE SMOOTH",
"591 649 OFFCURVE",
"507 734 OFFCURVE",
"416 734 QCURVE SMOOTH",
"193 734 OFFCURVE",
"156 527 QCURVE SMOOTH",
"154 515 LINE",
"79 515 LINE"
);
}
);
userData = {
assembly = "NPUSHB[ ]\011/* 32 values pushed */
15 45 44 106 45 45 4 64 69 106 66 64 15 114 26 33 106 26 10 114 4 55 106 4 1 114 0 74 106 0 6 114 
SVTCA[0]\011/* SetFreedomAndProjectionVectorToAxis */
CALL[ ]\011/* CallFunction */
CALL[ ]\011/* CallFunction */
CALL[ ]\011/* CallFunction */
CALL[ ]\011/* CallFunction */
CALL[ ]\011/* CallFunction */
CALL[ ]\011/* CallFunction */
CALL[ ]\011/* CallFunction */
SHP[0]\011/* ShiftPointByLastPoint */
CALL[ ]\011/* CallFunction */
SRP2[ ]\011/* SetRefPoint2 */
IP[ ]\011/* InterpolatePts */
MDAP[1]\011/* MoveDirectAbsPt */
CALL[ ]\011/* CallFunction */
IP[ ]\011/* InterpolatePts */
IUP[0]\011/* InterpolateUntPts */
IUP[1]\011/* InterpolateUntPts */";
};
width = 576;
}
);
note = uni00DF;
unicode = 00DF;
},
{
glyphname = t;
layers = (
{
layerId = "DEC32D14-9EEB-4E31-A016-AD32FECB2E7D";
paths = (
{
closed = 1;
nodes = (
"283 66 LINE",
"268 60 OFFCURVE",
"234 51 OFFCURVE",
"220 51 QCURVE SMOOTH",
"189 51 OFFCURVE",
"157 80 OFFCURVE",
"157 111 QCURVE SMOOTH",
"157 132 OFFCURVE",
"193 329 OFFCURVE",
"219 457 QCURVE",
"357 457 LINE",
"367 515 LINE",
"229 515 LINE",
"253 649 LINE",
"175 627 LINE",
"155 515 LINE",
"80 515 LINE",
"70 457 LINE",
"145 457 LINE",
"119 331 OFFCURVE",
"82 126 OFFCURVE",
"82 93 QCURVE SMOOTH",
"82 43 OFFCURVE",
"137 -7 OFFCURVE",
"194 -7 QCURVE SMOOTH",
"223 -7 OFFCURVE",
"277 8 OFFCURVE",
"297 18 QCURVE"
);
}
);
userData = {
assembly = "NPUSHB[ ]\011/* 17 values pushed */
9 14 17 106 14 13 106 10 14 6 114 2 23 106 2 11 114 
SVTCA[0]\011/* SetFreedomAndProjectionVectorToAxis */
CALL[ ]\011/* CallFunction */
CALL[ ]\011/* CallFunction */
CALL[ ]\011/* CallFunction */
SHP[0]\011/* ShiftPointByLastPoint */
CALL[ ]\011/* CallFunction */
CALL[ ]\011/* CallFunction */
SHP[0]\011/* ShiftPointByLastPoint */
IUP[0]\011/* InterpolateUntPts */
IUP[1]\011/* InterpolateUntPts */";
};
width = 339;
}
);
leftKerningGroup = t;
note = uni0074;
rightKerningGroup = t;
unicode = 0074;
},
{
glyphname = u;
layers = (
{
layerId = "DEC32D14-9EEB-4E31-A016-AD32FECB2E7D";
paths = (
{
closed = 1;
nodes = (
"198 458 LINE",
"199 462 OFFCURVE",
"204 489 OFFCURVE",
"204 497 QCURVE SMOOTH",
"204 506 OFFCURVE",
"194 515 OFFCURVE",
"180 515 QCURVE SMOOTH",
"134 515 LINE",
"77 191 LINE SMOOTH",
"69 150 OFFCURVE",
"67 132 QCURVE SMOOTH",
"65 114 OFFCURVE",
"65 107 QCURVE SMOOTH",
"65 47 OFFCURVE",
"149 -12 OFFCURVE",
"213 -12 QCURVE SMOOTH",
"284 -12 OFFCURVE",
"354 35 QCURVE",
"358 38 OFFCURVE",
"386 58 OFFCURVE",
"391 58 QCURVE SMOOTH",
"396 58 OFFCURVE",
"400 52 OFFCURVE",
"400 44 QCURVE SMOOTH",
"400 23 LINE SMOOTH",
"400 11 OFFCURVE",
"410 0 OFFCURVE",
"421 0 QCURVE SMOOTH",
"469 0 LINE",
"469 37 LINE SMOOTH",
"469 71 OFFCURVE",
"476 135 OFFCURVE",
"484 182 QCURVE SMOOTH",
"533 458 LINE",
"534 462 OFFCURVE",
"539 489 OFFCURVE",
"539 497 QCURVE SMOOTH",
"539 506 OFFCURVE",
"529 515 OFFCURVE",
"515 515 QCURVE SMOOTH",
"469 515 LINE",
"411 189 LINE SMOOTH",
"410 182 OFFCURVE",
"409 170 QCURVE",
"407 157 OFFCURVE",
"399 134 OFFCURVE",
"390 125 QCURVE SMOOTH",
"368 103 OFFCURVE",
"290 54 OFFCURVE",
"247 54 QCURVE SMOOTH",
"194 54 OFFCURVE",
"144 93 OFFCURVE",
"144 133 QCURVE SMOOTH",
"144 150 OFFCURVE",
"151 191 OFFCURVE",
"152 196 QCURVE SMOOTH"
);
}
);
userData = {
assembly = "NPUSHB[ ]\011/* 16 values pushed */
18 51 15 47 39 5 106 27 10 114 47 6 114 39 11 114 
SVTCA[0]\011/* SetFreedomAndProjectionVectorToAxis */
CALL[ ]\011/* CallFunction */
CALL[ ]\011/* CallFunction */
CALL[ ]\011/* CallFunction */
CALL[ ]\011/* CallFunction */
SRP1[ ]\011/* SetRefPoint1 */
SHP[1]\011/* ShiftPointByLastPoint */
SHP[1]\011/* ShiftPointByLastPoint */
SHP[1]\011/* ShiftPointByLastPoint */
IUP[0]\011/* InterpolateUntPts */
IUP[1]\011/* InterpolateUntPts */";
};
width = 549;
}
);
leftKerningGroup = u;
note = uni0075;
unicode = 0075;
},
{
glyphname = uhorn;
layers = (
{
layerId = "DEC32D14-9EEB-4E31-A016-AD32FECB2E7D";
paths = (
{
closed = 1;
nodes = (
"198 458 LINE",
"199 462 OFFCURVE",
"204 489 OFFCURVE",
"204 497 QCURVE SMOOTH",
"204 506 OFFCURVE",
"194 515 OFFCURVE",
"180 515 QCURVE SMOOTH",
"134 515 LINE",
"77 191 LINE",
"73 169 LINE SMOOTH",
"72 163 OFFCURVE",
"70 154 QCURVE SMOOTH",
"68 145 OFFCURVE",
"67 132 QCURVE SMOOTH",
"65 114 OFFCURVE",
"65 107 QCURVE SMOOTH",
"65 47 OFFCURVE",
"149 -12 OFFCURVE",
"213 -12 QCURVE SMOOTH",
"284 -12 OFFCURVE",
"354 35 QCURVE",
"358 38 OFFCURVE",
"386 58 OFFCURVE",
"391 58 QCURVE SMOOTH",
"396 58 OFFCURVE",
"400 52 OFFCURVE",
"400 44 QCURVE SMOOTH",
"400 23 LINE SMOOTH",
"400 11 OFFCURVE",
"410 0 OFFCURVE",
"421 0 QCURVE SMOOTH",
"469 0 LINE",
"469 37 LINE SMOOTH",
"469 71 OFFCURVE",
"476 135 OFFCURVE",
"484 182 QCURVE SMOOTH",
"534 466 LINE",
"609 468 OFFCURVE",
"694 545 OFFCURVE",
"694 616 QCURVE SMOOTH",
"694 633 OFFCURVE",
"681 651 OFFCURVE",
"666 651 QCURVE SMOOTH",
"659 651 OFFCURVE",
"645 648 QCURVE SMOOTH",
"610 641 LINE",
"613 621 OFFCURVE",
"613 598 QCURVE SMOOTH",
"613 515 OFFCURVE",
"535 515 QCURVE SMOOTH",
"469 515 LINE",
"411 189 LINE SMOOTH",
"410 182 OFFCURVE",
"409 170 QCURVE",
"407 157 OFFCURVE",
"399 134 OFFCURVE",
"390 125 QCURVE SMOOTH",
"368 103 OFFCURVE",
"290 54 OFFCURVE",
"247 54 QCURVE SMOOTH",
"194 54 OFFCURVE",
"144 93 OFFCURVE",
"144 133 QCURVE SMOOTH",
"144 150 OFFCURVE",
"151 191 OFFCURVE",
"152 196 QCURVE SMOOTH"
);
}
);
userData = {
assembly = "NPUSHB[ ]\011/* 16 values pushed */
28 14 14 22 57 6 114 46 5 106 46 11 114 34 10 114 
SVTCA[0]\011/* SetFreedomAndProjectionVectorToAxis */
CALL[ ]\011/* CallFunction */
CALL[ ]\011/* CallFunction */
CALL[ ]\011/* CallFunction */
CALL[ ]\011/* CallFunction */
MDRP[00100]\011/* MoveDirectRelPt */
SHP[1]\011/* ShiftPointByLastPoint */
SRP1[ ]\011/* SetRefPoint1 */
SHP[1]\011/* ShiftPointByLastPoint */
IUP[0]\011/* InterpolateUntPts */
IUP[1]\011/* InterpolateUntPts */";
};
width = 575;
}
);
leftKerningGroup = u;
note = uni01B0;
unicode = 01B0;
},
{
glyphname = uogonek;
layers = (
{
layerId = "DEC32D14-9EEB-4E31-A016-AD32FECB2E7D";
paths = (
{
closed = 1;
nodes = (
"390 -13 OFFCURVE",
"338 -56 OFFCURVE",
"306 -108 OFFCURVE",
"306 -133 QCURVE SMOOTH",
"306 -164 OFFCURVE",
"351 -187 OFFCURVE",
"380 -187 QCURVE SMOOTH",
"411 -187 OFFCURVE",
"449 -178 QCURVE",
"454 -147 LINE",
"454 -140 OFFCURVE",
"445 -132 OFFCURVE",
"438 -132 QCURVE SMOOTH",
"429 -132 OFFCURVE",
"415 -136 QCURVE",
"412 -136 OFFCURVE",
"406 -138 QCURVE",
"400 -139 OFFCURVE",
"395 -139 QCURVE SMOOTH",
"363 -139 OFFCURVE",
"363 -115 QCURVE SMOOTH",
"363 -96 OFFCURVE",
"398 -51 OFFCURVE",
"448 -12 OFFCURVE",
"469 0 QCURVE",
"469 37 LINE SMOOTH",
"469 86 OFFCURVE",
"488 213 OFFCURVE",
"510 332 QCURVE SMOOTH",
"533 458 LINE",
"534 462 OFFCURVE",
"539 489 OFFCURVE",
"539 497 QCURVE SMOOTH",
"539 506 OFFCURVE",
"529 515 OFFCURVE",
"515 515 QCURVE SMOOTH",
"469 515 LINE",
"411 189 LINE SMOOTH",
"410 182 OFFCURVE",
"409 170 QCURVE",
"407 157 OFFCURVE",
"399 134 OFFCURVE",
"390 125 QCURVE SMOOTH",
"368 103 OFFCURVE",
"290 54 OFFCURVE",
"247 54 QCURVE SMOOTH",
"194 54 OFFCURVE",
"144 93 OFFCURVE",
"144 133 QCURVE SMOOTH",
"144 150 OFFCURVE",
"151 191 OFFCURVE",
"152 196 QCURVE SMOOTH",
"198 458 LINE",
"199 462 OFFCURVE",
"204 489 OFFCURVE",
"204 497 QCURVE SMOOTH",
"204 506 OFFCURVE",
"194 515 OFFCURVE",
"180 515 QCURVE SMOOTH",
"134 515 LINE",
"82 224 LINE",
"71 159 LINE SMOOTH",
"65 125 OFFCURVE",
"65 107 QCURVE SMOOTH",
"65 55 OFFCURVE",
"128 -3 OFFCURVE",
"180 -10 QCURVE",
"202 -12 OFFCURVE",
"213 -12 QCURVE SMOOTH",
"284 -12 OFFCURVE",
"354 35 QCURVE",
"358 38 OFFCURVE",
"386 58 OFFCURVE",
"391 58 QCURVE SMOOTH",
"396 58 OFFCURVE",
"400 49 OFFCURVE",
"400 40 QCURVE SMOOTH",
"400 28 LINE SMOOTH",
"400 15 OFFCURVE",
"407 0 OFFCURVE",
"418 0 QCURVE"
);
}
);
userData = {
assembly = "NPUSHB[ ]\011/* 23 values pushed */
71 73 61 106 73 14 114 80 55 10 114 47 44 24 20 6 114 11 34 106 11 11 114 
SVTCA[0]\011/* SetFreedomAndProjectionVectorToAxis */
CALL[ ]\011/* CallFunction */
CALL[ ]\011/* CallFunction */
CALL[ ]\011/* CallFunction */
SHP[0]\011/* ShiftPointByLastPoint */
SHP[0]\011/* ShiftPointByLastPoint */
SHP[0]\011/* ShiftPointByLastPoint */
CALL[ ]\011/* CallFunction */
SHP[0]\011/* ShiftPointByLastPoint */
CALL[ ]\011/* CallFunction */
CALL[ ]\011/* CallFunction */
SHP[1]\011/* ShiftPointByLastPoint */
IUP[0]\011/* InterpolateUntPts */
IUP[1]\011/* InterpolateUntPts */";
};
width = 549;
}
);
leftKerningGroup = u;
note = uni0173;
unicode = 0173;
},
{
glyphname = v;
layers = (
{
layerId = "DEC32D14-9EEB-4E31-A016-AD32FECB2E7D";
paths = (
{
closed = 1;
nodes = (
"222 0 LINE",
"332 115 OFFCURVE",
"483 379 OFFCURVE",
"504 515 QCURVE",
"450 515 LINE SMOOTH",
"438 515 OFFCURVE",
"424 506 OFFCURVE",
"421 494 QCURVE SMOOTH",
"401 405 OFFCURVE",
"339 262 OFFCURVE",
"254 134 OFFCURVE",
"188 53 QCURVE",
"159 494 LINE SMOOTH",
"158 506 OFFCURVE",
"149 515 OFFCURVE",
"138 515 QCURVE SMOOTH",
"80 515 LINE",
"120 21 LINE SMOOTH",
"121 9 OFFCURVE",
"130 0 OFFCURVE",
"141 0 QCURVE SMOOTH"
);
}
);
userData = {
assembly = "PUSHB[ ]\011/* 8 values pushed */
8 20 10 114 16 3 6 114 
SVTCA[0]\011/* SetFreedomAndProjectionVectorToAxis */
CALL[ ]\011/* CallFunction */
SHP[0]\011/* ShiftPointByLastPoint */
CALL[ ]\011/* CallFunction */
SHP[0]\011/* ShiftPointByLastPoint */
IUP[0]\011/* InterpolateUntPts */
IUP[1]\011/* InterpolateUntPts */";
};
width = 472;
}
);
leftKerningGroup = v;
note = uni0076;
rightKerningGroup = v;
unicode = 0076;
},
{
glyphname = w;
layers = (
{
layerId = "DEC32D14-9EEB-4E31-A016-AD32FECB2E7D";
paths = (
{
closed = 1;
nodes = (
"584 0 LINE",
"771 235 OFFCURVE",
"816 515 QCURVE",
"762 515 LINE SMOOTH",
"737 515 OFFCURVE",
"733 494 QCURVE SMOOTH",
"716 395 OFFCURVE",
"622 159 OFFCURVE",
"546 53 QCURVE",
"510 494 LINE SMOOTH",
"509 506 OFFCURVE",
"500 515 OFFCURVE",
"489 515 QCURVE SMOOTH",
"395 515 LINE",
"374 401 OFFCURVE",
"280 160 OFFCURVE",
"202 53 QCURVE",
"161 494 LINE SMOOTH",
"160 506 OFFCURVE",
"151 515 OFFCURVE",
"140 515 QCURVE SMOOTH",
"80 515 LINE",
"133 21 LINE SMOOTH",
"134 9 OFFCURVE",
"143 0 OFFCURVE",
"154 0 QCURVE SMOOTH",
"240 0 LINE",
"342 134 OFFCURVE",
"434 351 OFFCURVE",
"445 460 QCURVE",
"477 21 LINE SMOOTH",
"478 9 OFFCURVE",
"487 0 OFFCURVE",
"498 0 QCURVE SMOOTH"
);
}
);
userData = {
assembly = "NPUSHB[ ]\011/* 14 values pushed */
3 20 20 30 11 6 114 24 16 16 33 7 10 114 
SVTCA[0]\011/* SetFreedomAndProjectionVectorToAxis */
CALL[ ]\011/* CallFunction */
SHP[0]\011/* ShiftPointByLastPoint */
SHP[0]\011/* ShiftPointByLastPoint */
SRP1[ ]\011/* SetRefPoint1 */
SHP[1]\011/* ShiftPointByLastPoint */
CALL[ ]\011/* CallFunction */
SHP[0]\011/* ShiftPointByLastPoint */
SHP[0]\011/* ShiftPointByLastPoint */
SRP1[ ]\011/* SetRefPoint1 */
SHP[1]\011/* ShiftPointByLastPoint */
IUP[0]\011/* InterpolateUntPts */
IUP[1]\011/* InterpolateUntPts */";
};
width = 784;
}
);
leftKerningGroup = w;
note = uni0077;
rightKerningGroup = w;
unicode = 0077;
},
{
glyphname = x;
layers = (
{
layerId = "DEC32D14-9EEB-4E31-A016-AD32FECB2E7D";
paths = (
{
closed = 1;
nodes = (
"455 0 LINE",
"313 257 LINE",
"534 515 LINE",
"465 515 LINE SMOOTH",
"454 515 OFFCURVE",
"439 507 OFFCURVE",
"429 495 QCURVE SMOOTH",
"277 309 LINE",
"184 495 LINE SMOOTH",
"178 507 OFFCURVE",
"167 515 OFFCURVE",
"156 515 QCURVE SMOOTH",
"88 515 LINE",
"221 258 LINE",
"-1 0 LINE",
"66 0 LINE SMOOTH",
"77 0 OFFCURVE",
"91 8 OFFCURVE",
"101 20 QCURVE SMOOTH",
"257 203 LINE",
"357 20 LINE",
"363 8 OFFCURVE",
"375 0 OFFCURVE",
"386 0 QCURVE SMOOTH"
);
}
);
userData = {
assembly = "NPUSHB[ ]\011/* 11 values pushed */
15 3 23 20 10 6 114 23 8 10 114 
SVTCA[0]\011/* SetFreedomAndProjectionVectorToAxis */
CALL[ ]\011/* CallFunction */
SHP[0]\011/* ShiftPointByLastPoint */
CALL[ ]\011/* CallFunction */
SHP[0]\011/* ShiftPointByLastPoint */
SRP2[ ]\011/* SetRefPoint2 */
IP[ ]\011/* InterpolatePts */
IP[ ]\011/* InterpolatePts */
IUP[0]\011/* InterpolateUntPts */
IUP[1]\011/* InterpolateUntPts */";
};
width = 491;
}
);
leftKerningGroup = x;
note = uni0078;
rightKerningGroup = x;
unicode = 0078;
},
{
glyphname = y;
layers = (
{
layerId = "DEC32D14-9EEB-4E31-A016-AD32FECB2E7D";
paths = (
{
closed = 1;
nodes = (
"262 -12 OFFCURVE",
"328 14 OFFCURVE",
"347 27 QCURVE SMOOTH",
"354 32 OFFCURVE",
"360 37 QCURVE SMOOTH",
"365 41 OFFCURVE",
"370 45 QCURVE",
"372 47 OFFCURVE",
"380 53 OFFCURVE",
"390 60 OFFCURVE",
"392 60 QCURVE SMOOTH",
"397 60 OFFCURVE",
"397 54 QCURVE SMOOTH",
"397 47 OFFCURVE",
"391 6 OFFCURVE",
"383 -40 QCURVE SMOOTH",
"372 -102 OFFCURVE",
"301 -159 OFFCURVE",
"251 -159 QCURVE SMOOTH",
"209 -159 OFFCURVE",
"137 -120 OFFCURVE",
"113 -92 QCURVE",
"65 -140 LINE",
"93 -175 OFFCURVE",
"184 -224 OFFCURVE",
"238 -224 QCURVE SMOOTH",
"330 -224 OFFCURVE",
"445 -131 OFFCURVE",
"460 -22 QCURVE SMOOTH",
"463 5 LINE",
"465 17 OFFCURVE",
"473 73 QCURVE SMOOTH",
"480 128 OFFCURVE",
"491 192 QCURVE SMOOTH",
"538 458 LINE",
"539 462 OFFCURVE",
"544 489 OFFCURVE",
"544 497 QCURVE SMOOTH",
"544 506 OFFCURVE",
"534 515 OFFCURVE",
"520 515 QCURVE SMOOTH",
"474 515 LINE",
"410 156 LINE SMOOTH",
"408 146 OFFCURVE",
"402 132 OFFCURVE",
"395 125 QCURVE SMOOTH",
"373 103 OFFCURVE",
"295 54 OFFCURVE",
"252 54 QCURVE SMOOTH",
"199 54 OFFCURVE",
"149 94 OFFCURVE",
"149 133 QCURVE SMOOTH",
"149 150 OFFCURVE",
"156 191 OFFCURVE",
"157 196 QCURVE SMOOTH",
"203 458 LINE",
"204 462 OFFCURVE",
"209 489 OFFCURVE",
"209 497 QCURVE SMOOTH",
"209 506 OFFCURVE",
"199 515 OFFCURVE",
"185 515 QCURVE SMOOTH",
"139 515 LINE",
"76 159 LINE SMOOTH",
"70 125 OFFCURVE",
"70 107 QCURVE SMOOTH",
"70 47 OFFCURVE",
"154 -12 OFFCURVE",
"218 -12 QCURVE SMOOTH"
);
}
);
userData = {
assembly = "NPUSHB[ ]\011/* 19 values pushed */
46 69 49 68 19 106 68 11 114 42 49 106 42 15 114 27 5 6 114 
SVTCA[0]\011/* SetFreedomAndProjectionVectorToAxis */
CALL[ ]\011/* CallFunction */
SHP[0]\011/* ShiftPointByLastPoint */
CALL[ ]\011/* CallFunction */
CALL[ ]\011/* CallFunction */
CALL[ ]\011/* CallFunction */
CALL[ ]\011/* CallFunction */
SRP1[ ]\011/* SetRefPoint1 */
SRP2[ ]\011/* SetRefPoint2 */
IP[ ]\011/* InterpolatePts */
IUP[0]\011/* InterpolateUntPts */
IUP[1]\011/* InterpolateUntPts */";
};
width = 549;
}
);
leftKerningGroup = y;
note = uni0079;
unicode = 0079;
},
{
glyphname = ydotbelow;
layers = (
{
layerId = "DEC32D14-9EEB-4E31-A016-AD32FECB2E7D";
paths = (
{
closed = 1;
nodes = (
"196 -159 LINE",
"184 -224 LINE",
"229 -224 LINE SMOOTH",
"279 -224 OFFCURVE",
"368 -201 OFFCURVE",
"448 -112 OFFCURVE",
"460 -22 QCURVE SMOOTH",
"463 5 LINE",
"465 17 OFFCURVE",
"473 73 QCURVE SMOOTH",
"480 128 OFFCURVE",
"491 192 QCURVE SMOOTH",
"538 458 LINE",
"539 462 OFFCURVE",
"544 489 OFFCURVE",
"544 497 QCURVE SMOOTH",
"544 506 OFFCURVE",
"534 515 OFFCURVE",
"520 515 QCURVE SMOOTH",
"474 515 LINE",
"410 156 LINE SMOOTH",
"408 146 OFFCURVE",
"402 132 OFFCURVE",
"395 125 QCURVE SMOOTH",
"373 103 OFFCURVE",
"295 54 OFFCURVE",
"252 54 QCURVE SMOOTH",
"199 54 OFFCURVE",
"149 94 OFFCURVE",
"149 133 QCURVE SMOOTH",
"149 150 OFFCURVE",
"156 191 OFFCURVE",
"157 196 QCURVE SMOOTH",
"203 458 LINE",
"204 462 OFFCURVE",
"209 489 OFFCURVE",
"209 497 QCURVE SMOOTH",
"209 506 OFFCURVE",
"199 515 OFFCURVE",
"185 515 QCURVE SMOOTH",
"139 515 LINE",
"76 159 LINE SMOOTH",
"70 125 OFFCURVE",
"70 107 QCURVE SMOOTH",
"70 47 OFFCURVE",
"154 -12 OFFCURVE",
"218 -12 QCURVE SMOOTH",
"262 -12 OFFCURVE",
"328 14 OFFCURVE",
"347 27 QCURVE SMOOTH",
"354 32 OFFCURVE",
"360 37 QCURVE SMOOTH",
"365 41 OFFCURVE",
"370 45 QCURVE",
"372 47 OFFCURVE",
"380 53 OFFCURVE",
"390 60 OFFCURVE",
"392 60 QCURVE SMOOTH",
"397 60 OFFCURVE",
"397 54 QCURVE SMOOTH",
"397 46 OFFCURVE",
"384 -36 QCURVE SMOOTH",
"371 -104 OFFCURVE",
"301 -159 OFFCURVE",
"241 -159 QCURVE SMOOTH"
);
},
{
closed = 1;
nodes = (
"9 -224 LINE",
"106 -224 LINE",
"122 -135 LINE",
"25 -135 LINE"
);
}
);
userData = {
assembly = "NPUSHB[ ]\011/* 23 values pushed */
28 49 46 24 63 64 106 63 68 65 106 18 38 106 18 11 114 24 6 114 68 15 114 
SVTCA[0]\011/* SetFreedomAndProjectionVectorToAxis */
CALL[ ]\011/* CallFunction */
CALL[ ]\011/* CallFunction */
CALL[ ]\011/* CallFunction */
CALL[ ]\011/* CallFunction */
CALL[ ]\011/* CallFunction */
SHP[1]\011/* ShiftPointByLastPoint */
CALL[ ]\011/* CallFunction */
SRP1[ ]\011/* SetRefPoint1 */
SHP[1]\011/* ShiftPointByLastPoint */
SHP[1]\011/* ShiftPointByLastPoint */
SHP[1]\011/* ShiftPointByLastPoint */
IUP[0]\011/* InterpolateUntPts */
IUP[1]\011/* InterpolateUntPts */";
};
width = 549;
}
);
note = uni1EF5;
unicode = 1EF5;
},
{
glyphname = z;
layers = (
{
layerId = "DEC32D14-9EEB-4E31-A016-AD32FECB2E7D";
paths = (
{
closed = 1;
nodes = (
"22 0 LINE",
"368 0 LINE",
"379 64 LINE",
"118 64 LINE",
"425 433 LINE SMOOTH",
"435 445 OFFCURVE",
"446 465 OFFCURVE",
"448 478 QCURVE SMOOTH",
"454 515 LINE",
"119 515 LINE",
"107 451 LINE",
"356 451 LINE",
"50 81 LINE",
"39 69 OFFCURVE",
"29 48 OFFCURVE",
"26 32 QCURVE"
);
}
);
userData = {
assembly = "NPUSHB[ ]\011/* 12 values pushed */
15 12 106 6 5 106 6 6 114 15 10 114 
SVTCA[0]\011/* SetFreedomAndProjectionVectorToAxis */
CALL[ ]\011/* CallFunction */
CALL[ ]\011/* CallFunction */
CALL[ ]\011/* CallFunction */
CALL[ ]\011/* CallFunction */
IUP[0]\011/* InterpolateUntPts */
IUP[1]\011/* InterpolateUntPts */";
};
width = 434;
}
);
leftKerningGroup = z;
note = uni007A;
rightKerningGroup = z;
unicode = 007A;
},
{
glyphname = fi;
layers = (
{
layerId = "DEC32D14-9EEB-4E31-A016-AD32FECB2E7D";
paths = (
{
closed = 1;
nodes = (
"146 457 LINE",
"67 -79 LINE SMOOTH",
"59 -123 OFFCURVE",
"29 -166 OFFCURVE",
"0 -166 QCURVE SMOOTH",
"-16 -166 OFFCURVE",
"-49 -153 OFFCURVE",
"-62 -144 QCURVE",
"-86 -195 LINE",
"-67 -207 OFFCURVE",
"-19 -224 OFFCURVE",
"5 -224 QCURVE SMOOTH",
"45 -224 OFFCURVE",
"100 -192 OFFCURVE",
"135 -120 OFFCURVE",
"144 -58 QCURVE SMOOTH",
"221 457 LINE",
"354 457 LINE",
"364 515 LINE",
"229 515 LINE",
"239 582 LINE SMOOTH",
"244 615 OFFCURVE",
"262 657 OFFCURVE",
"300 680 OFFCURVE",
"332 680 QCURVE SMOOTH",
"360 680 OFFCURVE",
"409 667 QCURVE",
"424 723 LINE",
"404 729 OFFCURVE",
"357 737 OFFCURVE",
"336 737 QCURVE SMOOTH",
"260 737 OFFCURVE",
"177 662 OFFCURVE",
"164 577 QCURVE SMOOTH",
"154 515 LINE",
"79 515 LINE",
"69 457 LINE"
);
},
{
closed = 1;
nodes = (
"471 638 LINE",
"573 638 LINE",
"589 727 LINE",
"487 727 LINE"
);
},
{
closed = 1;
nodes = (
"463 515 LINE",
"382 57 LINE",
"381 53 OFFCURVE",
"376 26 OFFCURVE",
"376 18 QCURVE SMOOTH",
"376 9 OFFCURVE",
"386 0 OFFCURVE",
"400 0 QCURVE SMOOTH",
"446 0 LINE",
"527 458 LINE",
"528 462 OFFCURVE",
"533 489 OFFCURVE",
"533 497 QCURVE SMOOTH",
"533 506 OFFCURVE",
"523 515 OFFCURVE",
"509 515 QCURVE SMOOTH"
);
}
);
userData = {
assembly = "NPUSHB[ ]\011/* 29 values pushed */
49 10 114 37 40 106 37 0 114 25 32 106 25 15 114 0 17 20 106 1 17 6 114 6 12 106 6 1 114 
SVTCA[0]\011/* SetFreedomAndProjectionVectorToAxis */
CALL[ ]\011/* CallFunction */
CALL[ ]\011/* CallFunction */
CALL[ ]\011/* CallFunction */
SHP[0]\011/* ShiftPointByLastPoint */
CALL[ ]\011/* CallFunction */
SHP[0]\011/* ShiftPointByLastPoint */
CALL[ ]\011/* CallFunction */
CALL[ ]\011/* CallFunction */
CALL[ ]\011/* CallFunction */
CALL[ ]\011/* CallFunction */
CALL[ ]\011/* CallFunction */
IUP[0]\011/* InterpolateUntPts */
IUP[1]\011/* InterpolateUntPts */";
};
width = 545;
}
);
note = uniFB01;
unicode = FB01;
},
{
glyphname = fl;
layers = (
{
layerId = "DEC32D14-9EEB-4E31-A016-AD32FECB2E7D";
paths = (
{
closed = 1;
nodes = (
"146 457 LINE",
"67 -79 LINE SMOOTH",
"59 -123 OFFCURVE",
"29 -166 OFFCURVE",
"0 -166 QCURVE SMOOTH",
"-16 -166 OFFCURVE",
"-49 -153 OFFCURVE",
"-62 -144 QCURVE",
"-86 -195 LINE",
"-67 -207 OFFCURVE",
"-19 -224 OFFCURVE",
"5 -224 QCURVE SMOOTH",
"45 -224 OFFCURVE",
"100 -192 OFFCURVE",
"135 -120 OFFCURVE",
"144 -58 QCURVE SMOOTH",
"221 457 LINE",
"354 457 LINE",
"364 515 LINE",
"229 515 LINE",
"239 582 LINE SMOOTH",
"244 615 OFFCURVE",
"262 657 OFFCURVE",
"300 680 OFFCURVE",
"332 680 QCURVE SMOOTH",
"360 680 OFFCURVE",
"409 667 QCURVE",
"424 723 LINE",
"404 729 OFFCURVE",
"357 737 OFFCURVE",
"336 737 QCURVE SMOOTH",
"260 737 OFFCURVE",
"177 662 OFFCURVE",
"164 577 QCURVE SMOOTH",
"154 515 LINE",
"79 515 LINE",
"69 457 LINE"
);
},
{
closed = 1;
nodes = (
"488 727 LINE",
"390 148 LINE SMOOTH",
"383 107 OFFCURVE",
"383 78 QCURVE SMOOTH",
"383 35 OFFCURVE",
"431 -7 OFFCURVE",
"476 -7 QCURVE SMOOTH",
"500 -7 OFFCURVE",
"543 3 OFFCURVE",
"558 10 QCURVE",
"548 60 LINE",
"522 51 OFFCURVE",
"504 51 QCURVE SMOOTH",
"480 51 OFFCURVE",
"457 73 OFFCURVE",
"457 97 QCURVE SMOOTH",
"457 111 OFFCURVE",
"466 163 QCURVE SMOOTH",
"499 360 LINE SMOOTH",
"535 575 OFFCURVE",
"552 670 QCURVE",
"553 674 OFFCURVE",
"558 701 OFFCURVE",
"558 709 QCURVE SMOOTH",
"558 718 OFFCURVE",
"548 727 OFFCURVE",
"534 727 QCURVE SMOOTH"
);
}
);
userData = {
assembly = "NPUSHB[ ]\011/* 29 values pushed */
62 0 114 56 50 106 56 11 114 25 32 106 25 15 114 0 17 20 106 1 17 6 114 6 12 106 6 1 114 
SVTCA[0]\011/* SetFreedomAndProjectionVectorToAxis */
CALL[ ]\011/* CallFunction */
CALL[ ]\011/* CallFunction */
CALL[ ]\011/* CallFunction */
SHP[0]\011/* ShiftPointByLastPoint */
CALL[ ]\011/* CallFunction */
SHP[0]\011/* ShiftPointByLastPoint */
CALL[ ]\011/* CallFunction */
CALL[ ]\011/* CallFunction */
CALL[ ]\011/* CallFunction */
CALL[ ]\011/* CallFunction */
CALL[ ]\011/* CallFunction */
IUP[0]\011/* InterpolateUntPts */
IUP[1]\011/* InterpolateUntPts */";
};
width = 583;
}
);
note = uniFB02;
unicode = FB02;
},
{
glyphname = ordfeminine;
layers = (
{
layerId = "DEC32D14-9EEB-4E31-A016-AD32FECB2E7D";
paths = (
{
closed = 1;
nodes = (
"288 419 LINE SMOOTH",
"288 412 OFFCURVE",
"293 405 OFFCURVE",
"300 405 QCURVE SMOOTH",
"338 405 LINE",
"338 428 LINE SMOOTH",
"338 457 OFFCURVE",
"344 496 QCURVE SMOOTH",
"374 672 LINE",
"376 687 LINE",
"376 693 OFFCURVE",
"371 700 OFFCURVE",
"364 703 QCURVE",
"343 713 OFFCURVE",
"285 727 OFFCURVE",
"255 727 QCURVE SMOOTH",
"198 727 OFFCURVE",
"120 665 OFFCURVE",
"81 565 OFFCURVE",
"81 510 QCURVE SMOOTH",
"81 458 OFFCURVE",
"137 398 OFFCURVE",
"185 398 QCURVE SMOOTH",
"210 398 OFFCURVE",
"249 416 OFFCURVE",
"259 424 QCURVE SMOOTH",
"263 427 OFFCURVE",
"271 434 QCURVE",
"279 440 OFFCURVE",
"282 440 QCURVE SMOOTH",
"285 440 OFFCURVE",
"288 436 OFFCURVE",
"288 431 QCURVE SMOOTH"
);
},
{
closed = 1;
nodes = (
"311 631 LINE",
"289 505 LINE",
"288 501 OFFCURVE",
"285 492 OFFCURVE",
"282 488 QCURVE SMOOTH",
"273 476 OFFCURVE",
"230 446 OFFCURVE",
"208 446 QCURVE SMOOTH",
"179 446 OFFCURVE",
"143 489 OFFCURVE",
"143 529 QCURVE SMOOTH",
"143 563 OFFCURVE",
"168 632 OFFCURVE",
"218 678 OFFCURVE",
"254 678 QCURVE SMOOTH",
"274 678 OFFCURVE",
"302 665 OFFCURVE",
"309 657 QCURVE",
"313 652 OFFCURVE",
"313 647 QCURVE"
);
}
);
userData = {
assembly = "NPUSHB[ ]\011/* 13 values pushed */
9 45 106 28 9 9 53 16 38 106 16 16 114 
SVTCA[0]\011/* SetFreedomAndProjectionVectorToAxis */
CALL[ ]\011/* CallFunction */
CALL[ ]\011/* CallFunction */
SRP2[ ]\011/* SetRefPoint2 */
IP[ ]\011/* InterpolatePts */
MDAP[1]\011/* MoveDirectAbsPt */
SHP[1]\011/* ShiftPointByLastPoint */
CALL[ ]\011/* CallFunction */
IUP[0]\011/* InterpolateUntPts */
IUP[1]\011/* InterpolateUntPts */";
};
width = 367;
}
);
note = uni00AA;
unicode = 00AA;
},
{
glyphname = ordmasculine;
layers = (
{
layerId = "DEC32D14-9EEB-4E31-A016-AD32FECB2E7D";
paths = (
{
closed = 1;
nodes = (
"258 398 OFFCURVE",
"342 459 OFFCURVE",
"385 555 OFFCURVE",
"385 608 QCURVE SMOOTH",
"385 666 OFFCURVE",
"323 727 OFFCURVE",
"265 727 QCURVE SMOOTH",
"209 727 OFFCURVE",
"125 666 OFFCURVE",
"81 570 OFFCURVE",
"81 518 QCURVE SMOOTH",
"81 460 OFFCURVE",
"143 398 OFFCURVE",
"201 398 QCURVE SMOOTH"
);
},
{
closed = 1;
nodes = (
"178 447 OFFCURVE",
"143 484 OFFCURVE",
"143 521 QCURVE SMOOTH",
"143 560 OFFCURVE",
"167 632 OFFCURVE",
"217 678 OFFCURVE",
"254 678 QCURVE SMOOTH",
"323 678 OFFCURVE",
"323 604 QCURVE SMOOTH",
"323 565 OFFCURVE",
"300 493 OFFCURVE",
"250 447 OFFCURVE",
"213 447 QCURVE SMOOTH"
);
}
);
userData = {
assembly = "NPUSHB[ ]\011/* 12 values pushed */
13 26 106 13 13 27 6 19 106 6 16 114 
SVTCA[0]\011/* SetFreedomAndProjectionVectorToAxis */
CALL[ ]\011/* CallFunction */
CALL[ ]\011/* CallFunction */
SRP2[ ]\011/* SetRefPoint2 */
IP[ ]\011/* InterpolatePts */
MDAP[1]\011/* MoveDirectAbsPt */
CALL[ ]\011/* CallFunction */
IUP[0]\011/* InterpolateUntPts */
IUP[1]\011/* InterpolateUntPts */";
};
width = 368;
}
);
note = uni00BA;
unicode = 00BA;
},
{
glyphname = "Be-cy";
layers = (
{
layerId = "DEC32D14-9EEB-4E31-A016-AD32FECB2E7D";
paths = (
{
closed = 1;
nodes = (
"621 727 LINE",
"186 727 LINE",
"68 57 LINE",
"67 53 OFFCURVE",
"62 26 OFFCURVE",
"62 18 QCURVE SMOOTH",
"62 10 OFFCURVE",
"72 1 OFFCURVE",
"86 0 QCURVE SMOOTH",
"194 -6 OFFCURVE",
"266 -6 QCURVE SMOOTH",
"379 -6 OFFCURVE",
"533 38 OFFCURVE",
"622 154 OFFCURVE",
"622 258 QCURVE SMOOTH",
"622 313 OFFCURVE",
"571 377 OFFCURVE",
"469 405 OFFCURVE",
"388 405 QCURVE SMOOTH",
"206 405 LINE",
"251 658 LINE",
"609 658 LINE"
);
},
{
closed = 1;
nodes = (
"265 58 OFFCURVE",
"179 60 OFFCURVE",
"146 62 QCURVE",
"194 338 LINE",
"387 338 LINE SMOOTH",
"440 338 OFFCURVE",
"504 320 OFFCURVE",
"534 279 OFFCURVE",
"534 244 QCURVE SMOOTH",
"534 168 OFFCURVE",
"479 87 OFFCURVE",
"382 58 OFFCURVE",
"308 58 QCURVE SMOOTH"
);
}
);
userData = {
assembly = "NPUSHB[ ]\011/* 19 values pushed */
13 11 34 106 30 2 106 30 30 11 20 1 106 20 2 114 11 8 114 
SVTCA[0]\011/* SetFreedomAndProjectionVectorToAxis */
CALL[ ]\011/* CallFunction */
CALL[ ]\011/* CallFunction */
CALL[ ]\011/* CallFunction */
SRP2[ ]\011/* SetRefPoint2 */
IP[ ]\011/* InterpolatePts */
MDAP[1]\011/* MoveDirectAbsPt */
CALL[ ]\011/* CallFunction */
CALL[ ]\011/* CallFunction */
SHP[1]\011/* ShiftPointByLastPoint */
IUP[0]\011/* InterpolateUntPts */
IUP[1]\011/* InterpolateUntPts */";
};
width = 662;
}
);
note = uni0411;
rightKerningGroup = "Be-cy";
unicode = 0411;
},
{
glyphname = "Ge-cy";
layers = (
{
layerId = "DEC32D14-9EEB-4E31-A016-AD32FECB2E7D";
paths = (
{
closed = 1;
nodes = (
"186 727 LINE",
"67 57 LINE",
"66 53 OFFCURVE",
"61 26 OFFCURVE",
"61 18 QCURVE SMOOTH",
"61 9 OFFCURVE",
"71 0 OFFCURVE",
"85 0 QCURVE SMOOTH",
"134 0 LINE",
"251 658 LINE",
"589 658 LINE",
"601 727 LINE"
);
}
);
userData = {
assembly = "NPUSHB[ ]\011/* 11 values pushed */
7 4 11 2 106 11 2 114 4 8 114 
SVTCA[0]\011/* SetFreedomAndProjectionVectorToAxis */
CALL[ ]\011/* CallFunction */
CALL[ ]\011/* CallFunction */
CALL[ ]\011/* CallFunction */
SRP1[ ]\011/* SetRefPoint1 */
SHP[1]\011/* ShiftPointByLastPoint */
IUP[0]\011/* InterpolateUntPts */
IUP[1]\011/* InterpolateUntPts */";
};
width = 513;
}
);
note = uni0413;
rightKerningGroup = "Ge-cy";
unicode = 0413;
},
{
glyphname = "Gheupturn-cy";
layers = (
{
layerId = "DEC32D14-9EEB-4E31-A016-AD32FECB2E7D";
paths = (
{
closed = 1;
nodes = (
"589 658 LINE",
"612 788 LINE",
"613 792 OFFCURVE",
"618 819 OFFCURVE",
"618 827 QCURVE SMOOTH",
"618 836 OFFCURVE",
"608 845 OFFCURVE",
"594 845 QCURVE SMOOTH",
"552 845 LINE",
"531 727 LINE",
"186 727 LINE",
"67 57 LINE",
"66 53 OFFCURVE",
"61 26 OFFCURVE",
"61 18 QCURVE SMOOTH",
"61 9 OFFCURVE",
"71 0 OFFCURVE",
"85 0 QCURVE SMOOTH",
"134 0 LINE",
"251 658 LINE"
);
}
);
userData = {
assembly = "NPUSHB[ ]\011/* 13 values pushed */
15 11 9 9 0 106 9 2 114 5 2 8 114 
SVTCA[0]\011/* SetFreedomAndProjectionVectorToAxis */
CALL[ ]\011/* CallFunction */
SHP[0]\011/* ShiftPointByLastPoint */
CALL[ ]\011/* CallFunction */
CALL[ ]\011/* CallFunction */
SRP0[ ]\011/* SetRefPoint0 */
MDRP[01110]\011/* MoveDirectRelPt */
SHP[0]\011/* ShiftPointByLastPoint */
IUP[0]\011/* InterpolateUntPts */
IUP[1]\011/* InterpolateUntPts */";
};
width = 525;
}
);
note = uni0490;
rightKerningGroup = "Ge-cy";
unicode = 0490;
},
{
glyphname = "De-cy";
layers = (
{
layerId = "DEC32D14-9EEB-4E31-A016-AD32FECB2E7D";
paths = (
{
closed = 1;
nodes = (
"588 72 LINE",
"694 670 LINE",
"695 674 OFFCURVE",
"700 701 OFFCURVE",
"700 709 QCURVE SMOOTH",
"700 718 OFFCURVE",
"690 727 OFFCURVE",
"676 727 QCURVE SMOOTH",
"384 727 LINE",
"355 599 OFFCURVE",
"253 354 OFFCURVE",
"135 150 OFFCURVE",
"76 72 QCURVE",
"3 72 LINE",
"-19 -58 LINE",
"-20 -62 OFFCURVE",
"-25 -89 OFFCURVE",
"-25 -97 QCURVE SMOOTH",
"-25 -106 OFFCURVE",
"-15 -115 OFFCURVE",
"-1 -115 QCURVE SMOOTH",
"40 -115 LINE",
"61 0 LINE",
"600 0 LINE",
"589 -58 LINE",
"588 -62 OFFCURVE",
"583 -89 OFFCURVE",
"583 -97 QCURVE SMOOTH",
"583 -106 OFFCURVE",
"593 -115 OFFCURVE",
"607 -115 QCURVE SMOOTH",
"648 -115 LINE",
"671 15 LINE",
"672 19 OFFCURVE",
"677 46 OFFCURVE",
"677 54 QCURVE SMOOTH",
"677 63 OFFCURVE",
"667 72 OFFCURVE",
"653 72 QCURVE SMOOTH"
);
},
{
closed = 1;
nodes = (
"615 658 LINE",
"511 72 LINE",
"165 72 LINE",
"250 192 OFFCURVE",
"405 503 OFFCURVE",
"444 658 QCURVE"
);
}
);
userData = {
assembly = "NPUSHB[ ]\011/* 21 values pushed */
18 11 21 7 34 30 38 42 16 25 106 16 16 7 30 39 106 30 2 114 7 
SVTCA[0]\011/* SetFreedomAndProjectionVectorToAxis */
MDAP[1]\011/* MoveDirectAbsPt */
CALL[ ]\011/* CallFunction */
CALL[ ]\011/* CallFunction */
SRP2[ ]\011/* SetRefPoint2 */
IP[ ]\011/* InterpolatePts */
MDAP[1]\011/* MoveDirectAbsPt */
CALL[ ]\011/* CallFunction */
SHP[0]\011/* ShiftPointByLastPoint */
SHP[0]\011/* ShiftPointByLastPoint */
SRP1[ ]\011/* SetRefPoint1 */
SHP[1]\011/* ShiftPointByLastPoint */
SRP1[ ]\011/* SetRefPoint1 */
SHP[1]\011/* ShiftPointByLastPoint */
SHP[1]\011/* ShiftPointByLastPoint */
SHP[1]\011/* ShiftPointByLastPoint */
IUP[0]\011/* InterpolateUntPts */
IUP[1]\011/* InterpolateUntPts */";
};
width = 712;
}
);
leftKerningGroup = "De-cy";
note = uni0414;
rightKerningGroup = "De-cy";
unicode = 0414;
},
{
glyphname = "Zhe-cy";
layers = (
{
layerId = "DEC32D14-9EEB-4E31-A016-AD32FECB2E7D";
paths = (
{
closed = 1;
nodes = (
"530 413 LINE",
"574 670 LINE",
"575 674 OFFCURVE",
"580 701 OFFCURVE",
"580 709 QCURVE SMOOTH",
"580 718 OFFCURVE",
"570 727 OFFCURVE",
"556 727 QCURVE SMOOTH",
"507 727 LINE",
"453 413 LINE",
"368 413 LINE",
"226 705 LINE SMOOTH",
"220 718 OFFCURVE",
"206 727 OFFCURVE",
"195 727 QCURVE SMOOTH",
"124 727 LINE",
"296 381 LINE",
"-27 0 LINE",
"45 0 LINE SMOOTH",
"56 0 OFFCURVE",
"73 9 OFFCURVE",
"83 20 QCURVE",
"351 343 LINE",
"441 343 LINE",
"393 57 LINE",
"392 53 OFFCURVE",
"387 26 OFFCURVE",
"387 18 QCURVE SMOOTH",
"387 9 OFFCURVE",
"397 0 OFFCURVE",
"411 0 QCURVE SMOOTH",
"459 0 LINE",
"518 343 LINE",
"608 343 LINE",
"762 20 LINE SMOOTH",
"768 8 OFFCURVE",
"781 0 OFFCURVE",
"792 0 QCURVE SMOOTH",
"865 0 LINE",
"677 381 LINE",
"971 727 LINE",
"900 727 LINE SMOOTH",
"888 727 OFFCURVE",
"872 719 OFFCURVE",
"862 707 QCURVE SMOOTH",
"615 413 LINE"
);
}
);
userData = {
assembly = "NPUSHB[ ]\011/* 25 values pushed */
6 29 35 13 45 106 23 13 13 28 41 38 5 1 30 2 114 24 18 15 11 8 28 8 114 
SVTCA[0]\011/* SetFreedomAndProjectionVectorToAxis */
CALL[ ]\011/* CallFunction */
SHP[0]\011/* ShiftPointByLastPoint */
SHP[0]\011/* ShiftPointByLastPoint */
SHP[0]\011/* ShiftPointByLastPoint */
SHP[0]\011/* ShiftPointByLastPoint */
SHP[0]\011/* ShiftPointByLastPoint */
CALL[ ]\011/* CallFunction */
SHP[0]\011/* ShiftPointByLastPoint */
SHP[0]\011/* ShiftPointByLastPoint */
SHP[0]\011/* ShiftPointByLastPoint */
SHP[0]\011/* ShiftPointByLastPoint */
SRP1[ ]\011/* SetRefPoint1 */
IP[ ]\011/* InterpolatePts */
MDAP[1]\011/* MoveDirectAbsPt */
SHP[1]\011/* ShiftPointByLastPoint */
CALL[ ]\011/* CallFunction */
SHP[0]\011/* ShiftPointByLastPoint */
IP[ ]\011/* InterpolatePts */
IP[ ]\011/* InterpolatePts */
IUP[0]\011/* InterpolateUntPts */
IUP[1]\011/* InterpolateUntPts */";
};
width = 903;
}
);
leftKerningGroup = "Zhe-cy";
note = uni0416;
rightKerningGroup = "Zhe-cy";
unicode = 0416;
},
{
glyphname = "Ze-cy";
layers = (
{
layerId = "DEC32D14-9EEB-4E31-A016-AD32FECB2E7D";
paths = (
{
closed = 1;
nodes = (
"20 38 LINE",
"52 17 OFFCURVE",
"155 -12 OFFCURVE",
"217 -12 QCURVE SMOOTH",
"311 -12 OFFCURVE",
"450 47 OFFCURVE",
"526 163 OFFCURVE",
"526 246 QCURVE SMOOTH",
"526 290 OFFCURVE",
"499 336 OFFCURVE",
"479 351 QCURVE SMOOTH",
"471 357 OFFCURVE",
"455 365 QCURVE",
"444 371 OFFCURVE",
"433 379 OFFCURVE",
"433 386 QCURVE SMOOTH",
"433 392 OFFCURVE",
"446 402 OFFCURVE",
"459 408 QCURVE SMOOTH",
"463 410 OFFCURVE",
"482 420 OFFCURVE",
"489 425 QCURVE SMOOTH",
"529 454 OFFCURVE",
"569 540 OFFCURVE",
"569 589 QCURVE SMOOTH",
"569 662 OFFCURVE",
"462 733 OFFCURVE",
"365 733 QCURVE SMOOTH",
"307 733 OFFCURVE",
"198 707 OFFCURVE",
"158 689 QCURVE",
"166 623 LINE",
"205 642 OFFCURVE",
"305 668 OFFCURVE",
"354 668 QCURVE SMOOTH",
"420 668 OFFCURVE",
"488 619 OFFCURVE",
"488 575 QCURVE SMOOTH",
"488 490 OFFCURVE",
"375 410 OFFCURVE",
"281 410 QCURVE SMOOTH",
"166 410 LINE",
"154 341 LINE",
"282 341 LINE SMOOTH",
"345 341 OFFCURVE",
"416 315 OFFCURVE",
"444 266 OFFCURVE",
"444 229 QCURVE SMOOTH",
"444 169 OFFCURVE",
"388 91 OFFCURVE",
"291 54 OFFCURVE",
"230 54 QCURVE SMOOTH",
"174 54 OFFCURVE",
"80 80 OFFCURVE",
"50 99 QCURVE"
);
}
);
userData = {
assembly = "NPUSHB[ ]\011/* 19 values pushed */
37 11 12 106 11 11 26 50 2 106 50 9 114 26 19 106 26 2 114 
SVTCA[0]\011/* SetFreedomAndProjectionVectorToAxis */
CALL[ ]\011/* CallFunction */
CALL[ ]\011/* CallFunction */
CALL[ ]\011/* CallFunction */
CALL[ ]\011/* CallFunction */
SRP2[ ]\011/* SetRefPoint2 */
IP[ ]\011/* InterpolatePts */
MDAP[1]\011/* MoveDirectAbsPt */
CALL[ ]\011/* CallFunction */
IP[ ]\011/* InterpolatePts */
IUP[0]\011/* InterpolateUntPts */
IUP[1]\011/* InterpolateUntPts */";
};
width = 579;
}
);
note = uni0417;
rightKerningGroup = "Ve-cy";
unicode = 0417;
},
{
glyphname = "Ii-cy";
layers = (
{
layerId = "DEC32D14-9EEB-4E31-A016-AD32FECB2E7D";
paths = (
{
closed = 1;
nodes = (
"657 727 LINE",
"152 92 LINE",
"254 670 LINE",
"255 674 OFFCURVE",
"260 701 OFFCURVE",
"260 709 QCURVE SMOOTH",
"260 718 OFFCURVE",
"250 727 OFFCURVE",
"236 727 QCURVE SMOOTH",
"186 727 LINE",
"68 57 LINE",
"67 53 OFFCURVE",
"62 26 OFFCURVE",
"62 18 QCURVE SMOOTH",
"62 9 OFFCURVE",
"72 0 OFFCURVE",
"86 0 QCURVE SMOOTH",
"155 0 LINE",
"667 641 LINE",
"564 57 LINE",
"563 53 OFFCURVE",
"558 26 OFFCURVE",
"558 18 QCURVE SMOOTH",
"558 9 OFFCURVE",
"568 0 OFFCURVE",
"582 0 QCURVE SMOOTH",
"629 0 LINE",
"748 670 LINE",
"749 674 OFFCURVE",
"754 701 OFFCURVE",
"754 709 QCURVE SMOOTH",
"754 718 OFFCURVE",
"744 727 OFFCURVE",
"730 727 QCURVE SMOOTH"
);
}
);
userData = {
assembly = "NPUSHB[ ]\011/* 11 values pushed */
33 27 14 23 2 114 31 7 16 8 114 
SVTCA[0]\011/* SetFreedomAndProjectionVectorToAxis */
CALL[ ]\011/* CallFunction */
SHP[0]\011/* ShiftPointByLastPoint */
SHP[0]\011/* ShiftPointByLastPoint */
CALL[ ]\011/* CallFunction */
SHP[0]\011/* ShiftPointByLastPoint */
SHP[0]\011/* ShiftPointByLastPoint */
SHP[0]\011/* ShiftPointByLastPoint */
IUP[0]\011/* InterpolateUntPts */
IUP[1]\011/* InterpolateUntPts */";
};
width = 752;
}
);
note = uni0418;
unicode = 0418;
},
{
glyphname = "El-cy";
layers = (
{
layerId = "DEC32D14-9EEB-4E31-A016-AD32FECB2E7D";
paths = (
{
closed = 1;
nodes = (
"571 0 LINE",
"689 670 LINE",
"690 674 OFFCURVE",
"695 701 OFFCURVE",
"695 709 QCURVE SMOOTH",
"695 718 OFFCURVE",
"685 727 OFFCURVE",
"671 727 QCURVE SMOOTH",
"273 727 LINE",
"235 538 OFFCURVE",
"159 207 OFFCURVE",
"133 134 QCURVE SMOOTH",
"122 105 OFFCURVE",
"104 74 OFFCURVE",
"76 59 OFFCURVE",
"51 59 QCURVE SMOOTH",
"23 59 OFFCURVE",
"-7 70 QCURVE",
"-29 2 LINE",
"-9 -4 OFFCURVE",
"33 -12 OFFCURVE",
"50 -12 QCURVE SMOOTH",
"94 -12 OFFCURVE",
"153 19 OFFCURVE",
"190 75 OFFCURVE",
"205 119 QCURVE SMOOTH",
"223 172 OFFCURVE",
"294 476 OFFCURVE",
"333 658 QCURVE",
"610 658 LINE",
"504 57 LINE",
"503 53 OFFCURVE",
"498 26 OFFCURVE",
"498 18 QCURVE SMOOTH",
"498 9 OFFCURVE",
"508 0 OFFCURVE",
"522 0 QCURVE SMOOTH"
);
}
);
userData = {
assembly = "NPUSHB[ ]\011/* 15 values pushed */
28 8 106 28 2 114 15 21 106 15 9 114 0 8 114 
SVTCA[0]\011/* SetFreedomAndProjectionVectorToAxis */
CALL[ ]\011/* CallFunction */
CALL[ ]\011/* CallFunction */
CALL[ ]\011/* CallFunction */
CALL[ ]\011/* CallFunction */
CALL[ ]\011/* CallFunction */
IUP[0]\011/* InterpolateUntPts */
IUP[1]\011/* InterpolateUntPts */";
};
width = 693;
}
);
leftKerningGroup = "El-cy";
note = uni041B;
unicode = 041B;
},
{
glyphname = "Pe-cy";
layers = (
{
layerId = "DEC32D14-9EEB-4E31-A016-AD32FECB2E7D";
paths = (
{
closed = 1;
nodes = (
"599 0 LINE",
"718 670 LINE",
"719 674 OFFCURVE",
"724 701 OFFCURVE",
"724 709 QCURVE SMOOTH",
"724 718 OFFCURVE",
"714 727 OFFCURVE",
"700 727 QCURVE SMOOTH",
"186 727 LINE",
"68 57 LINE",
"67 53 OFFCURVE",
"62 26 OFFCURVE",
"62 18 QCURVE SMOOTH",
"62 9 OFFCURVE",
"72 0 OFFCURVE",
"86 0 QCURVE SMOOTH",
"134 0 LINE",
"250 656 LINE",
"638 656 LINE",
"533 57 LINE",
"532 53 OFFCURVE",
"527 26 OFFCURVE",
"527 18 QCURVE SMOOTH",
"527 9 OFFCURVE",
"537 0 OFFCURVE",
"551 0 QCURVE SMOOTH"
);
}
);
userData = {
assembly = "NPUSHB[ ]\011/* 14 values pushed */
25 2 12 9 20 16 7 106 16 2 114 9 8 114 
SVTCA[0]\011/* SetFreedomAndProjectionVectorToAxis */
CALL[ ]\011/* CallFunction */
CALL[ ]\011/* CallFunction */
CALL[ ]\011/* CallFunction */
SHP[1]\011/* ShiftPointByLastPoint */
SRP1[ ]\011/* SetRefPoint1 */
SHP[1]\011/* ShiftPointByLastPoint */
SHP[1]\011/* ShiftPointByLastPoint */
SHP[1]\011/* ShiftPointByLastPoint */
IUP[0]\011/* InterpolateUntPts */
IUP[1]\011/* InterpolateUntPts */";
};
width = 722;
}
);
note = uni041F;
unicode = 041F;
},
{
glyphname = "U-cy";
layers = (
{
layerId = "DEC32D14-9EEB-4E31-A016-AD32FECB2E7D";
paths = (
{
closed = 1;
nodes = (
"672 727 LINE",
"601 727 LINE SMOOTH",
"590 727 OFFCURVE",
"580 719 OFFCURVE",
"573 706 QCURVE",
"316 284 LINE",
"194 706 LINE SMOOTH",
"190 719 OFFCURVE",
"183 727 OFFCURVE",
"172 727 QCURVE SMOOTH",
"103 727 LINE",
"258 200 LINE",
"222 140 OFFCURVE",
"175 81 OFFCURVE",
"131 56 OFFCURVE",
"102 56 QCURVE SMOOTH",
"79 56 OFFCURVE",
"31 66 OFFCURVE",
"12 74 QCURVE",
"-10 7 LINE",
"12 -1 OFFCURVE",
"63 -12 OFFCURVE",
"85 -12 QCURVE SMOOTH",
"132 -12 OFFCURVE",
"198 12 OFFCURVE",
"265 79 OFFCURVE",
"307 146 QCURVE SMOOTH"
);
}
);
userData = {
assembly = "NPUSHB[ ]\011/* 13 values pushed */
20 3 25 15 2 114 3 10 106 6 3 9 114 
SVTCA[0]\011/* SetFreedomAndProjectionVectorToAxis */
CALL[ ]\011/* CallFunction */
SHP[0]\011/* ShiftPointByLastPoint */
CALL[ ]\011/* CallFunction */
CALL[ ]\011/* CallFunction */
SHP[0]\011/* ShiftPointByLastPoint */
SRP2[ ]\011/* SetRefPoint2 */
IP[ ]\011/* InterpolatePts */
IUP[0]\011/* InterpolateUntPts */
IUP[1]\011/* InterpolateUntPts */";
};
width = 567;
}
);
leftKerningGroup = "Zhe-cy";
note = uni0423;
rightKerningGroup = "U-cy";
unicode = 0423;
},
{
glyphname = "Ef-cy";
layers = (
{
layerId = "DEC32D14-9EEB-4E31-A016-AD32FECB2E7D";
paths = (
{
closed = 1;
nodes = (
"325 111 LINE",
"314 47 LINE",
"313 43 OFFCURVE",
"308 16 OFFCURVE",
"308 8 QCURVE SMOOTH",
"308 -1 OFFCURVE",
"318 -10 OFFCURVE",
"332 -10 QCURVE SMOOTH",
"382 -10 LINE",
"403 111 LINE",
"440 111 LINE SMOOTH",
"541 111 OFFCURVE",
"681 203 OFFCURVE",
"750 357 OFFCURVE",
"750 451 QCURVE SMOOTH",
"750 542 OFFCURVE",
"642 633 OFFCURVE",
"532 633 QCURVE SMOOTH",
"495 633 LINE",
"503 680 LINE",
"504 684 OFFCURVE",
"509 711 OFFCURVE",
"509 719 QCURVE SMOOTH",
"509 728 OFFCURVE",
"499 737 OFFCURVE",
"485 737 QCURVE SMOOTH",
"435 737 LINE",
"417 633 LINE",
"380 633 LINE SMOOTH",
"279 633 OFFCURVE",
"139 541 OFFCURVE",
"70 387 OFFCURVE",
"70 293 QCURVE SMOOTH",
"70 202 OFFCURVE",
"178 111 OFFCURVE",
"288 111 QCURVE SMOOTH"
);
},
{
closed = 1;
nodes = (
"414 174 LINE",
"484 571 LINE",
"526 571 LINE SMOOTH",
"668 571 OFFCURVE",
"668 434 QCURVE SMOOTH",
"668 364 OFFCURVE",
"621 245 OFFCURVE",
"525 174 OFFCURVE",
"456 174 QCURVE SMOOTH"
);
},
{
closed = 1;
nodes = (
"406 570 LINE",
"336 173 LINE",
"294 173 LINE SMOOTH",
"152 173 OFFCURVE",
"152 310 QCURVE SMOOTH",
"152 380 OFFCURVE",
"199 499 OFFCURVE",
"295 570 OFFCURVE",
"364 570 QCURVE SMOOTH"
);
}
);
userData = {
assembly = "NPUSHB[ ]\011/* 23 values pushed */
43 0 50 106 26 0 53 7 42 106 17 7 0 7 0 7 9 28 9 114 9 3 114 
SVTCA[0]\011/* SetFreedomAndProjectionVectorToAxis */
CALL[ ]\011/* CallFunction */
CALL[ ]\011/* CallFunction */
SRP2[ ]\011/* SetRefPoint2 */
IP[ ]\011/* InterpolatePts */
IP[ ]\011/* InterpolatePts */
MDAP[1]\011/* MoveDirectAbsPt */
MDAP[1]\011/* MoveDirectAbsPt */
SRP1[ ]\011/* SetRefPoint1 */
SHP[1]\011/* ShiftPointByLastPoint */
CALL[ ]\011/* CallFunction */
SHP[0]\011/* ShiftPointByLastPoint */
SRP1[ ]\011/* SetRefPoint1 */
SHP[1]\011/* ShiftPointByLastPoint */
CALL[ ]\011/* CallFunction */
SHP[0]\011/* ShiftPointByLastPoint */
IUP[0]\011/* InterpolateUntPts */
IUP[1]\011/* InterpolateUntPts */";
};
width = 754;
}
);
leftKerningGroup = "Ef-cy";
note = uni0424;
rightKerningGroup = "Ef-cy";
unicode = 0424;
},
{
glyphname = "Che-cy";
layers = (
{
layerId = "DEC32D14-9EEB-4E31-A016-AD32FECB2E7D";
paths = (
{
closed = 1;
nodes = (
"494 198 LINE",
"469 57 LINE",
"468 53 OFFCURVE",
"463 26 OFFCURVE",
"463 18 QCURVE SMOOTH",
"463 9 OFFCURVE",
"473 0 OFFCURVE",
"487 0 QCURVE SMOOTH",
"536 0 LINE",
"654 670 LINE",
"655 674 OFFCURVE",
"660 701 OFFCURVE",
"660 709 QCURVE SMOOTH",
"660 718 OFFCURVE",
"650 727 OFFCURVE",
"636 727 QCURVE SMOOTH",
"587 727 LINE",
"528 389 LINE",
"527 381 OFFCURVE",
"521 374 OFFCURVE",
"513 368 QCURVE SMOOTH",
"430 310 OFFCURVE",
"324 310 QCURVE SMOOTH",
"254 310 OFFCURVE",
"185 365 OFFCURVE",
"185 423 QCURVE SMOOTH",
"185 456 OFFCURVE",
"197 531 OFFCURVE",
"210 592 QCURVE SMOOTH",
"223 649 OFFCURVE",
"226 670 QCURVE",
"227 674 OFFCURVE",
"232 701 OFFCURVE",
"232 709 QCURVE SMOOTH",
"232 718 OFFCURVE",
"222 727 OFFCURVE",
"208 727 QCURVE SMOOTH",
"160 727 LINE",
"113 482 LINE SMOOTH",
"110 464 OFFCURVE",
"105 420 OFFCURVE",
"105 403 QCURVE SMOOTH",
"105 382 OFFCURVE",
"110 360 QCURVE SMOOTH",
"124 303 OFFCURVE",
"221 242 OFFCURVE",
"290 242 QCURVE SMOOTH",
"336 242 OFFCURVE",
"409 257 OFFCURVE",
"454 276 OFFCURVE",
"479 289 QCURVE SMOOTH",
"497 299 OFFCURVE",
"502 299 QCURVE SMOOTH",
"509 299 OFFCURVE",
"509 291 QCURVE SMOOTH",
"509 276 OFFCURVE",
"505 255 QCURVE SMOOTH",
"501 234 OFFCURVE",
"500 228 QCURVE SMOOTH"
);
}
);
userData = {
assembly = "NPUSHB[ ]\011/* 18 values pushed */
54 51 25 46 43 21 12 36 106 12 12 51 21 2 114 51 8 114 
SVTCA[0]\011/* SetFreedomAndProjectionVectorToAxis */
CALL[ ]\011/* CallFunction */
CALL[ ]\011/* CallFunction */
SRP1[ ]\011/* SetRefPoint1 */
IP[ ]\011/* InterpolatePts */
MDAP[1]\011/* MoveDirectAbsPt */
CALL[ ]\011/* CallFunction */
SRP1[ ]\011/* SetRefPoint1 */
SHP[1]\011/* ShiftPointByLastPoint */
SHP[1]\011/* ShiftPointByLastPoint */
SHP[1]\011/* ShiftPointByLastPoint */
SRP1[ ]\011/* SetRefPoint1 */
SHP[1]\011/* ShiftPointByLastPoint */
IUP[0]\011/* InterpolateUntPts */
IUP[1]\011/* InterpolateUntPts */";
};
width = 659;
}
);
leftKerningGroup = "Che-cy";
note = uni0427;
unicode = 0427;
},
{
glyphname = "Tse-cy";
layers = (
{
layerId = "DEC32D14-9EEB-4E31-A016-AD32FECB2E7D";
paths = (
{
closed = 1;
nodes = (
"624 0 LINE",
"613 -58 LINE",
"612 -62 OFFCURVE",
"607 -89 OFFCURVE",
"607 -97 QCURVE SMOOTH",
"607 -106 OFFCURVE",
"617 -115 OFFCURVE",
"631 -115 QCURVE SMOOTH",
"672 -115 LINE",
"695 15 LINE",
"696 19 OFFCURVE",
"701 46 OFFCURVE",
"701 54 QCURVE SMOOTH",
"701 63 OFFCURVE",
"691 72 OFFCURVE",
"677 72 QCURVE SMOOTH",
"613 72 LINE",
"719 670 LINE",
"720 674 OFFCURVE",
"725 701 OFFCURVE",
"725 709 QCURVE SMOOTH",
"725 718 OFFCURVE",
"715 727 OFFCURVE",
"701 727 QCURVE SMOOTH",
"651 727 LINE",
"535 71 LINE",
"147 71 LINE",
"253 670 LINE",
"254 674 OFFCURVE",
"259 701 OFFCURVE",
"259 709 QCURVE SMOOTH",
"259 718 OFFCURVE",
"249 727 OFFCURVE",
"235 727 QCURVE SMOOTH",
"186 727 LINE",
"68 57 LINE",
"67 53 OFFCURVE",
"62 26 OFFCURVE",
"62 18 QCURVE SMOOTH",
"62 9 OFFCURVE",
"72 0 OFFCURVE",
"86 0 QCURVE SMOOTH"
);
}
);
userData = {
assembly = "NPUSHB[ ]\011/* 17 values pushed */
36 32 10 20 17 6 24 41 14 106 41 8 114 6 2 114 32 
SVTCA[0]\011/* SetFreedomAndProjectionVectorToAxis */
MDAP[1]\011/* MoveDirectAbsPt */
CALL[ ]\011/* CallFunction */
CALL[ ]\011/* CallFunction */
CALL[ ]\011/* CallFunction */
SHP[0]\011/* ShiftPointByLastPoint */
SRP1[ ]\011/* SetRefPoint1 */
SHP[1]\011/* ShiftPointByLastPoint */
SHP[1]\011/* ShiftPointByLastPoint */
SHP[1]\011/* ShiftPointByLastPoint */
SRP1[ ]\011/* SetRefPoint1 */
SHP[1]\011/* ShiftPointByLastPoint */
IUP[0]\011/* InterpolateUntPts */
IUP[1]\011/* InterpolateUntPts */";
};
width = 737;
}
);
note = uni0426;
rightKerningGroup = "De-cy";
unicode = 0426;
},
{
glyphname = "Sha-cy";
layers = (
{
layerId = "DEC32D14-9EEB-4E31-A016-AD32FECB2E7D";
paths = (
{
closed = 1;
nodes = (
"838 0 LINE",
"957 670 LINE",
"958 674 OFFCURVE",
"963 701 OFFCURVE",
"963 709 QCURVE SMOOTH",
"963 718 OFFCURVE",
"953 727 OFFCURVE",
"939 727 QCURVE SMOOTH",
"890 727 LINE",
"774 72 LINE",
"499 72 LINE",
"605 670 LINE",
"606 674 OFFCURVE",
"611 701 OFFCURVE",
"611 709 QCURVE SMOOTH",
"611 718 OFFCURVE",
"601 727 OFFCURVE",
"587 727 QCURVE SMOOTH",
"538 727 LINE",
"422 72 LINE",
"147 72 LINE",
"253 670 LINE",
"254 674 OFFCURVE",
"259 701 OFFCURVE",
"259 709 QCURVE SMOOTH",
"259 718 OFFCURVE",
"249 727 OFFCURVE",
"235 727 QCURVE SMOOTH",
"186 727 LINE",
"68 57 LINE",
"67 53 OFFCURVE",
"62 26 OFFCURVE",
"62 18 QCURVE SMOOTH",
"62 9 OFFCURVE",
"72 0 OFFCURVE",
"86 0 QCURVE SMOOTH"
);
}
);
userData = {
assembly = "NPUSHB[ ]\011/* 18 values pushed */
3 0 11 21 31 18 28 7 25 0 15 106 7 2 114 0 8 114 
SVTCA[0]\011/* SetFreedomAndProjectionVectorToAxis */
CALL[ ]\011/* CallFunction */
CALL[ ]\011/* CallFunction */
CALL[ ]\011/* CallFunction */
SHP[0]\011/* ShiftPointByLastPoint */
SRP1[ ]\011/* SetRefPoint1 */
SHP[1]\011/* ShiftPointByLastPoint */
SHP[1]\011/* ShiftPointByLastPoint */
SHP[1]\011/* ShiftPointByLastPoint */
SHP[1]\011/* ShiftPointByLastPoint */
SHP[1]\011/* ShiftPointByLastPoint */
SRP1[ ]\011/* SetRefPoint1 */
SHP[1]\011/* ShiftPointByLastPoint */
IUP[0]\011/* InterpolateUntPts */
IUP[1]\011/* InterpolateUntPts */";
};
width = 961;
}
);
note = uni0428;
unicode = 0428;
},
{
glyphname = "Shcha-cy";
layers = (
{
layerId = "DEC32D14-9EEB-4E31-A016-AD32FECB2E7D";
paths = (
{
closed = 1;
nodes = (
"911 -115 LINE",
"934 15 LINE",
"935 19 OFFCURVE",
"940 46 OFFCURVE",
"940 54 QCURVE SMOOTH",
"940 63 OFFCURVE",
"930 72 OFFCURVE",
"916 72 QCURVE SMOOTH",
"851 72 LINE",
"957 670 LINE",
"958 674 OFFCURVE",
"963 701 OFFCURVE",
"963 709 QCURVE SMOOTH",
"963 718 OFFCURVE",
"953 727 OFFCURVE",
"939 727 QCURVE SMOOTH",
"890 727 LINE",
"774 72 LINE",
"499 72 LINE",
"605 670 LINE",
"606 674 OFFCURVE",
"611 701 OFFCURVE",
"611 709 QCURVE SMOOTH",
"611 718 OFFCURVE",
"601 727 OFFCURVE",
"587 727 QCURVE SMOOTH",
"538 727 LINE",
"422 72 LINE",
"147 72 LINE",
"253 670 LINE",
"254 674 OFFCURVE",
"259 701 OFFCURVE",
"259 709 QCURVE SMOOTH",
"259 718 OFFCURVE",
"249 727 OFFCURVE",
"235 727 QCURVE SMOOTH",
"186 727 LINE",
"68 57 LINE",
"67 53 OFFCURVE",
"62 26 OFFCURVE",
"62 18 QCURVE SMOOTH",
"62 9 OFFCURVE",
"72 0 OFFCURVE",
"86 0 QCURVE SMOOTH",
"863 0 LINE",
"852 -58 LINE",
"851 -62 OFFCURVE",
"846 -89 OFFCURVE",
"846 -97 QCURVE SMOOTH",
"846 -106 OFFCURVE",
"856 -115 OFFCURVE",
"870 -115 QCURVE SMOOTH"
);
}
);
userData = {
assembly = "NPUSHB[ ]\011/* 20 values pushed */
3 0 19 29 39 26 36 15 43 33 8 23 106 8 8 114 15 2 114 0 
SVTCA[0]\011/* SetFreedomAndProjectionVectorToAxis */
MDAP[1]\011/* MoveDirectAbsPt */
CALL[ ]\011/* CallFunction */
CALL[ ]\011/* CallFunction */
CALL[ ]\011/* CallFunction */
SHP[0]\011/* ShiftPointByLastPoint */
SHP[0]\011/* ShiftPointByLastPoint */
SRP1[ ]\011/* SetRefPoint1 */
SHP[1]\011/* ShiftPointByLastPoint */
SHP[1]\011/* ShiftPointByLastPoint */
SHP[1]\011/* ShiftPointByLastPoint */
SHP[1]\011/* ShiftPointByLastPoint */
SHP[1]\011/* ShiftPointByLastPoint */
SRP1[ ]\011/* SetRefPoint1 */
SHP[1]\011/* ShiftPointByLastPoint */
IUP[0]\011/* InterpolateUntPts */
IUP[1]\011/* InterpolateUntPts */";
};
width = 975;
}
);
note = uni0429;
rightKerningGroup = "De-cy";
unicode = 0429;
},
{
glyphname = "Dzhe-cy";
layers = (
{
layerId = "DEC32D14-9EEB-4E31-A016-AD32FECB2E7D";
paths = (
{
closed = 1;
nodes = (
"186 727 LINE",
"68 57 LINE",
"67 53 OFFCURVE",
"62 26 OFFCURVE",
"62 18 QCURVE SMOOTH",
"62 9 OFFCURVE",
"72 0 OFFCURVE",
"86 0 QCURVE SMOOTH",
"289 0 LINE",
"278 -58 LINE",
"277 -62 OFFCURVE",
"272 -89 OFFCURVE",
"272 -97 QCURVE SMOOTH",
"272 -106 OFFCURVE",
"282 -115 OFFCURVE",
"296 -115 QCURVE SMOOTH",
"337 -115 LINE",
"358 0 LINE",
"600 0 LINE",
"719 670 LINE",
"720 674 OFFCURVE",
"725 701 OFFCURVE",
"725 709 QCURVE SMOOTH",
"725 718 OFFCURVE",
"715 727 OFFCURVE",
"701 727 QCURVE SMOOTH",
"651 727 LINE",
"535 71 LINE",
"147 71 LINE",
"254 670 LINE",
"255 674 OFFCURVE",
"260 701 OFFCURVE",
"260 709 QCURVE SMOOTH",
"260 718 OFFCURVE",
"250 727 OFFCURVE",
"236 727 QCURVE SMOOTH"
);
}
);
userData = {
assembly = "NPUSHB[ ]\011/* 17 values pushed */
23 19 3 13 10 35 18 28 7 106 28 8 114 35 2 114 19 
SVTCA[0]\011/* SetFreedomAndProjectionVectorToAxis */
MDAP[1]\011/* MoveDirectAbsPt */
CALL[ ]\011/* CallFunction */
CALL[ ]\011/* CallFunction */
CALL[ ]\011/* CallFunction */
SHP[1]\011/* ShiftPointByLastPoint */
SRP1[ ]\011/* SetRefPoint1 */
SHP[1]\011/* ShiftPointByLastPoint */
SHP[1]\011/* ShiftPointByLastPoint */
SHP[1]\011/* ShiftPointByLastPoint */
SRP1[ ]\011/* SetRefPoint1 */
SHP[1]\011/* ShiftPointByLastPoint */
IUP[0]\011/* InterpolateUntPts */
IUP[1]\011/* InterpolateUntPts */";
};
width = 723;
}
);
note = uni040F;
unicode = 040F;
},
{
glyphname = "Softsign-cy";
layers = (
{
layerId = "DEC32D14-9EEB-4E31-A016-AD32FECB2E7D";
paths = (
{
closed = 1;
nodes = (
"186 727 LINE",
"68 57 LINE",
"67 53 OFFCURVE",
"62 26 OFFCURVE",
"62 18 QCURVE SMOOTH",
"62 10 OFFCURVE",
"72 1 OFFCURVE",
"86 0 QCURVE SMOOTH",
"194 -6 OFFCURVE",
"266 -6 QCURVE SMOOTH",
"379 -6 OFFCURVE",
"533 38 OFFCURVE",
"622 154 OFFCURVE",
"622 258 QCURVE SMOOTH",
"622 313 OFFCURVE",
"571 377 OFFCURVE",
"469 405 OFFCURVE",
"388 405 QCURVE SMOOTH",
"206 405 LINE",
"253 670 LINE",
"254 674 OFFCURVE",
"259 701 OFFCURVE",
"259 709 QCURVE SMOOTH",
"259 718 OFFCURVE",
"249 727 OFFCURVE",
"235 727 QCURVE SMOOTH"
);
},
{
closed = 1;
nodes = (
"265 58 OFFCURVE",
"179 60 OFFCURVE",
"146 62 QCURVE",
"194 338 LINE",
"387 338 LINE SMOOTH",
"440 338 OFFCURVE",
"504 320 OFFCURVE",
"534 279 OFFCURVE",
"534 244 QCURVE SMOOTH",
"534 168 OFFCURVE",
"479 87 OFFCURVE",
"383 58 OFFCURVE",
"308 58 QCURVE SMOOTH"
);
}
);
userData = {
assembly = "NPUSHB[ ]\011/* 19 values pushed */
18 16 3 25 16 38 106 34 7 106 34 34 16 25 2 114 16 8 114 
SVTCA[0]\011/* SetFreedomAndProjectionVectorToAxis */
CALL[ ]\011/* CallFunction */
CALL[ ]\011/* CallFunction */
SRP1[ ]\011/* SetRefPoint1 */
IP[ ]\011/* InterpolatePts */
MDAP[1]\011/* MoveDirectAbsPt */
CALL[ ]\011/* CallFunction */
CALL[ ]\011/* CallFunction */
SRP1[ ]\011/* SetRefPoint1 */
SHP[1]\011/* ShiftPointByLastPoint */
SRP1[ ]\011/* SetRefPoint1 */
SHP[1]\011/* ShiftPointByLastPoint */
IUP[0]\011/* InterpolateUntPts */
IUP[1]\011/* InterpolateUntPts */";
};
width = 657;
}
);
note = uni042C;
rightKerningGroup = "Softsign-cy";
unicode = 042C;
},
{
glyphname = "Hardsign-cy";
layers = (
{
layerId = "DEC32D14-9EEB-4E31-A016-AD32FECB2E7D";
paths = (
{
closed = 1;
nodes = (
"104 727 LINE",
"92 658 LINE",
"297 658 LINE",
"192 57 LINE",
"191 53 OFFCURVE",
"186 26 OFFCURVE",
"186 18 QCURVE SMOOTH",
"186 10 OFFCURVE",
"196 1 OFFCURVE",
"210 0 QCURVE SMOOTH",
"318 -6 OFFCURVE",
"390 -6 QCURVE SMOOTH",
"503 -6 OFFCURVE",
"657 38 OFFCURVE",
"746 154 OFFCURVE",
"746 258 QCURVE SMOOTH",
"746 313 OFFCURVE",
"695 377 OFFCURVE",
"593 405 OFFCURVE",
"512 405 QCURVE SMOOTH",
"330 405 LINE",
"377 670 LINE",
"378 674 OFFCURVE",
"383 701 OFFCURVE",
"383 709 QCURVE SMOOTH",
"383 718 OFFCURVE",
"373 727 OFFCURVE",
"359 727 QCURVE SMOOTH"
);
},
{
closed = 1;
nodes = (
"389 58 OFFCURVE",
"303 60 OFFCURVE",
"270 62 QCURVE",
"318 338 LINE",
"511 338 LINE SMOOTH",
"564 338 OFFCURVE",
"628 320 OFFCURVE",
"658 279 OFFCURVE",
"658 244 QCURVE SMOOTH",
"658 168 OFFCURVE",
"603 87 OFFCURVE",
"506 58 OFFCURVE",
"432 58 QCURVE SMOOTH"
);
}
);
userData = {
assembly = "NPUSHB[ ]\011/* 22 values pushed */
17 15 2 26 15 40 106 36 6 106 36 36 15 26 25 106 26 2 114 15 8 114 
SVTCA[0]\011/* SetFreedomAndProjectionVectorToAxis */
CALL[ ]\011/* CallFunction */
CALL[ ]\011/* CallFunction */
CALL[ ]\011/* CallFunction */
SRP2[ ]\011/* SetRefPoint2 */
IP[ ]\011/* InterpolatePts */
MDAP[1]\011/* MoveDirectAbsPt */
CALL[ ]\011/* CallFunction */
CALL[ ]\011/* CallFunction */
SRP1[ ]\011/* SetRefPoint1 */
SHP[1]\011/* ShiftPointByLastPoint */
SRP1[ ]\011/* SetRefPoint1 */
SHP[1]\011/* ShiftPointByLastPoint */
IUP[0]\011/* InterpolateUntPts */
IUP[1]\011/* InterpolateUntPts */";
};
width = 781;
}
);
leftKerningGroup = "Te-cy";
note = uni042A;
rightKerningGroup = "Softsign-cy";
unicode = 042A;
},
{
glyphname = "Yeru-cy";
layers = (
{
layerId = "DEC32D14-9EEB-4E31-A016-AD32FECB2E7D";
paths = (
{
closed = 1;
nodes = (
"186 727 LINE",
"68 57 LINE",
"67 53 OFFCURVE",
"62 26 OFFCURVE",
"62 18 QCURVE SMOOTH",
"62 2 OFFCURVE",
"135 -6 OFFCURVE",
"211 -6 QCURVE SMOOTH",
"243 -6 OFFCURVE",
"297 -4 QCURVE SMOOTH",
"389 2 OFFCURVE",
"516 53 OFFCURVE",
"587 165 OFFCURVE",
"587 258 QCURVE SMOOTH",
"587 285 OFFCURVE",
"581 307 QCURVE SMOOTH",
"565 360 OFFCURVE",
"454 405 OFFCURVE",
"353 405 QCURVE SMOOTH",
"206 405 LINE",
"253 670 LINE",
"254 674 OFFCURVE",
"259 701 OFFCURVE",
"259 709 QCURVE SMOOTH",
"259 718 OFFCURVE",
"249 727 OFFCURVE",
"235 727 QCURVE SMOOTH"
);
},
{
closed = 1;
nodes = (
"708 0 LINE",
"826 670 LINE",
"827 674 OFFCURVE",
"832 701 OFFCURVE",
"832 709 QCURVE SMOOTH",
"832 718 OFFCURVE",
"822 727 OFFCURVE",
"808 727 QCURVE SMOOTH",
"758 727 LINE",
"640 57 LINE",
"639 53 OFFCURVE",
"634 26 OFFCURVE",
"634 18 QCURVE SMOOTH",
"634 9 OFFCURVE",
"644 0 OFFCURVE",
"658 0 QCURVE SMOOTH"
);
},
{
closed = 1;
nodes = (
"218 58 OFFCURVE",
"146 62 QCURVE",
"194 338 LINE",
"352 338 LINE SMOOTH",
"405 338 OFFCURVE",
"469 320 OFFCURVE",
"499 279 OFFCURVE",
"499 244 QCURVE SMOOTH",
"499 168 OFFCURVE",
"444 87 OFFCURVE",
"348 59 OFFCURVE",
"273 58 QCURVE SMOOTH"
);
}
);
userData = {
assembly = "NPUSHB[ ]\011/* 22 values pushed */
51 7 106 51 51 26 29 42 8 114 37 34 3 26 2 114 19 54 106 19 9 114 
SVTCA[0]\011/* SetFreedomAndProjectionVectorToAxis */
CALL[ ]\011/* CallFunction */
CALL[ ]\011/* CallFunction */
CALL[ ]\011/* CallFunction */
SHP[0]\011/* ShiftPointByLastPoint */
SHP[0]\011/* ShiftPointByLastPoint */
SHP[0]\011/* ShiftPointByLastPoint */
CALL[ ]\011/* CallFunction */
SHP[0]\011/* ShiftPointByLastPoint */
SRP2[ ]\011/* SetRefPoint2 */
IP[ ]\011/* InterpolatePts */
MDAP[1]\011/* MoveDirectAbsPt */
CALL[ ]\011/* CallFunction */
IUP[0]\011/* InterpolateUntPts */
IUP[1]\011/* InterpolateUntPts */";
};
width = 830;
}
);
note = uni042B;
unicode = 042B;
},
{
glyphname = "Lje-cy";
layers = (
{
layerId = "DEC32D14-9EEB-4E31-A016-AD32FECB2E7D";
paths = (
{
closed = 1;
nodes = (
"611 658 LINE",
"506 57 LINE",
"505 53 OFFCURVE",
"500 26 OFFCURVE",
"500 18 QCURVE SMOOTH",
"500 10 OFFCURVE",
"510 1 OFFCURVE",
"524 0 QCURVE SMOOTH",
"632 -6 OFFCURVE",
"703 -6 QCURVE SMOOTH",
"816 -6 OFFCURVE",
"970 38 OFFCURVE",
"1059 154 OFFCURVE",
"1059 258 QCURVE SMOOTH",
"1059 313 OFFCURVE",
"1008 377 OFFCURVE",
"906 405 OFFCURVE",
"825 405 QCURVE SMOOTH",
"643 405 LINE",
"690 670 LINE",
"691 674 OFFCURVE",
"696 701 OFFCURVE",
"696 709 QCURVE SMOOTH",
"696 718 OFFCURVE",
"686 727 OFFCURVE",
"672 727 QCURVE SMOOTH",
"273 727 LINE",
"235 538 OFFCURVE",
"159 207 OFFCURVE",
"133 134 QCURVE SMOOTH",
"122 105 OFFCURVE",
"104 74 OFFCURVE",
"76 59 OFFCURVE",
"51 59 QCURVE SMOOTH",
"23 59 OFFCURVE",
"-7 70 QCURVE",
"-29 2 LINE",
"-9 -4 OFFCURVE",
"33 -12 OFFCURVE",
"50 -12 QCURVE SMOOTH",
"103 -12 OFFCURVE",
"167 31 OFFCURVE",
"203 108 OFFCURVE",
"221 173 QCURVE SMOOTH",
"242 249 OFFCURVE",
"303 517 OFFCURVE",
"333 658 QCURVE"
);
},
{
closed = 1;
nodes = (
"702 58 OFFCURVE",
"616 60 OFFCURVE",
"583 62 QCURVE",
"631 338 LINE",
"824 338 LINE SMOOTH",
"877 338 OFFCURVE",
"941 320 OFFCURVE",
"971 279 OFFCURVE",
"971 244 QCURVE SMOOTH",
"971 168 OFFCURVE",
"916 87 OFFCURVE",
"820 58 OFFCURVE",
"745 58 QCURVE SMOOTH"
);
}
);
userData = {
assembly = "NPUSHB[ ]\011/* 26 values pushed */
37 59 106 39 37 8 114 55 28 106 55 55 7 24 20 0 106 20 2 114 7 13 106 7 9 114 
SVTCA[0]\011/* SetFreedomAndProjectionVectorToAxis */
CALL[ ]\011/* CallFunction */
CALL[ ]\011/* CallFunction */
CALL[ ]\011/* CallFunction */
CALL[ ]\011/* CallFunction */
SHP[1]\011/* ShiftPointByLastPoint */
SRP2[ ]\011/* SetRefPoint2 */
IP[ ]\011/* InterpolatePts */
MDAP[1]\011/* MoveDirectAbsPt */
CALL[ ]\011/* CallFunction */
CALL[ ]\011/* CallFunction */
SHP[0]\011/* ShiftPointByLastPoint */
CALL[ ]\011/* CallFunction */
IUP[0]\011/* InterpolateUntPts */
IUP[1]\011/* InterpolateUntPts */";
};
width = 1094;
}
);
leftKerningGroup = "El-cy";
note = uni0409;
rightKerningGroup = "Softsign-cy";
unicode = 0409;
},
{
glyphname = "Nje-cy";
layers = (
{
layerId = "DEC32D14-9EEB-4E31-A016-AD32FECB2E7D";
paths = (
{
closed = 1;
nodes = (
"670 -6 OFFCURVE",
"741 -6 QCURVE SMOOTH",
"854 -6 OFFCURVE",
"1008 38 OFFCURVE",
"1097 154 OFFCURVE",
"1097 258 QCURVE SMOOTH",
"1097 313 OFFCURVE",
"1046 377 OFFCURVE",
"944 405 OFFCURVE",
"863 405 QCURVE SMOOTH",
"681 405 LINE",
"728 670 LINE",
"729 674 OFFCURVE",
"734 701 OFFCURVE",
"734 709 QCURVE SMOOTH",
"734 718 OFFCURVE",
"724 727 OFFCURVE",
"710 727 QCURVE SMOOTH",
"662 727 LINE",
"605 405 LINE",
"207 405 LINE",
"254 670 LINE",
"255 674 OFFCURVE",
"260 701 OFFCURVE",
"260 709 QCURVE SMOOTH",
"260 718 OFFCURVE",
"250 727 OFFCURVE",
"236 727 QCURVE SMOOTH",
"186 727 LINE",
"68 57 LINE",
"67 53 OFFCURVE",
"62 26 OFFCURVE",
"62 18 QCURVE SMOOTH",
"62 9 OFFCURVE",
"72 0 OFFCURVE",
"86 0 QCURVE SMOOTH",
"136 0 LINE",
"195 338 LINE",
"593 338 LINE",
"544 57 LINE",
"543 53 OFFCURVE",
"538 26 OFFCURVE",
"538 18 QCURVE SMOOTH",
"538 10 OFFCURVE",
"548 1 OFFCURVE",
"562 0 QCURVE SMOOTH"
);
},
{
closed = 1;
nodes = (
"740 58 OFFCURVE",
"654 60 OFFCURVE",
"621 62 QCURVE",
"669 338 LINE",
"862 338 LINE SMOOTH",
"915 338 OFFCURVE",
"979 320 OFFCURVE",
"1009 279 OFFCURVE",
"1009 244 QCURVE SMOOTH",
"1009 168 OFFCURVE",
"954 87 OFFCURVE",
"857 58 OFFCURVE",
"783 58 QCURVE SMOOTH"
);
}
);
userData = {
assembly = "NPUSHB[ ]\011/* 24 values pushed */
43 58 106 43 9 114 34 7 24 106 54 7 7 9 30 27 20 16 2 114 12 9 8 114 
SVTCA[0]\011/* SetFreedomAndProjectionVectorToAxis */
CALL[ ]\011/* CallFunction */
SHP[0]\011/* ShiftPointByLastPoint */
CALL[ ]\011/* CallFunction */
SHP[0]\011/* ShiftPointByLastPoint */
SHP[0]\011/* ShiftPointByLastPoint */
SHP[0]\011/* ShiftPointByLastPoint */
SRP1[ ]\011/* SetRefPoint1 */
IP[ ]\011/* InterpolatePts */
MDAP[1]\011/* MoveDirectAbsPt */
SHP[1]\011/* ShiftPointByLastPoint */
CALL[ ]\011/* CallFunction */
SHP[0]\011/* ShiftPointByLastPoint */
CALL[ ]\011/* CallFunction */
CALL[ ]\011/* CallFunction */
IUP[0]\011/* InterpolateUntPts */
IUP[1]\011/* InterpolateUntPts */";
};
width = 1132;
}
);
note = uni040A;
rightKerningGroup = "Softsign-cy";
unicode = 040A;
},
{
glyphname = "E-cy";
layers = (
{
layerId = "DEC32D14-9EEB-4E31-A016-AD32FECB2E7D";
paths = (
{
closed = 1;
nodes = (
"377 -12 OFFCURVE",
"495 19 OFFCURVE",
"541 42 QCURVE",
"524 95 LINE",
"479 80 OFFCURVE",
"383 58 OFFCURVE",
"348 58 QCURVE SMOOTH",
"279 58 OFFCURVE",
"195 91 OFFCURVE",
"154 167 OFFCURVE",
"154 233 QCURVE SMOOTH",
"154 278 OFFCURVE",
"163 338 QCURVE",
"504 338 LINE",
"516 405 LINE",
"176 405 LINE",
"208 549 OFFCURVE",
"342 673 OFFCURVE",
"437 673 QCURVE SMOOTH",
"521 673 OFFCURVE",
"579 634 QCURVE",
"587 627 OFFCURVE",
"595 627 QCURVE SMOOTH",
"604 627 OFFCURVE",
"610 638 QCURVE SMOOTH",
"645 705 LINE",
"604 720 OFFCURVE",
"499 742 OFFCURVE",
"446 742 QCURVE SMOOTH",
"349 742 OFFCURVE",
"190 642 OFFCURVE",
"86 430 OFFCURVE",
"75 269 QCURVE SMOOTH",
"73 239 OFFCURVE",
"73 226 QCURVE SMOOTH",
"73 141 OFFCURVE",
"127 36 OFFCURVE",
"235 -12 OFFCURVE",
"318 -12 QCURVE SMOOTH"
);
}
);
userData = {
assembly = "NPUSHB[ ]\011/* 18 values pushed */
38 31 106 25 22 106 25 25 38 9 19 106 9 3 114 38 9 114 
SVTCA[0]\011/* SetFreedomAndProjectionVectorToAxis */
CALL[ ]\011/* CallFunction */
CALL[ ]\011/* CallFunction */
CALL[ ]\011/* CallFunction */
SRP2[ ]\011/* SetRefPoint2 */
IP[ ]\011/* InterpolatePts */
MDAP[1]\011/* MoveDirectAbsPt */
CALL[ ]\011/* CallFunction */
CALL[ ]\011/* CallFunction */
IUP[0]\011/* InterpolateUntPts */
IUP[1]\011/* InterpolateUntPts */";
};
width = 603;
}
);
leftKerningGroup = "O-cy";
note = uni0404;
rightKerningGroup = "E-cy";
unicode = 0404;
},
{
glyphname = "Ereversed-cy";
layers = (
{
layerId = "DEC32D14-9EEB-4E31-A016-AD32FECB2E7D";
paths = (
{
closed = 1;
nodes = (
"600 452 OFFCURVE",
"600 511 QCURVE SMOOTH",
"600 637 OFFCURVE",
"481 742 OFFCURVE",
"368 742 QCURVE SMOOTH",
"313 742 OFFCURVE",
"198 720 OFFCURVE",
"153 704 QCURVE",
"161 644 LINE",
"163 633 OFFCURVE",
"172 633 QCURVE SMOOTH",
"176 633 OFFCURVE",
"191 640 OFFCURVE",
"193 641 QCURVE",
"264 673 OFFCURVE",
"347 673 QCURVE SMOOTH",
"404 673 OFFCURVE",
"478 639 OFFCURVE",
"516 559 OFFCURVE",
"516 491 QCURVE SMOOTH",
"516 453 OFFCURVE",
"510 405 QCURVE",
"170 405 LINE",
"158 338 LINE",
"498 338 LINE",
"477 235 OFFCURVE",
"406 112 OFFCURVE",
"299 58 OFFCURVE",
"222 58 QCURVE SMOOTH",
"178 58 OFFCURVE",
"89 77 OFFCURVE",
"55 91 QCURVE",
"32 26 LINE",
"70 10 OFFCURVE",
"168 -12 OFFCURVE",
"216 -12 QCURVE SMOOTH",
"371 -12 OFFCURVE",
"553 184 OFFCURVE",
"587 380 QCURVE SMOOTH"
);
}
);
userData = {
assembly = "NPUSHB[ ]\011/* 18 values pushed */
2 9 106 14 15 106 14 14 2 33 22 106 33 3 114 2 9 114 
SVTCA[0]\011/* SetFreedomAndProjectionVectorToAxis */
CALL[ ]\011/* CallFunction */
CALL[ ]\011/* CallFunction */
CALL[ ]\011/* CallFunction */
SRP2[ ]\011/* SetRefPoint2 */
IP[ ]\011/* InterpolatePts */
MDAP[1]\011/* MoveDirectAbsPt */
CALL[ ]\011/* CallFunction */
CALL[ ]\011/* CallFunction */
IUP[0]\011/* InterpolateUntPts */
IUP[1]\011/* InterpolateUntPts */";
};
width = 608;
}
);
note = uni042D;
rightKerningGroup = "Ereversed-cy";
unicode = 042D;
},
{
glyphname = "Tshe-cy";
layers = (
{
layerId = "DEC32D14-9EEB-4E31-A016-AD32FECB2E7D";
paths = (
{
closed = 1;
nodes = (
"691 0 LINE",
"737 257 LINE SMOOTH",
"740 275 OFFCURVE",
"745 320 OFFCURVE",
"745 336 QCURVE SMOOTH",
"745 409 OFFCURVE",
"653 477 OFFCURVE",
"569 477 QCURVE SMOOTH",
"519 477 OFFCURVE",
"441 450 OFFCURVE",
"407 430 QCURVE SMOOTH",
"389 420 OFFCURVE",
"384 420 QCURVE SMOOTH",
"377 420 OFFCURVE",
"377 428 QCURVE SMOOTH",
"377 433 OFFCURVE",
"379 446 OFFCURVE",
"380 451 QCURVE SMOOTH",
"417 658 LINE",
"662 658 LINE",
"674 727 LINE",
"106 727 LINE",
"94 658 LINE",
"339 658 LINE",
"233 57 LINE",
"232 53 OFFCURVE",
"227 26 OFFCURVE",
"227 18 QCURVE SMOOTH",
"227 9 OFFCURVE",
"237 0 OFFCURVE",
"251 0 QCURVE SMOOTH",
"300 0 LINE",
"358 331 LINE",
"359 339 OFFCURVE",
"365 346 OFFCURVE",
"373 352 QCURVE",
"402 372 OFFCURVE",
"485 409 OFFCURVE",
"535 409 QCURVE SMOOTH",
"607 409 OFFCURVE",
"666 359 OFFCURVE",
"666 308 QCURVE SMOOTH",
"666 296 OFFCURVE",
"661 256 OFFCURVE",
"658 239 QCURVE SMOOTH",
"626 57 LINE",
"625 53 OFFCURVE",
"620 26 OFFCURVE",
"620 18 QCURVE SMOOTH",
"620 9 OFFCURVE",
"630 0 OFFCURVE",
"644 0 QCURVE SMOOTH"
);
}
);
userData = {
assembly = "NPUSHB[ ]\011/* 20 values pushed */
51 2 23 20 43 12 106 43 43 20 32 29 28 106 29 2 114 20 8 114 
SVTCA[0]\011/* SetFreedomAndProjectionVectorToAxis */
CALL[ ]\011/* CallFunction */
CALL[ ]\011/* CallFunction */
CALL[ ]\011/* CallFunction */
SHP[0]\011/* ShiftPointByLastPoint */
SRP2[ ]\011/* SetRefPoint2 */
IP[ ]\011/* InterpolatePts */
MDAP[1]\011/* MoveDirectAbsPt */
CALL[ ]\011/* CallFunction */
SRP1[ ]\011/* SetRefPoint1 */
SHP[1]\011/* ShiftPointByLastPoint */
SHP[1]\011/* ShiftPointByLastPoint */
SHP[1]\011/* ShiftPointByLastPoint */
IUP[0]\011/* InterpolateUntPts */
IUP[1]\011/* InterpolateUntPts */";
};
width = 804;
}
);
leftKerningGroup = "Te-cy";
note = uni040B;
rightKerningGroup = "Tshe-cy";
unicode = 040B;
},
{
glyphname = "Iu-cy";
layers = (
{
layerId = "DEC32D14-9EEB-4E31-A016-AD32FECB2E7D";
paths = (
{
closed = 1;
nodes = (
"186 727 LINE",
"68 57 LINE",
"67 53 OFFCURVE",
"62 26 OFFCURVE",
"62 18 QCURVE SMOOTH",
"62 9 OFFCURVE",
"72 0 OFFCURVE",
"86 0 QCURVE SMOOTH",
"136 0 LINE",
"195 335 LINE",
"376 335 LINE",
"367 275 OFFCURVE",
"367 226 QCURVE SMOOTH",
"367 103 OFFCURVE",
"482 -16 OFFCURVE",
"600 -16 QCURVE SMOOTH",
"733 -16 OFFCURVE",
"897 142 OFFCURVE",
"966 377 OFFCURVE",
"966 501 QCURVE SMOOTH",
"966 623 OFFCURVE",
"852 740 OFFCURVE",
"733 740 QCURVE SMOOTH",
"594 740 OFFCURVE",
"427 577 OFFCURVE",
"389 406 QCURVE",
"207 406 LINE",
"254 670 LINE",
"255 674 OFFCURVE",
"260 701 OFFCURVE",
"260 709 QCURVE SMOOTH",
"260 718 OFFCURVE",
"250 727 OFFCURVE",
"236 727 QCURVE SMOOTH"
);
},
{
closed = 1;
nodes = (
"530 55 OFFCURVE",
"451 139 OFFCURVE",
"451 234 QCURVE SMOOTH",
"451 358 OFFCURVE",
"515 556 OFFCURVE",
"637 671 OFFCURVE",
"720 671 QCURVE SMOOTH",
"777 671 OFFCURVE",
"849 636 OFFCURVE",
"884 560 OFFCURVE",
"884 497 QCURVE SMOOTH",
"884 372 OFFCURVE",
"822 171 OFFCURVE",
"699 55 OFFCURVE",
"611 55 QCURVE SMOOTH"
);
}
);
userData = {
assembly = "NPUSHB[ ]\011/* 27 values pushed */
24 7 106 24 24 26 33 2 114 26 8 114 22 9 11 18 48 106 18 9 114 11 41 106 11 3 114 
SVTCA[0]\011/* SetFreedomAndProjectionVectorToAxis */
CALL[ ]\011/* CallFunction */
CALL[ ]\011/* CallFunction */
CALL[ ]\011/* CallFunction */
CALL[ ]\011/* CallFunction */
SRP2[ ]\011/* SetRefPoint2 */
IP[ ]\011/* InterpolatePts */
IP[ ]\011/* InterpolatePts */
CALL[ ]\011/* CallFunction */
CALL[ ]\011/* CallFunction */
SRP1[ ]\011/* SetRefPoint1 */
IP[ ]\011/* InterpolatePts */
MDAP[1]\011/* MoveDirectAbsPt */
CALL[ ]\011/* CallFunction */
IUP[0]\011/* InterpolateUntPts */
IUP[1]\011/* InterpolateUntPts */";
};
width = 974;
}
);
note = uni042E;
rightKerningGroup = "Iu-cy";
unicode = 042E;
},
